{"glyphs":{"0":{"ha":992,"x_min":0,"x_max":0,"o":"m 496 950 b 25 471 236 950 25 736 b 496 -10 25 206 236 -10 b 967 471 757 -10 967 206 b 496 950 967 736 757 950 z m 731 93 b 351 381 651 44 481 172 b 261 847 222 589 182 797 b 640 560 342 897 510 768 b 731 93 769 353 810 143 z "},"1":{"ha":615,"x_min":0,"x_max":0,"o":"m 25 576 b 279 629 108 576 197 594 l 279 0 l 583 0 l 583 942 l 549 942 b 25 610 485 726 236 613 l 25 576 z "},"2":{"ha":789,"x_min":0,"x_max":0,"o":"m 374 950 b 83 533 58 950 -44 708 l 114 551 b 233 796 36 665 64 821 b 260 357 494 757 589 422 b 25 0 111 326 25 221 l 63 0 b 169 139 63 67 88 139 b 521 -10 265 139 346 -10 b 764 214 726 -10 764 143 b 672 378 764 286 724 335 l 647 354 b 625 243 683 328 694 243 b 378 349 561 243 504 333 b 690 731 578 411 742 540 b 374 950 654 863 531 950 z "},"3":{"ha":767,"x_min":0,"x_max":0,"o":"m 172 458 b 231 467 172 458 197 463 b 418 318 299 447 368 389 b 286 22 543 133 414 22 b 25 113 192 22 101 60 b 3 86 18 103 11 94 b 303 -10 76 31 172 -10 b 742 254 564 -10 742 92 b 476 492 742 376 639 460 b 428 950 794 581 811 950 b 139 843 290 950 208 843 b 61 943 71 843 61 882 l 29 943 b 254 599 10 790 47 599 b 614 829 461 599 463 899 b 326 507 724 779 692 507 b 146 519 207 507 146 519 z "},"4":{"ha":846,"x_min":0,"x_max":0,"o":"m 58 749 b 143 440 58 629 157 519 b 38 385 135 400 93 386 l 24 385 l 24 351 l 414 351 l 414 0 l 718 0 l 718 351 l 821 351 l 821 385 l 718 385 l 718 942 l 683 942 b 414 385 683 622 647 385 l 311 385 b 447 538 390 411 447 457 b 363 854 447 646 357 765 b 461 921 365 906 400 921 l 461 953 b 58 749 276 953 58 940 z "},"5":{"ha":797,"x_min":0,"x_max":0,"o":"m 57 368 b 218 451 75 397 135 456 b 449 318 308 447 392 403 b 304 22 574 133 456 22 b 14 113 208 22 90 60 l -7 86 b 321 -10 65 31 189 -10 b 772 254 581 -10 772 92 b 321 508 772 417 581 511 b 57 410 172 508 99 457 b 86 614 61 483 72 547 b 111 761 94 660 104 707 b 326 590 147 639 226 590 b 558 697 436 590 489 697 b 594 588 626 697 631 614 l 619 564 b 711 742 671 607 711 669 b 519 950 711 813 669 950 b 226 803 365 950 322 803 b 122 942 131 803 122 875 l 89 942 l 89 922 b 54 619 88 796 69 707 b 25 368 39 539 25 464 l 57 368 z "},"6":{"ha":957,"x_min":0,"x_max":0,"o":"m 292 865 b 660 599 421 865 453 599 b 889 943 867 599 910 790 l 858 943 b 775 843 858 882 843 843 b 496 950 706 843 633 950 b 28 408 97 950 7 649 b 481 -10 50 163 219 -10 b 932 286 740 -10 932 97 b 481 572 932 476 740 572 b 236 433 333 572 260 519 b 292 865 156 649 142 865 z m 351 201 b 333 517 242 372 261 472 b 608 361 413 567 511 518 b 628 46 707 204 708 96 b 351 201 549 -4 456 39 z "},"7":{"ha":774,"x_min":0,"x_max":0,"o":"m 490 0 b 513 497 490 263 361 376 b 749 942 614 576 749 690 l 714 942 l 714 932 b 596 803 711 868 686 803 b 246 950 500 803 453 950 b 25 726 58 950 25 799 b 118 564 25 656 67 607 l 143 588 b 179 697 107 614 110 697 b 454 590 249 697 315 590 b 615 639 508 590 567 606 b 493 522 578 592 533 554 b 160 0 332 396 160 217 l 490 0 z "},"8":{"ha":857,"x_min":0,"x_max":0,"o":"m 24 250 b 379 -10 24 75 196 -10 b 832 260 640 -10 832 85 b 615 551 832 396 728 482 b 761 738 707 592 761 657 b 482 950 761 875 650 950 b 90 690 222 950 90 865 b 174 486 90 606 124 540 b 24 250 74 440 24 364 z m 585 163 b 394 24 592 108 569 24 b 58 250 243 24 58 92 b 197 461 58 369 125 431 b 585 163 338 331 569 272 z m 335 771 b 489 919 319 851 354 919 b 728 738 617 919 728 858 b 576 575 728 651 656 601 b 335 771 461 642 349 696 z "},"9":{"ha":957,"x_min":0,"x_max":0,"o":"m 665 75 b 297 342 536 75 504 342 b 68 -1 90 342 47 150 l 99 -1 b 183 99 99 60 114 99 b 461 -10 251 99 324 -10 b 929 533 860 -10 950 292 b 476 950 907 778 738 950 b 25 654 217 950 25 844 b 476 368 25 465 217 368 b 721 506 622 368 696 421 b 665 75 800 292 815 75 z m 625 424 b 349 579 544 374 446 422 b 329 894 250 736 250 846 b 606 739 408 944 507 906 b 625 424 710 564 696 468 z "},"U":{"ha":844,"x_min":0,"x_max":0,"o":"m 621 72 b 336 489 385 72 336 235 l 336 942 l 33 942 l 33 363 b 485 -10 33 150 225 -10 b 811 293 622 -10 811 54 l 811 942 l 508 942 l 508 417 b 710 164 508 238 676 247 b 621 72 724 129 714 72 z "},"G":{"ha":978,"x_min":0,"x_max":0,"o":"m 944 582 l 910 582 b 686 432 910 582 888 432 l 517 432 l 517 399 l 640 399 l 640 375 b 743 85 640 224 818 129 b 351 381 644 26 475 181 b 261 847 222 589 182 797 b 679 599 401 936 472 599 b 908 943 886 599 928 790 l 876 943 b 793 843 876 882 863 843 b 496 950 725 843 633 950 b 25 471 236 950 25 736 b 496 -10 25 206 236 -10 b 944 211 681 -10 829 79 z "},"b":{"ha":889,"x_min":0,"x_max":0,"o":"m 454 761 b 335 725 411 761 372 744 l 335 942 l 300 942 b 32 718 300 749 32 899 l 32 0 l 67 0 b 157 104 67 25 107 97 b 493 -10 292 124 351 -10 b 865 376 651 -10 865 149 b 454 761 865 603 701 761 z m 335 589 b 371 706 335 649 342 690 b 586 424 435 738 549 588 b 558 64 625 264 639 114 b 335 138 497 25 410 46 z "},"x":{"ha":896,"x_min":0,"x_max":0,"o":"m 460 751 b 594 444 588 608 642 500 b 529 550 578 472 558 504 b 181 761 408 739 278 761 b -35 657 108 761 19 736 l -11 632 b 172 551 33 681 128 625 b 260 408 222 468 225 464 b 24 0 161 357 24 206 l 436 0 b 278 379 286 165 196 325 b 390 203 300 342 335 289 b 724 -10 510 13 628 -10 b 939 94 796 -10 885 17 l 915 119 b 746 201 867 67 797 121 b 619 406 675 314 649 358 b 871 751 729 454 871 568 l 460 751 z "},"¶":{"ha":779,"x_min":0,"x_max":0,"o":"m 443 533 b 556 679 443 638 483 679 b 708 449 649 679 708 603 l 708 -189 l 747 -189 l 747 460 b 419 761 747 699 558 761 b 25 469 160 761 25 632 b 406 156 25 297 131 160 l 406 -189 l 443 -189 z "},"∆":{"ha":765,"x_min":0,"x_max":0,"o":"m 740 17 l 414 940 l 351 940 l 25 17 l 25 0 l 740 0 z m 89 54 l 382 885 l 676 54 z "},"‹":{"ha":379,"x_min":0,"x_max":0,"o":"m 349 697 l 315 729 l 32 465 l 315 201 l 349 235 l 146 465 z "},"<":{"ha":493,"x_min":0,"x_max":0,"o":"m 461 726 l 433 763 l 32 465 l 433 169 l 461 206 l 154 465 z "},"#":{"ha":693,"x_min":0,"x_max":0,"o":"m 482 731 l 461 563 l 275 563 l 296 731 l 243 731 l 222 563 l 63 563 l 63 508 l 215 508 l 183 256 l 25 256 l 25 203 l 176 203 l 156 35 l 210 35 l 231 203 l 417 203 l 396 35 l 450 35 l 471 203 l 631 203 l 631 256 l 476 256 l 508 508 l 668 508 l 668 563 l 515 563 l 536 731 z m 268 508 l 454 508 l 422 256 l 236 256 z "},"%":{"ha":1436,"x_min":0,"x_max":0,"o":"m 439 0 b 739 469 439 204 532 350 l 754 479 b 1103 942 956 596 1103 681 l 1068 942 b 733 504 1068 699 935 621 l 719 496 b 404 0 501 369 404 217 z m 444 950 b 25 729 183 950 25 874 b 444 508 25 586 183 508 b 863 729 704 508 863 586 b 444 950 863 874 704 950 z m 560 549 b 371 674 506 522 453 544 b 329 911 300 786 274 885 b 517 785 383 938 435 915 b 560 549 589 674 614 575 z m 992 432 b 572 211 732 432 572 356 b 992 -10 572 68 732 -10 b 1411 211 1251 -10 1411 68 b 992 432 1411 356 1251 432 z m 1107 31 b 919 156 1053 4 1001 26 b 876 393 847 268 821 367 b 1065 267 931 419 983 397 b 1107 31 1136 156 1163 57 z "},"&":{"ha":1124,"x_min":0,"x_max":0,"o":"m 24 249 b 443 -10 24 97 183 -10 b 678 38 542 -10 617 7 b 1099 143 825 -71 996 29 l 1076 164 b 932 174 1035 119 981 101 b 828 324 932 174 914 197 b 314 654 661 568 408 485 b 382 829 271 732 307 828 b 756 599 539 832 549 599 b 985 943 963 599 1006 790 l 954 943 b 869 843 954 882 939 843 b 544 950 801 843 682 950 b 261 735 342 950 261 863 b 354 492 261 657 289 596 b 24 249 167 467 24 396 z m 403 417 b 592 131 436 364 592 131 b 644 64 608 104 626 82 b 343 201 536 32 415 60 b 381 450 283 319 308 411 b 403 417 388 439 394 428 z "},"F":{"ha":818,"x_min":0,"x_max":0,"o":"m 574 456 l 335 456 b 74 689 315 614 86 603 b 140 765 68 726 83 765 b 565 597 264 765 350 597 b 789 942 746 597 810 789 l 758 942 b 671 842 758 881 732 842 b 293 953 542 842 468 953 b 32 650 156 953 32 889 l 32 0 l 336 0 l 336 422 l 574 422 z "},"H":{"ha":850,"x_min":0,"x_max":0,"o":"m 336 0 l 336 493 b 421 476 363 499 389 492 b 514 442 453 460 483 446 l 514 0 l 818 0 l 818 942 l 514 942 l 514 474 b 436 506 492 478 467 490 b 336 526 410 519 375 532 l 336 942 l 32 942 l 32 0 z "},"©":{"ha":878,"x_min":0,"x_max":0,"o":"m 439 861 b 24 461 210 861 24 682 b 439 61 24 240 210 61 b 853 461 667 61 853 240 b 439 861 853 682 667 861 z m 542 97 b 117 378 365 51 174 178 b 335 825 60 579 157 779 b 760 544 513 871 703 744 b 542 97 817 343 719 143 z m 518 535 b 633 708 622 535 644 632 l 610 708 b 575 658 610 678 610 658 b 425 713 540 658 494 713 b 188 469 293 713 188 604 b 425 228 188 336 293 228 b 647 361 518 228 608 282 l 629 374 b 492 293 603 324 554 278 b 353 425 447 304 399 350 b 307 651 286 529 267 626 b 518 535 378 696 414 535 z "},"!":{"ha":406,"x_min":0,"x_max":0,"o":"m 219 344 b 356 814 219 536 356 631 l 356 942 l 51 942 l 51 814 b 185 344 51 635 185 538 z m 25 156 b 203 -10 25 58 96 -10 b 381 156 308 -10 381 58 b 203 321 381 253 308 321 b 25 156 96 321 25 253 z "},"T":{"ha":914,"x_min":0,"x_max":0,"o":"m 117 564 l 142 588 b 178 697 106 614 110 697 b 306 651 208 697 251 675 l 306 0 l 610 0 l 610 421 b 356 631 610 574 414 467 b 557 590 413 608 479 590 b 889 940 694 590 889 685 l 854 940 b 713 803 854 874 808 803 b 274 950 617 803 481 950 b 25 726 67 950 25 799 b 117 564 25 656 65 607 z "},"e":{"ha":732,"x_min":0,"x_max":0,"o":"m 317 339 b 439 761 817 461 806 761 b 24 376 190 761 24 603 b 439 -10 24 149 190 -10 b 856 196 650 -10 738 61 b 829 222 847 204 839 214 b 335 310 669 46 496 56 b 317 339 328 319 322 329 z m 435 603 b 299 368 507 486 415 392 b 240 689 207 525 169 643 b 435 603 293 722 376 697 z "},"f":{"ha":751,"x_min":0,"x_max":0,"o":"m 671 515 l 404 515 b 164 689 344 613 175 615 b 231 765 158 726 172 765 b 513 597 326 765 335 597 b 724 942 694 597 744 789 l 692 942 b 618 842 692 881 681 842 b 383 953 550 842 521 953 b 122 650 246 953 122 888 l 122 515 l 25 515 l 25 482 l 122 482 l 122 0 l 426 0 l 426 435 b 419 482 426 451 424 468 l 671 482 z "},"g":{"ha":888,"x_min":0,"x_max":0,"o":"m 864 -121 b 785 -192 861 -164 842 -192 b 265 -25 689 -192 497 -25 b 46 -368 85 -25 25 -217 l 78 -368 b 160 -269 78 -307 99 -269 b 632 -379 328 -269 494 -379 b 907 -126 769 -379 907 -281 b 485 207 907 75 733 264 b 228 182 360 178 228 115 b 424 246 228 244 363 246 l 443 246 b 863 504 703 246 863 336 b 807 650 863 560 843 614 b 915 728 767 701 807 751 l 915 758 b 697 721 813 883 665 821 b 443 761 629 747 544 761 b 24 504 183 761 24 672 b 271 261 24 376 115 294 b 194 168 225 246 194 218 b 535 -40 194 61 350 -24 b 864 -121 713 -57 872 -18 z m 576 292 b 360 439 515 261 456 288 b 310 717 278 571 247 686 b 526 568 372 746 432 719 b 576 292 608 438 639 322 z "},"ß":{"ha":885,"x_min":0,"x_max":0,"o":"m 301 942 b 33 718 301 749 33 899 l 33 0 l 68 0 b 336 63 113 110 243 125 l 336 586 b 374 704 338 611 331 686 b 524 606 425 726 475 706 b 381 367 585 481 504 367 l 379 367 l 379 335 b 540 149 421 331 494 275 b 514 -229 590 14 572 -229 b 221 46 418 -229 399 46 b 47 -297 82 46 26 -146 l 78 -297 b 151 -199 78 -236 90 -199 b 481 -260 251 -199 343 -247 b 860 76 732 -282 869 -129 b 546 360 854 221 726 329 b 832 583 701 400 832 479 b 456 761 832 689 707 772 b 336 729 408 758 369 746 l 336 942 z "},"∏":{"ha":826,"x_min":0,"x_max":0,"o":"m 338 435 b 75 689 338 615 88 600 b 140 765 68 726 83 765 b 560 597 264 765 350 600 b 489 332 519 544 489 469 l 489 0 l 793 0 l 793 942 l 758 942 b 671 842 758 881 733 842 b 294 953 543 842 469 953 b 33 650 156 953 33 888 l 33 0 l 338 0 z "},"π":{"ha":1208,"x_min":0,"x_max":0,"o":"m 142 588 b 179 697 106 614 110 694 b 294 692 217 699 256 696 l 294 0 l 599 0 l 599 421 b 332 686 599 588 363 443 b 661 613 439 668 549 635 l 661 0 l 965 0 l 965 350 b 700 606 965 515 735 376 b 864 590 754 596 808 590 b 1183 940 1014 590 1183 685 l 1147 940 b 1019 803 1147 874 1111 803 b 274 950 813 803 583 950 b 25 726 67 950 25 799 b 117 564 25 656 67 607 z "},"◊":{"ha":649,"x_min":0,"x_max":0,"o":"m 324 640 l 24 340 l 325 40 l 624 340 z m 100 340 l 324 564 l 547 340 l 324 117 z "},"√":{"ha":831,"x_min":0,"x_max":0,"o":"m 806 922 l 756 942 l 425 94 l 206 656 l 163 656 l 25 301 l 75 282 l 185 563 l 404 0 l 446 0 z "},"∞":{"ha":1136,"x_min":0,"x_max":0,"o":"m 863 640 b 579 442 732 640 650 539 b 568 425 575 436 571 431 l 551 449 b 275 640 481 547 404 640 b 25 347 154 640 25 550 b 275 54 25 146 154 54 b 557 254 404 54 488 156 l 568 268 l 586 246 b 863 54 657 147 733 54 b 1113 347 982 54 1113 146 b 863 640 1113 550 982 640 z m 157 539 b 535 308 260 606 429 463 b 435 181 510 275 476 221 b 147 315 357 104 214 185 b 157 539 86 438 104 504 z m 979 157 b 601 386 878 90 707 232 b 703 515 626 421 661 474 b 989 379 781 590 922 511 b 979 157 1051 258 1032 192 z "},"∂":{"ha":747,"x_min":0,"x_max":0,"o":"m 432 -10 b 722 350 651 -10 722 176 b 321 953 722 600 650 940 b 99 493 38 964 -54 671 l 129 493 b 317 651 126 564 171 642 b 686 361 483 663 686 594 b 682 294 686 338 685 315 b 400 507 654 406 561 497 b 50 249 217 518 50 417 b 432 -10 50 81 228 -10 z m 560 74 b 374 207 507 64 438 88 b 367 464 307 332 304 433 b 660 192 426 492 661 429 b 560 74 638 125 601 81 z "},"®":{"ha":878,"x_min":0,"x_max":0,"o":"m 439 861 b 25 461 210 861 25 682 b 439 61 25 240 210 61 b 853 461 667 61 853 240 b 439 861 853 682 667 861 z m 543 97 b 117 378 365 51 175 178 b 335 825 60 579 157 779 b 760 544 513 871 703 744 b 543 97 818 343 719 143 z m 403 453 b 485 265 533 453 411 340 b 708 307 558 192 661 244 l 693 322 b 626 313 671 300 651 288 b 560 443 601 338 610 394 b 521 471 547 456 533 465 b 633 586 589 490 633 531 b 406 713 633 669 536 713 b 240 560 336 713 240 681 l 240 232 l 393 232 l 393 497 b 292 617 393 588 308 575 b 340 671 285 635 294 671 b 453 611 378 671 419 651 b 432 478 514 536 483 485 l 403 478 z "},"V":{"ha":935,"x_min":0,"x_max":0,"o":"m 488 942 b 635 340 674 829 749 532 b 553 164 599 279 571 219 b 503 451 546 276 529 365 b 424 697 471 556 456 599 b 121 949 354 911 192 949 b -94 844 49 949 -40 922 l -71 818 b 78 782 -26 867 44 861 b 222 310 133 651 164 488 b 524 0 275 154 524 282 l 558 0 b 681 344 558 71 600 221 b 910 942 772 486 910 742 z "},"W":{"ha":1463,"x_min":0,"x_max":0,"o":"m -94 844 l -71 818 b 78 782 -26 867 44 861 b 224 310 133 651 164 488 b 524 0 275 154 524 282 l 558 0 b 667 344 558 71 586 221 b 725 439 685 372 704 404 b 765 310 736 397 750 354 b 1065 0 817 154 1065 282 l 1101 0 b 1208 344 1101 71 1128 221 b 1438 942 1301 486 1438 742 l 1017 942 b 1163 340 1203 829 1276 532 b 1094 185 1132 288 1110 235 b 1046 451 1086 288 1069 371 l 967 697 b 663 949 897 911 735 949 b 447 844 592 949 503 922 l 472 818 b 621 782 515 867 586 861 b 621 340 683 638 699 472 b 551 183 589 286 567 235 b 503 451 544 288 528 371 b 424 697 471 556 457 599 b 121 949 354 911 192 949 b -94 844 49 949 -40 922 z "},"I":{"ha":368,"x_min":0,"x_max":0,"o":"m 336 0 l 336 942 l 32 942 l 32 0 z "},"J":{"ha":800,"x_min":0,"x_max":0,"o":"m 464 507 b 726 253 464 328 713 342 b 660 176 732 215 726 176 b 258 344 564 176 465 344 b 29 0 51 344 10 153 l 61 0 b 144 100 61 61 75 100 b 440 -10 213 100 303 -10 b 768 293 578 -10 768 54 l 768 942 l 464 942 l 464 507 z "},"K":{"ha":975,"x_min":0,"x_max":0,"o":"m 432 494 b 214 33 433 238 397 33 b 147 244 4 33 53 208 b 336 496 221 274 336 311 l 336 942 l 32 942 l 32 0 l 214 0 b 465 469 418 0 463 208 b 596 67 718 467 450 211 b 1039 149 742 -79 946 26 l 1017 171 b 878 158 974 126 926 110 b 765 418 829 207 839 331 b 465 501 689 508 582 501 l 465 528 b 553 650 465 574 485 650 b 750 576 622 650 638 576 b 950 940 888 576 950 685 l 915 940 b 854 835 915 886 890 835 b 642 950 778 835 765 950 b 432 533 435 950 432 753 l 432 494 z "},"L":{"ha":797,"x_min":0,"x_max":0,"o":"m 763 365 l 728 367 b 629 243 735 322 699 243 b 344 351 561 243 482 351 b 74 190 249 351 135 306 b 336 507 118 407 336 346 l 336 942 l 32 942 l 32 0 l 67 0 b 181 139 67 67 83 139 b 515 -10 276 139 308 -10 b 763 365 781 -10 789 240 z "},"M":{"ha":965,"x_min":0,"x_max":0,"o":"m 411 746 b 32 942 354 939 225 942 l 32 0 l 336 0 l 336 26 b 68 829 336 368 93 196 b 143 588 96 740 103 724 b 465 200 213 360 465 435 l 500 200 b 822 588 500 435 753 360 b 894 825 861 721 868 740 b 629 26 869 196 629 368 l 629 0 l 933 0 l 933 942 l 897 942 b 553 746 724 940 607 926 b 489 529 515 618 519 639 b 482 500 486 519 483 510 l 475 529 b 411 746 446 639 450 618 z "},"N":{"ha":810,"x_min":0,"x_max":0,"o":"m 442 743 b 68 942 329 939 190 942 l 33 942 l 33 0 l 336 0 l 336 26 b 72 779 336 358 108 204 l 332 322 b 742 0 463 93 742 219 l 776 0 l 776 942 l 474 942 l 474 915 b 733 204 474 590 689 724 b 658 354 715 247 690 294 b 442 743 600 463 514 614 z "},"O":{"ha":992,"x_min":0,"x_max":0,"o":"m 496 950 b 25 471 236 950 25 736 b 496 -10 25 206 236 -10 b 967 471 757 -10 967 206 b 496 950 967 736 757 950 z m 731 93 b 351 381 651 44 481 172 b 261 847 222 589 182 797 b 640 560 342 897 511 768 b 731 93 771 353 810 143 z "},"v":{"ha":847,"x_min":0,"x_max":0,"o":"m 467 42 b 392 364 403 38 349 78 b 357 690 410 486 422 606 b -96 608 239 838 -3 731 l -74 586 b 53 608 -31 629 15 640 b 82 372 107 561 100 483 b 411 -6 47 156 168 -6 b 789 751 756 -6 892 606 l 386 751 b 467 42 601 636 704 56 z "},"u":{"ha":840,"x_min":0,"x_max":0,"o":"m 808 0 l 808 751 l 504 751 l 504 157 b 451 64 501 110 489 76 b 340 364 369 39 297 78 b 306 690 358 486 372 606 b -146 608 189 838 -53 731 l -125 586 b 1 608 -81 629 -35 640 b 31 372 56 561 49 483 b 360 -6 -4 156 119 -6 b 710 107 497 -6 567 136 b 774 0 747 99 774 69 z "},"t":{"ha":689,"x_min":0,"x_max":0,"o":"m 425 507 l 425 719 l 632 719 l 632 751 l 425 751 l 425 943 l 392 943 b 122 751 392 851 317 751 l 25 751 l 25 719 l 122 719 l 122 293 b 364 -10 122 54 246 -10 b 561 101 486 -10 493 101 b 625 1 624 101 625 63 l 657 1 b 485 346 676 154 665 346 b 229 178 360 346 325 178 b 163 254 172 178 157 217 b 425 507 176 343 425 328 z "},"s":{"ha":682,"x_min":0,"x_max":0,"o":"m 317 568 b 231 726 117 618 149 726 b 493 533 326 726 383 533 b 639 751 613 533 639 685 l 603 751 b 504 689 603 710 557 689 b 231 761 407 689 357 761 b 26 528 119 761 22 647 b 300 257 31 369 169 282 b 517 115 454 228 504 168 b 463 31 528 67 497 33 b 186 260 365 22 367 260 b 35 0 39 260 35 68 l 69 0 b 156 81 69 51 97 81 b 414 -10 251 81 288 -10 b 657 254 589 -10 653 121 b 317 568 663 431 528 514 z "},"r":{"ha":797,"x_min":0,"x_max":0,"o":"m 32 751 l 32 0 l 336 0 l 333 611 b 382 692 333 661 346 697 b 601 449 468 679 421 449 b 771 751 719 449 785 521 l 735 751 b 674 661 735 700 719 661 b 449 761 606 661 611 761 b 204 649 333 761 296 665 b 67 751 128 635 67 644 z "},"Ω":{"ha":1161,"x_min":0,"x_max":0,"o":"m 44 333 b 188 -10 1 200 21 -10 b 449 106 286 -10 351 106 b 526 0 504 106 526 67 l 563 0 b 439 599 563 228 579 400 b 407 882 342 736 328 833 b 696 704 482 929 594 865 b 618 163 803 535 671 385 b 599 0 606 121 599 68 l 633 0 l 633 14 b 713 106 636 72 661 106 b 974 -10 808 106 874 -10 b 1117 333 1140 -10 1158 200 l 1082 333 b 1022 210 1089 289 1090 210 b 774 294 936 210 892 294 b 724 288 757 294 739 292 b 1025 646 839 424 1025 440 b 593 950 1025 822 840 950 b 117 636 344 950 117 813 b 463 276 117 411 347 403 b 388 294 439 289 413 294 b 139 210 269 294 225 210 b 79 333 69 210 71 289 z "},"q":{"ha":890,"x_min":0,"x_max":0,"o":"m 824 -364 l 858 -364 l 858 751 l 824 751 b 733 647 824 726 782 654 b 397 761 599 628 522 761 b 25 376 239 761 25 603 b 436 -10 25 149 189 -10 b 554 25 478 -10 517 6 l 554 -140 b 824 -364 554 -319 824 -171 z m 519 47 b 303 328 456 14 342 164 b 331 689 265 488 251 638 b 554 615 390 726 478 706 l 554 219 b 519 47 554 128 556 67 z "},"o":{"ha":879,"x_min":0,"x_max":0,"o":"m 440 761 b 25 376 192 761 25 603 b 440 -10 25 149 192 -10 b 854 376 688 -10 854 149 b 440 761 854 603 688 761 z m 638 64 b 336 310 558 14 454 125 b 242 689 218 496 163 638 b 543 442 321 739 425 628 b 638 64 660 257 718 114 z "},"p":{"ha":890,"x_min":0,"x_max":0,"o":"m 68 -364 b 336 -140 68 -171 336 -319 l 336 56 b 494 -10 393 8 454 -10 b 865 376 651 -10 865 149 b 456 761 865 603 703 761 b 165 647 343 761 249 647 b 68 751 118 647 68 651 l 32 751 l 32 -364 z m 336 532 b 372 706 336 624 335 686 b 588 424 435 738 549 588 b 560 64 625 264 639 114 b 336 138 499 25 411 46 z "},"a":{"ha":865,"x_min":0,"x_max":0,"o":"m 506 761 b 171 661 346 761 258 661 b 110 751 125 661 110 700 l 74 751 b 224 449 49 521 106 449 b 432 718 404 449 340 692 b 529 431 519 743 563 682 b 411 436 493 435 454 436 b 25 215 151 436 25 360 b 385 -6 25 72 138 -6 b 546 85 501 -6 538 32 b 1011 149 654 -87 914 19 l 990 171 b 864 149 946 126 900 117 b 835 385 810 196 817 274 b 506 761 869 601 744 761 z m 510 243 b 488 47 510 158 521 63 b 324 188 433 21 374 61 b 346 388 285 283 292 361 b 525 399 385 407 453 408 l 525 393 b 510 243 517 342 511 290 z "},"§":{"ha":725,"x_min":0,"x_max":0,"o":"m 164 475 b 343 339 158 379 251 339 b 601 332 463 339 543 394 b 526 243 632 299 596 243 b 261 322 458 243 400 322 b 25 0 124 322 25 257 l 60 0 b 169 110 60 67 74 110 b 481 -10 265 110 318 -10 b 629 353 679 -10 776 217 b 538 414 600 379 569 399 b 557 467 549 428 556 444 b 378 601 563 563 471 601 b 119 610 260 601 178 546 b 194 697 90 643 125 697 b 460 618 264 697 322 618 b 696 940 597 618 696 685 l 661 940 b 551 831 661 874 649 831 b 240 950 456 831 403 950 b 92 589 42 950 -56 724 b 182 526 119 563 150 542 b 164 475 171 513 165 496 z m 522 465 b 513 424 525 450 521 436 b 325 436 456 444 394 447 b 199 476 257 424 207 438 b 208 515 196 490 200 504 b 397 506 264 496 326 493 b 522 465 465 518 515 504 z "},"å":{"ha":865,"x_min":0,"x_max":0,"o":"m 483 1022 b 272 919 328 1022 272 989 b 483 815 272 849 328 815 b 694 919 639 815 694 849 b 483 1022 694 989 639 1022 z m 518 840 b 447 903 490 831 468 854 b 449 999 426 951 421 989 b 519 935 476 1008 499 983 b 518 840 540 888 546 850 z m 506 761 b 171 661 346 761 258 661 b 110 751 125 661 110 700 l 74 751 b 224 449 49 521 106 449 b 432 718 404 449 340 692 b 529 431 519 743 563 682 b 411 436 493 435 454 436 b 25 215 151 436 25 360 b 385 -6 25 72 138 -6 b 546 85 501 -6 538 32 b 560 67 550 79 554 72 b 1011 149 676 -81 918 26 l 990 171 b 864 149 946 126 900 117 b 835 385 810 196 817 274 b 506 761 869 601 744 761 z m 510 233 b 488 47 510 149 521 63 b 324 188 433 21 374 61 b 346 388 285 283 292 361 b 525 399 385 407 453 408 l 525 393 b 510 233 517 342 510 281 z "},"ã":{"ha":867,"x_min":0,"x_max":0,"o":"m 506 761 b 172 661 346 761 258 661 b 110 751 125 661 110 700 l 75 751 b 224 449 49 521 107 449 b 433 718 406 449 342 692 b 529 431 521 743 563 682 b 411 436 493 435 454 436 b 25 215 151 436 25 360 b 385 -6 25 72 138 -6 b 546 86 503 -6 538 32 b 560 67 550 79 554 72 b 1013 149 678 -81 919 26 l 990 171 b 864 149 947 126 901 117 b 836 385 810 196 818 274 b 506 761 871 601 746 761 z m 510 243 b 489 47 510 158 522 63 b 324 188 435 21 375 61 b 347 388 286 283 292 361 b 525 399 386 407 454 408 l 525 393 b 510 243 517 342 510 290 z m 376 1003 b 247 813 286 1003 247 947 l 279 813 b 346 888 279 861 294 885 b 578 822 432 893 493 822 b 697 1013 658 822 697 879 l 671 1013 b 613 938 671 964 657 943 b 376 1003 542 928 475 1003 z "},"ä":{"ha":865,"x_min":0,"x_max":0,"o":"m 506 761 b 171 661 346 761 258 661 b 110 751 125 661 110 700 l 74 751 b 224 449 49 521 106 449 b 432 718 406 449 342 692 b 529 431 519 743 563 682 b 411 436 493 435 454 436 b 25 215 151 436 25 360 b 385 -6 25 72 138 -6 b 546 85 501 -6 538 32 b 560 67 550 79 554 72 b 1011 149 676 -81 918 26 l 990 171 b 864 149 946 126 900 117 b 835 385 810 196 817 274 b 506 761 869 601 746 761 z m 510 243 b 488 47 510 158 521 63 b 324 188 433 21 374 61 b 346 388 285 283 292 361 b 525 399 385 407 453 408 l 525 393 b 510 243 517 342 511 290 z m 726 883 b 619 983 726 939 679 983 b 514 883 561 983 514 939 b 619 783 514 828 561 783 b 726 883 679 783 726 828 z m 474 883 b 368 983 474 939 426 983 b 263 883 310 983 263 939 b 368 783 263 828 310 783 b 474 883 426 783 474 828 z "},"â":{"ha":865,"x_min":0,"x_max":0,"o":"m 506 761 b 171 661 346 761 258 661 b 110 751 125 661 110 700 l 74 751 b 224 449 49 521 106 449 b 432 718 406 449 342 692 b 529 431 519 743 563 682 b 411 436 493 435 454 436 b 25 215 151 436 25 360 b 385 -6 25 72 138 -6 b 546 85 501 -6 538 32 b 560 67 550 79 554 72 b 1011 149 676 -81 918 26 l 990 171 b 864 149 946 126 900 117 b 835 385 810 196 817 274 b 506 761 869 601 746 761 z m 510 243 b 488 47 510 158 521 63 b 324 188 433 21 374 61 b 346 388 285 283 292 361 b 525 399 385 407 453 408 l 525 393 b 510 243 517 342 511 290 z m 329 792 l 481 904 l 632 792 l 674 792 l 533 1028 l 428 1028 l 286 792 z "},"à":{"ha":865,"x_min":0,"x_max":0,"o":"m 506 761 b 171 661 346 761 258 661 b 110 751 125 661 110 700 l 74 751 b 224 449 49 521 106 449 b 432 718 404 449 340 692 b 529 431 519 743 563 682 b 411 436 493 435 454 436 b 25 215 151 436 25 360 b 385 -6 25 72 138 -6 b 546 85 501 -6 538 32 b 560 67 550 79 554 72 b 1011 149 676 -81 918 26 l 990 171 b 864 149 946 126 900 117 b 835 385 810 196 817 274 b 506 761 869 601 744 761 z m 510 233 b 488 47 510 149 521 63 b 324 188 433 21 374 61 b 346 388 285 283 292 361 b 525 399 385 407 453 408 l 525 393 b 510 233 517 342 510 281 z m 553 792 l 472 1028 l 246 1028 l 246 994 l 510 792 z "},"á":{"ha":865,"x_min":0,"x_max":0,"o":"m 506 761 b 171 661 346 761 258 661 b 110 751 125 661 110 700 l 74 751 b 224 449 49 521 106 449 b 432 718 404 449 340 692 b 529 431 519 743 563 682 b 411 436 493 435 454 436 b 25 215 151 436 25 360 b 385 -6 25 72 138 -6 b 546 85 501 -6 538 32 b 560 67 550 79 554 72 b 1011 149 676 -81 918 26 l 990 171 b 864 149 946 126 900 117 b 835 385 810 196 817 274 b 506 761 869 601 744 761 z m 510 233 b 488 47 510 149 521 63 b 324 188 433 21 374 61 b 346 388 285 283 292 361 b 525 399 385 407 453 408 l 525 393 b 510 233 517 342 510 281 z m 511 792 l 775 994 l 775 1028 l 549 1028 l 468 792 z "},"₀":{"ha":635,"x_min":0,"x_max":0,"o":"m 317 535 b 25 263 143 535 25 424 b 317 -10 25 101 143 -10 b 610 263 492 -10 610 101 b 317 535 610 424 492 535 z m 457 42 b 244 217 401 7 326 85 b 178 483 161 347 121 447 b 390 310 233 518 307 440 b 457 42 474 178 514 78 z "},"₁":{"ha":451,"x_min":0,"x_max":0,"o":"m 25 278 b 204 315 83 278 146 290 l 204 0 l 419 0 l 419 535 l 394 535 b 25 300 350 383 174 303 l 25 278 z "},"₂":{"ha":522,"x_min":0,"x_max":0,"o":"m 247 535 b 72 289 90 535 -11 403 l 94 301 b 172 425 42 379 94 436 b 190 249 292 407 358 282 b 25 11 89 228 28 160 l 25 0 l 51 0 b 126 94 51 47 69 94 b 342 -10 194 94 247 -10 b 497 149 461 -10 497 97 b 432 264 497 199 468 233 l 414 247 b 399 169 440 228 447 169 b 254 236 360 169 322 217 b 451 426 383 267 481 321 b 247 535 431 501 336 535 z "},"₃":{"ha":590,"x_min":0,"x_max":0,"o":"m 147 233 b 239 244 147 233 190 242 b 328 175 267 240 296 224 b 239 14 390 75 358 10 b 4 119 140 17 49 69 l -11 107 b 269 -10 44 39 131 -10 b 565 136 453 -10 565 35 b 383 261 565 211 497 249 b 311 535 582 325 571 535 b 107 492 213 535 156 492 b 51 529 58 492 51 504 l 29 529 b 181 319 15 422 35 319 b 442 450 328 319 336 499 b 274 268 496 424 513 275 l 263 268 l 256 268 b 128 276 171 268 128 276 z "},"₄":{"ha":525,"x_min":0,"x_max":0,"o":"m 53 408 b 119 221 53 329 126 290 b 35 156 114 176 78 158 l 25 156 l 25 132 l 278 132 l 278 0 l 493 0 l 493 535 l 468 535 b 296 156 468 194 407 158 l 199 156 b 321 290 271 179 321 221 b 253 467 321 379 250 403 b 324 514 256 503 281 514 l 324 536 b 53 408 193 536 53 517 z "},"₅":{"ha":553,"x_min":0,"x_max":0,"o":"m 49 193 b 161 236 49 193 114 231 b 290 175 204 240 251 238 b 215 14 353 74 307 11 b 1 82 128 17 46 54 l -10 65 b 246 -10 51 24 117 -10 b 528 139 419 -10 528 39 b 249 274 528 240 413 276 b 49 221 157 271 79 236 b 83 424 53 288 71 357 b 232 314 106 342 160 314 b 389 357 310 314 340 357 b 414 289 438 357 440 307 l 432 272 b 497 388 468 301 497 336 b 361 535 497 438 468 535 b 161 464 253 535 229 464 b 94 514 104 464 96 488 l 94 529 l 71 529 b 25 193 71 433 25 322 l 49 193 z "},"₆":{"ha":642,"x_min":0,"x_max":0,"o":"m 218 503 b 438 319 303 535 292 319 b 572 529 583 319 588 422 l 550 529 b 494 492 550 504 528 492 b 271 535 446 492 368 535 b 25 235 90 535 18 385 b 321 -10 31 90 139 -10 b 617 139 504 -10 617 39 b 321 288 617 240 506 294 b 236 246 272 286 246 272 b 218 503 211 336 164 482 z m 268 143 b 286 258 238 224 254 254 b 379 185 315 261 342 244 b 389 14 447 76 418 18 b 267 143 335 4 294 72 z "},"₇":{"ha":526,"x_min":0,"x_max":0,"o":"m 357 0 b 375 281 357 186 268 196 b 500 499 433 326 492 361 b 501 517 500 504 501 511 l 501 529 l 478 529 b 394 431 478 482 461 431 b 164 535 326 431 275 535 b 25 376 51 535 25 428 b 89 261 25 326 54 292 l 107 278 b 133 357 82 297 85 357 b 322 281 182 357 225 281 b 340 282 328 281 333 281 b 124 0 232 203 124 143 l 357 0 z "},"₈":{"ha":597,"x_min":0,"x_max":0,"o":"m 25 144 b 260 -10 25 38 129 -10 b 572 167 443 -10 572 53 b 461 322 572 246 522 290 b 515 418 496 343 515 374 b 322 535 515 489 432 535 b 49 378 139 535 49 475 b 94 263 49 329 67 292 b 25 144 49 236 25 197 z m 397 92 b 264 14 401 63 389 14 b 50 144 157 14 50 49 b 113 247 50 196 78 228 b 397 92 211 167 388 156 z m 221 442 b 328 513 215 472 228 513 b 493 418 408 513 493 476 b 433 335 493 369 468 346 b 221 442 339 374 231 389 z "},"₉":{"ha":642,"x_min":0,"x_max":0,"o":"m 424 22 b 194 206 339 -10 340 206 b 69 -4 64 206 54 103 l 90 -4 b 146 33 90 21 114 33 b 371 -10 194 33 274 -10 b 617 290 551 -10 624 140 b 307 535 610 435 489 535 b 25 376 124 535 25 476 b 321 221 25 275 135 214 b 407 274 369 222 396 242 b 424 22 432 183 476 42 z m 356 251 b 263 331 326 247 300 271 b 253 511 194 439 224 507 b 383 356 313 521 356 435 b 356 251 400 292 383 254 z "},"⁰":{"ha":635,"x_min":0,"x_max":0,"o":"m 317 950 b 25 678 143 950 25 839 b 317 406 25 517 143 406 b 610 678 492 406 610 517 b 317 950 610 839 492 950 z m 457 457 b 244 632 401 422 326 500 b 178 899 161 763 121 863 b 390 725 233 933 307 856 b 457 457 474 593 514 493 z "},"⁴":{"ha":525,"x_min":0,"x_max":0,"o":"m 53 822 b 119 635 53 743 126 704 b 35 569 114 590 78 572 l 25 569 l 25 546 l 278 546 l 278 414 l 493 414 l 493 949 l 468 949 b 296 569 468 608 407 572 l 199 569 b 321 704 271 593 321 635 b 253 881 321 793 250 817 b 324 928 256 917 281 928 l 324 950 b 53 822 193 950 53 931 z "},"⁵":{"ha":553,"x_min":0,"x_max":0,"o":"m 49 608 b 161 651 49 608 114 646 b 290 590 204 656 251 653 b 215 429 353 489 307 426 b 1 497 128 432 46 469 l -10 481 b 246 406 51 439 117 406 b 528 554 419 406 528 454 b 249 689 528 656 413 692 b 49 636 157 686 79 651 b 83 839 53 703 71 772 b 232 729 106 757 160 729 b 389 772 310 729 340 772 b 414 704 438 772 440 722 l 432 688 b 497 803 468 717 497 751 b 361 950 497 853 468 950 b 161 879 253 950 229 879 b 94 929 104 879 96 903 l 94 944 l 71 944 b 25 608 71 849 25 738 l 49 608 z "},"⁶":{"ha":642,"x_min":0,"x_max":0,"o":"m 218 918 b 438 735 303 950 292 735 b 572 944 583 735 588 838 l 550 944 b 494 907 550 919 528 907 b 271 950 446 907 368 950 b 25 650 90 950 18 800 b 321 406 31 506 139 406 b 617 554 504 406 617 454 b 321 703 617 656 506 710 b 236 661 272 701 246 688 b 218 918 211 751 164 897 z m 268 558 b 286 674 238 639 254 669 b 379 600 315 676 342 660 b 389 429 447 492 418 433 b 267 558 335 419 294 488 z "},"⁷":{"ha":526,"x_min":0,"x_max":0,"o":"m 357 415 b 375 696 357 601 268 611 b 500 914 433 742 492 776 b 501 932 500 919 501 926 l 501 944 l 478 944 b 394 846 478 897 461 846 b 164 950 326 846 275 950 b 25 792 51 950 25 843 b 89 676 25 742 54 707 l 107 693 b 133 772 82 713 85 772 b 322 696 182 772 225 696 b 340 697 328 696 333 696 b 124 415 232 618 124 558 l 357 415 z "},"⁸":{"ha":597,"x_min":0,"x_max":0,"o":"m 25 560 b 260 406 25 453 129 406 b 572 582 443 406 572 468 b 461 738 572 661 522 706 b 515 833 496 758 515 789 b 322 950 515 904 432 950 b 49 793 139 950 49 890 b 94 678 49 744 67 707 b 25 560 49 651 25 613 z m 397 507 b 264 429 401 478 389 429 b 50 560 157 429 50 464 b 113 663 50 611 78 643 b 397 507 211 582 388 571 z m 221 857 b 328 928 215 888 228 928 b 493 833 408 928 493 892 b 433 750 493 785 468 761 b 221 857 339 789 231 804 z "},"⁹":{"ha":642,"x_min":0,"x_max":0,"o":"m 424 438 b 194 621 339 406 340 621 b 69 411 64 621 54 518 l 90 411 b 146 449 90 436 114 449 b 371 406 194 449 274 406 b 617 706 551 406 624 556 b 307 950 610 850 489 950 b 25 792 124 950 25 892 b 321 636 25 690 135 629 b 407 689 369 638 396 657 b 424 438 432 599 476 457 z m 356 667 b 263 746 326 663 300 686 b 253 926 194 854 224 922 b 383 771 313 936 356 850 b 356 667 400 707 383 669 z "},"€":{"ha":1028,"x_min":0,"x_max":0,"o":"m 835 549 l 354 549 b 351 847 297 690 293 811 b 769 599 492 935 563 599 b 997 943 975 599 1018 790 l 967 943 b 883 843 967 882 951 843 b 586 950 814 843 724 950 b 121 549 351 950 157 776 l 25 549 l 25 515 l 117 515 b 115 471 115 500 115 485 b 122 385 115 442 118 413 l 25 385 l 25 353 l 129 353 b 586 -10 181 144 365 -10 b 1025 256 769 -10 949 99 l 999 271 b 726 113 946 172 850 82 b 458 353 643 132 546 221 l 781 353 l 781 385 l 439 385 b 369 515 411 428 388 472 l 835 515 z "},"£":{"ha":874,"x_min":0,"x_max":0,"o":"m 663 497 l 411 497 b 150 686 403 663 164 600 b 217 763 144 724 158 763 b 593 596 340 763 379 596 b 808 940 775 596 829 788 l 778 940 b 699 840 778 878 761 840 b 369 950 571 840 544 950 b 108 647 232 950 108 882 b 111 497 108 601 110 550 l 25 497 l 25 465 l 113 465 b 25 35 118 257 119 35 l 25 0 b 278 139 158 0 181 139 b 592 -10 374 139 385 -10 b 839 365 857 -10 865 240 l 804 367 b 707 243 811 322 775 243 b 421 351 638 243 558 351 b 169 153 293 351 229 243 b 410 465 199 324 386 353 l 663 465 z "},"¥":{"ha":960,"x_min":0,"x_max":0,"o":"m 824 307 l 593 307 l 593 407 l 935 407 l 935 440 l 597 440 b 653 567 604 471 618 513 b 944 940 742 708 944 797 l 522 940 b 607 563 681 844 693 714 b 585 515 597 546 590 531 b 535 696 576 560 561 613 b 231 951 467 908 303 951 b 15 847 160 951 71 925 l 39 822 b 189 786 83 869 156 865 b 243 617 211 729 219 685 b 553 440 289 483 517 586 l 25 440 l 25 407 l 557 407 b 558 396 558 404 558 401 b 339 307 558 301 414 315 l 136 307 l 136 275 l 289 275 l 289 0 l 593 0 l 593 275 l 824 275 z "},"°":{"ha":714,"x_min":0,"x_max":0,"o":"m 357 942 b 33 750 110 942 33 851 b 357 558 33 649 110 558 b 682 750 604 558 682 649 b 357 942 682 851 604 942 z m 451 600 b 313 711 417 575 358 646 b 263 899 267 776 226 874 b 401 788 299 924 356 853 b 451 600 447 724 488 625 z "},"†":{"ha":608,"x_min":0,"x_max":0,"o":"m 576 735 l 336 708 l 360 942 l 249 942 l 274 708 l 32 735 l 32 624 l 276 650 l 249 226 l 360 226 l 333 650 l 576 624 z "},"‡":{"ha":608,"x_min":0,"x_max":0,"o":"m 576 772 l 335 747 l 360 942 l 249 942 l 271 747 l 32 772 l 32 661 l 276 688 l 276 519 l 32 544 l 32 435 l 272 458 l 249 226 l 360 226 l 335 460 l 576 435 l 576 544 l 331 519 l 331 688 l 576 661 z "},"*":{"ha":611,"x_min":0,"x_max":0,"o":"m 546 822 l 339 731 l 361 942 l 250 942 l 272 731 l 67 822 l 32 717 l 258 668 l 96 489 l 186 424 l 306 632 l 426 424 l 515 489 l 353 668 l 579 717 z "},"™":{"ha":1131,"x_min":0,"x_max":0,"o":"m 864 815 b 825 682 840 736 843 750 l 821 665 l 817 682 b 776 815 797 750 801 736 b 565 936 743 926 671 935 l 543 936 l 543 929 b 456 850 540 890 513 850 b 185 942 396 850 313 942 b 32 804 58 942 32 849 b 89 703 32 760 57 729 l 104 718 b 126 786 82 733 83 786 b 204 757 146 786 171 772 l 204 388 l 392 388 l 392 615 b 235 744 392 710 269 643 b 360 719 269 731 311 719 b 543 831 422 719 504 751 l 543 388 l 731 388 l 731 404 b 567 863 731 614 583 481 l 611 718 b 810 479 654 578 810 624 l 832 479 b 1029 718 832 624 988 578 l 1075 868 b 911 404 1060 479 911 614 l 911 388 l 1099 388 l 1099 936 l 1076 936 b 864 815 969 935 897 926 z "},"h":{"ha":839,"x_min":0,"x_max":0,"o":"m 300 942 b 32 718 300 749 32 899 l 32 0 l 336 0 l 336 582 b 389 692 338 638 349 679 b 500 393 471 718 543 678 b 535 67 482 271 468 151 b 986 149 651 -81 893 26 l 964 171 b 839 149 921 126 875 117 b 810 385 785 196 792 274 b 481 761 844 601 719 761 b 336 713 424 761 379 738 l 336 942 z "},"i":{"ha":368,"x_min":0,"x_max":0,"o":"m 32 0 l 336 0 l 336 478 b 179 588 336 576 253 576 b 32 653 100 600 54 624 z m 363 786 b 185 953 363 885 292 953 b 7 786 78 953 7 885 b 185 621 7 689 78 621 b 363 786 292 621 363 689 z "},"j":{"ha":368,"x_min":0,"x_max":0,"o":"m 363 786 b 185 953 363 885 292 953 b 7 786 78 953 7 885 b 185 621 7 689 78 621 b 363 786 292 621 363 689 z m 179 588 b 32 653 100 600 54 624 l 32 138 b 294 -115 32 -42 281 -26 b 228 -192 300 -153 286 -192 b -56 -25 132 -192 122 -25 b -265 -368 -236 -25 -286 -217 l -233 -368 b -161 -269 -233 -307 -222 -269 b 75 -379 -92 -269 -62 -379 b 336 -76 213 -379 336 -315 l 336 478 b 179 588 336 576 253 576 z "},"k":{"ha":844,"x_min":0,"x_max":0,"o":"m 385 358 b 190 33 385 181 324 33 b 147 244 6 33 53 208 b 336 496 221 274 336 311 l 336 718 b 67 942 336 899 67 749 l 32 942 l 32 0 l 190 0 b 418 353 363 0 418 167 b 419 389 418 365 418 378 b 471 63 558 335 383 171 b 901 149 579 -72 796 10 l 879 171 b 711 215 810 100 761 96 b 426 421 657 343 550 372 b 481 461 435 444 451 461 b 664 388 550 461 574 388 b 818 751 776 388 818 496 l 782 751 b 731 646 782 697 768 646 b 522 761 679 646 647 772 b 385 358 396 751 385 578 z "},"l":{"ha":360,"x_min":0,"x_max":0,"o":"m 28 942 l 28 0 l 332 0 l 332 718 b 63 942 332 899 63 749 z "},"m":{"ha":1260,"x_min":0,"x_max":0,"o":"m 32 751 l 32 0 l 336 0 l 336 556 b 389 692 338 624 346 675 b 467 393 453 715 510 678 b 503 67 449 271 436 151 b 881 90 607 -65 778 -1 l 865 118 b 778 385 746 49 750 211 b 774 553 788 446 786 503 b 839 692 768 615 779 669 b 917 393 903 715 960 678 b 951 67 899 271 885 151 b 1403 149 1069 -81 1310 26 l 1382 171 b 1256 149 1338 126 1292 117 b 1226 385 1201 196 1210 274 b 921 761 1261 601 1161 761 b 711 672 833 761 778 706 b 472 761 660 728 579 761 b 203 647 358 761 299 668 b 67 751 126 638 67 646 z "},"n":{"ha":842,"x_min":0,"x_max":0,"o":"m 32 751 l 32 0 l 336 0 l 336 582 b 389 692 338 638 349 679 b 500 393 471 718 543 678 b 535 67 482 271 468 151 b 986 149 653 -81 893 26 l 965 171 b 839 149 921 126 875 117 b 810 385 785 196 793 274 b 481 761 844 601 721 761 b 217 650 374 761 299 669 b 67 751 136 631 67 639 z "},"d":{"ha":890,"x_min":0,"x_max":0,"o":"m 436 -10 b 725 104 549 -10 642 104 b 824 0 772 104 824 100 l 858 0 l 858 718 b 589 942 858 899 589 749 l 554 942 l 554 696 b 397 761 496 743 436 761 b 25 376 239 761 25 603 b 436 -10 25 149 188 -10 z m 519 47 b 303 328 456 14 342 164 b 331 689 265 488 251 638 b 554 615 390 726 478 706 l 554 219 b 519 47 554 128 556 67 z "},"c":{"ha":808,"x_min":0,"x_max":0,"o":"m 803 240 b 336 310 674 60 511 32 b 242 689 218 496 156 649 b 569 407 375 751 336 407 b 779 751 750 407 800 599 l 749 751 b 683 651 749 689 735 651 b 421 761 614 651 550 761 b 25 376 203 761 25 603 b 439 -10 25 149 192 -10 b 832 219 650 -10 742 82 z "},"?":{"ha":696,"x_min":0,"x_max":0,"o":"m 322 343 b 443 418 322 378 365 408 b 635 838 654 443 718 693 b 414 950 597 904 525 950 b 136 843 276 950 204 843 b 67 943 67 843 67 882 l 35 943 b 207 599 15 790 1 599 b 583 849 414 599 458 957 b 431 643 653 789 639 669 b 288 343 206 614 239 414 z m 115 156 b 293 -10 115 58 188 -10 b 472 156 400 -10 472 58 b 293 321 472 253 400 321 b 115 156 188 321 115 253 z "},"|":{"ha":103,"x_min":0,"x_max":0,"o":"m 32 1000 l 32 -207 l 71 -207 l 71 1000 z "},"[":{"ha":468,"x_min":0,"x_max":0,"o":"m 436 968 l 436 1000 l 32 1000 l 32 -207 l 436 -207 l 436 -176 l 336 -176 l 336 968 z "},">":{"ha":494,"x_min":0,"x_max":0,"o":"m 340 465 l 33 206 l 61 169 l 463 465 l 61 763 l 33 726 z "},"≤":{"ha":493,"x_min":0,"x_max":0,"o":"m 461 54 l 32 54 l 32 0 l 461 0 z m 461 726 l 433 763 l 32 465 l 433 169 l 461 206 l 154 465 z "},"µ":{"ha":842,"x_min":0,"x_max":0,"o":"m 61 -364 b 329 -140 61 -171 329 -319 l 329 -4 b 360 -6 339 -6 349 -6 b 710 107 497 -6 567 136 b 774 0 747 99 774 69 l 808 0 l 808 751 l 504 751 l 504 157 b 451 64 501 110 489 76 b 340 364 369 39 297 78 b 306 690 358 486 372 606 b -146 608 189 838 -53 731 l -125 586 b 1 608 -81 629 -35 640 b 31 372 56 561 49 483 b 25 213 26 349 25 304 l 25 -364 z "},"¡":{"ha":407,"x_min":0,"x_max":0,"o":"m 188 597 b 51 128 188 406 51 311 l 51 0 l 356 0 l 356 128 b 222 597 356 307 222 404 z m 382 786 b 204 951 382 883 311 951 b 26 786 99 951 26 883 b 204 621 26 689 99 621 b 382 786 311 621 382 689 z "},"¿":{"ha":696,"x_min":0,"x_max":0,"o":"m 374 604 b 253 529 374 569 331 539 b 61 110 42 504 -22 254 b 282 -3 99 43 171 -3 b 560 104 419 -3 492 104 b 629 4 629 104 629 65 l 661 4 b 489 349 681 157 694 349 b 113 99 282 349 238 -10 b 265 304 43 158 57 276 b 408 604 490 332 457 533 z m 581 792 b 403 957 581 889 508 957 b 224 792 296 957 224 889 b 403 626 224 694 296 626 b 581 792 508 626 581 694 z "},":":{"ha":406,"x_min":0,"x_max":0,"o":"m 24 156 b 203 -10 24 58 96 -10 b 381 156 308 -10 381 58 b 203 321 381 253 308 321 b 24 156 96 321 24 253 z m 24 596 b 203 431 24 499 96 431 b 381 596 308 431 381 499 b 203 761 381 693 308 761 b 24 596 96 761 24 693 z "},".":{"ha":406,"x_min":0,"x_max":0,"o":"m 24 156 b 203 -10 24 58 96 -10 b 381 156 308 -10 381 58 b 203 321 381 253 308 321 b 24 156 96 321 24 253 z "},",":{"ha":406,"x_min":0,"x_max":0,"o":"m 143 -3 b 117 -228 274 -37 247 -162 l 135 -258 b 381 132 311 -178 381 -47 b 203 321 381 242 310 321 b 25 156 96 321 25 253 b 143 -3 25 78 69 17 z "},"·":{"ha":406,"x_min":0,"x_max":0,"o":"m 24 596 b 203 431 24 499 96 431 b 381 596 308 431 381 499 b 203 761 381 693 308 761 b 24 596 96 761 24 693 z "},";":{"ha":406,"x_min":0,"x_max":0,"o":"m 25 596 b 203 431 25 499 96 431 b 381 596 310 431 381 499 b 203 761 381 693 310 761 b 25 596 96 761 25 693 z m 143 -3 b 117 -228 274 -37 247 -162 l 135 -258 b 381 132 311 -178 381 -47 b 203 321 381 242 310 321 b 25 156 96 321 25 253 b 143 -3 25 78 69 17 z "},"+":{"ha":592,"x_min":0,"x_max":0,"o":"m 560 493 l 322 493 l 322 729 l 268 729 l 268 493 l 32 493 l 32 439 l 268 439 l 268 203 l 322 203 l 322 439 l 560 439 z "},"-":{"ha":590,"x_min":0,"x_max":0,"o":"m 558 493 l 32 493 l 32 439 l 558 439 z "},"=":{"ha":592,"x_min":0,"x_max":0,"o":"m 560 599 l 32 599 l 32 544 l 560 544 z m 560 386 l 32 386 l 32 333 l 560 333 z "},"~":{"ha":592,"x_min":0,"x_max":0,"o":"m 560 493 b 32 493 383 342 208 644 l 32 439 b 560 439 208 590 383 288 z "},"@":{"ha":1224,"x_min":0,"x_max":0,"o":"m 24 344 b 597 -294 29 -181 414 -285 b 1100 -42 844 -307 1011 -171 l 1078 -19 b 746 -144 983 -114 858 -144 b 110 344 417 -144 118 -4 b 288 804 104 518 149 700 b 933 732 413 899 693 911 b 1067 139 1143 576 1208 139 b 1015 385 994 139 997 274 b 686 761 1050 601 925 761 b 351 661 526 761 438 661 b 303 736 306 661 283 688 l 269 749 b 403 449 163 543 286 449 b 613 718 585 449 521 692 b 707 401 703 744 746 678 b 629 404 683 403 657 404 b 210 201 368 404 210 346 b 565 -6 210 58 317 -6 b 747 81 686 -6 733 29 b 933 -6 782 29 840 -6 b 1199 344 1058 -6 1188 118 b 631 951 1213 679 965 951 b 24 344 296 951 21 679 z m 701 364 b 708 171 694 310 692 238 b 668 47 714 108 700 56 b 508 174 619 33 550 69 b 564 350 476 253 503 328 b 701 364 600 364 649 367 z "},"‚":{"ha":406,"x_min":0,"x_max":0,"o":"m 143 -3 b 117 -228 274 -37 247 -162 l 135 -258 b 381 132 311 -178 381 -47 b 203 321 381 242 310 321 b 25 156 96 321 25 253 b 143 -3 25 78 69 17 z "},"„":{"ha":769,"x_min":0,"x_max":0,"o":"m 143 -3 b 117 -228 274 -37 247 -162 l 135 -258 b 381 132 311 -178 381 -47 b 203 321 381 242 310 321 b 25 156 96 321 25 253 b 143 -3 25 78 69 17 z m 506 -3 b 479 -228 636 -37 610 -162 l 497 -258 b 743 132 674 -178 743 -47 b 565 321 743 242 672 321 b 388 156 458 321 388 253 b 506 -3 388 78 432 17 z "},"'":{"ha":407,"x_min":0,"x_max":0,"o":"m 143 626 b 117 401 274 592 247 467 l 135 371 b 381 761 311 451 381 582 b 203 950 381 871 310 950 b 25 785 96 950 25 882 b 143 626 25 707 69 646 z "},"\"":{"ha":769,"x_min":0,"x_max":0,"o":"m 143 626 b 117 401 274 592 247 467 l 135 371 b 381 761 311 451 381 582 b 203 950 381 871 310 950 b 25 785 96 950 25 882 b 143 626 25 707 69 646 z m 506 626 b 479 401 636 592 610 467 l 497 371 b 743 761 674 451 743 582 b 565 950 743 871 672 950 b 388 785 458 950 388 882 b 506 626 388 707 432 646 z "},"{":{"ha":503,"x_min":0,"x_max":0,"o":"m 67 -4 b 469 -207 67 -194 285 -207 l 469 -176 b 371 -110 408 -176 374 -160 b 456 226 365 -21 456 118 b 233 396 456 333 354 378 b 456 565 354 413 456 457 b 371 901 456 674 365 813 b 469 968 374 953 408 968 l 469 1000 b 67 796 285 1000 67 988 b 151 469 67 676 165 547 b 33 411 143 425 94 411 l 33 381 b 151 324 94 381 143 368 b 67 -4 165 244 67 115 z "},"(":{"ha":467,"x_min":0,"x_max":0,"o":"m 435 968 l 435 1000 b 32 692 250 1000 32 983 l 32 101 b 435 -207 32 -192 250 -207 l 435 -176 b 336 -78 374 -176 336 -167 l 336 871 b 435 968 336 958 374 968 z "},")":{"ha":465,"x_min":0,"x_max":0,"o":"m 31 968 b 129 871 92 968 129 958 l 129 -78 b 31 -176 129 -167 92 -176 l 31 -207 b 433 101 215 -207 433 -192 l 433 692 b 31 1000 433 983 215 1000 z "},"]":{"ha":468,"x_min":0,"x_max":0,"o":"m 132 968 l 132 -176 l 32 -176 l 32 -207 l 436 -207 l 436 1000 l 32 1000 l 32 968 z "},"`":{"ha":865,"x_min":0,"x_max":0,"o":"m 553 792 l 472 1028 l 246 1028 l 246 994 l 510 792 z "},"´":{"ha":865,"x_min":0,"x_max":0,"o":"m 511 792 l 775 994 l 775 1028 l 549 1028 l 468 792 z "},"˝":{"ha":865,"x_min":0,"x_max":0,"o":"m 567 792 l 886 994 l 886 1028 l 660 1028 l 524 792 z m 468 792 l 588 994 l 588 1028 l 383 1028 l 425 792 z "},"ç":{"ha":808,"x_min":0,"x_max":0,"o":"m 803 240 b 336 310 674 60 511 32 b 242 689 218 496 156 649 b 569 407 375 751 336 407 b 779 751 750 407 800 599 l 749 751 b 683 651 749 689 735 651 b 421 761 614 651 550 761 b 25 376 203 761 25 603 b 344 -1 25 178 150 33 b 292 -153 319 -37 292 -76 l 321 -153 b 379 -122 332 -140 357 -125 b 489 -192 425 -118 458 -140 b 438 -350 540 -278 535 -351 b 264 -292 361 -349 264 -292 l 251 -314 b 468 -379 251 -314 346 -379 b 732 -221 656 -379 732 -303 b 472 -78 732 -139 647 -74 b 324 -119 399 -78 347 -103 b 375 -6 331 -71 354 -39 b 439 -10 396 -7 417 -10 b 832 219 650 -10 742 82 z "},"¸":{"ha":865,"x_min":0,"x_max":0,"o":"m 383 103 b 292 -153 383 0 292 -17 l 321 -153 b 379 -122 332 -140 357 -125 b 489 -192 425 -118 458 -140 b 438 -350 540 -278 535 -351 b 264 -292 361 -349 264 -292 l 251 -314 b 468 -379 251 -314 346 -379 b 732 -221 656 -379 732 -303 b 472 -78 732 -139 647 -74 b 324 -119 399 -78 347 -103 b 413 103 338 -26 413 7 z "},"˛":{"ha":865,"x_min":0,"x_max":0,"o":"m 551 -153 b 460 103 551 -17 460 0 l 431 103 b 519 -121 431 7 504 -28 b 382 -94 494 -110 443 -94 b 118 -254 194 -94 118 -171 b 378 -397 118 -336 203 -400 b 600 -335 485 -394 600 -335 l 590 -311 b 471 -353 590 -311 513 -347 b 361 -282 425 -357 392 -333 b 413 -125 310 -197 315 -124 b 522 -153 458 -125 522 -153 z "},"ë":{"ha":732,"x_min":0,"x_max":0,"o":"m 351 347 b 439 761 817 461 806 761 b 24 376 190 761 24 603 b 439 -10 24 149 190 -10 b 856 196 650 -10 738 61 b 829 222 847 204 839 214 b 335 310 669 46 496 56 b 317 339 328 319 322 329 z m 319 374 b 299 368 313 371 306 369 b 240 689 207 525 169 643 b 435 603 293 722 378 697 b 319 374 475 538 481 413 z m 658 883 b 551 983 658 939 611 983 b 446 883 493 983 446 939 b 551 783 446 828 493 783 b 658 883 611 783 658 828 z m 406 883 b 300 983 406 939 358 983 b 194 883 242 983 194 939 b 300 783 194 828 242 783 b 406 883 358 783 406 828 z "},"ê":{"ha":732,"x_min":0,"x_max":0,"o":"m 351 347 b 439 761 817 461 806 761 b 24 376 190 761 24 603 b 439 -10 24 149 190 -10 b 856 196 650 -10 738 61 b 829 222 847 204 839 214 b 335 310 669 46 496 56 b 317 339 328 319 322 329 z m 319 374 b 299 368 313 371 306 369 b 240 689 207 525 169 643 b 435 603 293 722 378 697 b 319 374 475 538 481 413 z m 249 792 l 400 904 l 551 792 l 593 792 l 453 1028 l 347 1028 l 206 792 z "},"è":{"ha":732,"x_min":0,"x_max":0,"o":"m 351 347 b 439 761 817 461 806 761 b 24 376 190 761 24 603 b 439 -10 24 149 190 -10 b 856 196 650 -10 738 61 b 829 222 847 204 839 214 b 335 310 669 46 496 56 b 317 339 328 319 322 329 z m 319 374 b 299 368 313 371 306 369 b 240 689 207 525 169 643 b 435 603 293 722 378 697 b 319 374 475 538 481 413 z m 469 792 l 389 1028 l 163 1028 l 163 994 l 426 792 z "},"é":{"ha":732,"x_min":0,"x_max":0,"o":"m 351 347 b 439 761 817 461 806 761 b 24 376 190 761 24 603 b 439 -10 24 149 190 -10 b 856 196 650 -10 738 61 b 829 222 847 204 839 214 b 335 310 669 46 496 56 b 317 339 328 319 322 329 z m 319 374 b 299 368 313 371 306 369 b 240 689 207 525 169 643 b 435 603 293 722 378 697 b 319 374 475 538 481 413 z m 369 792 l 633 994 l 633 1028 l 407 1028 l 326 792 z "},"œ":{"ha":1339,"x_min":0,"x_max":0,"o":"m 958 347 b 1046 761 1424 461 1413 761 b 742 651 919 761 815 721 b 440 761 669 721 565 761 b 25 376 192 761 25 603 b 440 -10 25 149 192 -10 b 742 100 565 -10 669 31 b 1046 -10 815 31 919 -10 b 1463 196 1257 -10 1344 61 b 1436 222 1454 204 1446 214 b 942 310 1276 46 1103 56 b 924 339 935 319 929 329 z m 638 64 b 336 310 558 14 454 125 b 242 689 218 496 163 638 b 543 442 321 739 425 628 b 638 64 660 257 718 114 z m 847 689 b 1042 603 900 722 985 697 b 926 374 1082 538 1088 413 l 906 368 b 847 689 814 525 776 643 z "},"æ":{"ha":1236,"x_min":0,"x_max":0,"o":"m 432 718 b 535 478 514 742 558 693 b 526 431 531 463 528 446 b 411 436 492 433 453 436 b 25 215 151 436 25 360 b 385 -6 25 72 138 -6 b 582 167 517 -6 569 76 b 943 -10 653 57 781 -10 b 1360 196 1154 -10 1242 61 b 1333 222 1351 204 1343 214 b 839 310 1174 46 1000 56 b 821 339 832 319 826 329 l 856 347 b 943 761 1321 461 1310 761 b 714 706 856 761 778 742 b 506 761 660 740 589 761 b 171 661 346 761 258 661 b 110 751 125 661 110 700 l 74 751 b 224 449 49 521 106 449 b 432 718 404 449 340 692 z m 524 399 b 550 228 517 332 528 276 b 488 47 554 118 514 58 b 324 188 433 21 374 61 b 346 388 285 283 292 361 b 524 399 385 407 451 408 z m 824 374 b 803 368 817 371 810 369 b 744 689 711 525 674 643 b 939 603 797 722 882 697 b 824 374 979 538 985 413 z "},"õ":{"ha":879,"x_min":0,"x_max":0,"o":"m 344 1003 b 215 813 254 1003 215 947 l 247 813 b 314 888 247 861 263 885 b 546 822 400 893 461 822 b 665 1013 626 822 665 879 l 639 1013 b 581 938 639 964 625 943 b 344 1003 510 928 443 1003 z m 440 761 b 25 376 192 761 25 603 b 440 -10 25 149 192 -10 b 854 376 688 -10 854 149 b 440 761 854 603 688 761 z m 638 64 b 336 310 558 14 454 125 b 242 689 218 496 163 638 b 543 442 321 739 425 628 b 638 64 660 257 718 114 z "},"ö":{"ha":879,"x_min":0,"x_max":0,"o":"m 672 883 b 565 983 672 939 625 983 b 460 883 507 983 460 939 b 565 783 460 828 507 783 b 672 883 625 783 672 828 z m 419 883 b 314 983 419 939 372 983 b 208 883 256 983 208 939 b 314 783 208 828 256 783 b 419 883 372 783 419 828 z m 440 761 b 25 376 192 761 25 603 b 440 -10 25 149 192 -10 b 854 376 688 -10 854 149 b 440 761 854 603 688 761 z m 638 64 b 336 310 558 14 454 125 b 242 689 218 496 163 638 b 543 442 321 739 425 628 b 638 64 660 257 718 114 z "},"ô":{"ha":879,"x_min":0,"x_max":0,"o":"m 288 792 l 439 904 l 590 792 l 632 792 l 492 1028 l 386 1028 l 244 792 z m 440 761 b 25 376 192 761 25 603 b 440 -10 25 149 192 -10 b 854 376 688 -10 854 149 b 440 761 854 603 688 761 z m 638 64 b 336 310 558 14 454 125 b 242 689 218 496 163 638 b 543 442 321 739 425 628 b 638 64 660 257 718 114 z "},"ò":{"ha":879,"x_min":0,"x_max":0,"o":"m 465 792 l 385 1028 l 158 1028 l 158 994 l 422 792 z m 440 761 b 25 376 192 761 25 603 b 440 -10 25 149 192 -10 b 854 376 688 -10 854 149 b 440 761 854 603 688 761 z m 638 64 b 336 310 558 14 454 125 b 242 689 218 496 163 638 b 543 442 321 739 425 628 b 638 64 660 257 718 114 z "},"ó":{"ha":879,"x_min":0,"x_max":0,"o":"m 460 792 l 724 994 l 724 1028 l 497 1028 l 417 792 z m 440 761 b 25 376 192 761 25 603 b 440 -10 25 149 192 -10 b 854 376 688 -10 854 149 b 440 761 854 603 688 761 z m 638 64 b 336 310 558 14 454 125 b 242 689 218 496 163 638 b 543 442 321 739 425 628 b 638 64 660 257 718 114 z "},"ø":{"ha":879,"x_min":0,"x_max":0,"o":"m 668 869 l 599 736 b 440 761 550 751 497 761 b 25 376 192 761 25 603 b 233 35 25 219 103 97 l 185 -58 l 214 -74 l 263 21 b 440 -10 315 1 375 -10 b 854 376 688 -10 854 149 b 629 725 854 538 768 665 l 697 854 z m 638 64 b 379 244 568 19 479 99 l 508 493 l 543 442 b 638 64 660 257 718 114 z m 336 310 b 242 689 218 496 163 638 b 488 524 308 731 393 658 l 358 275 b 336 310 350 286 343 297 z "},"S":{"ha":783,"x_min":0,"x_max":0,"o":"m 25 665 b 354 358 25 482 164 414 b 656 119 589 289 721 178 b 260 343 539 17 467 343 b 32 -1 54 343 11 151 l 63 -1 b 146 99 63 60 76 99 b 443 -10 215 99 306 -10 b 758 283 622 -10 758 128 b 399 593 758 476 515 560 b 122 821 164 658 56 765 b 499 599 244 922 292 599 b 728 943 706 599 747 790 l 696 943 b 613 843 696 882 682 843 b 335 950 544 843 472 950 b 25 665 158 950 25 818 z "},"$":{"ha":782,"x_min":0,"x_max":0,"o":"m 369 1078 l 369 947 b 332 950 357 949 344 950 b 22 665 156 950 22 818 b 353 358 22 482 163 414 b 369 353 358 357 364 356 l 369 307 b 258 342 336 328 300 342 b 29 -1 51 342 8 150 l 61 -1 b 144 99 61 60 75 99 b 369 0 200 99 271 26 l 369 -131 l 403 -131 l 403 -7 b 442 -10 415 -8 428 -10 b 757 283 621 -10 757 128 b 403 592 757 474 519 557 l 403 624 b 497 599 431 608 461 599 b 725 943 703 599 746 790 l 694 943 b 611 843 694 882 681 843 b 403 940 554 843 497 914 l 403 1078 z m 653 119 b 403 282 568 44 508 194 l 403 342 b 653 119 604 272 713 174 z m 121 821 b 369 646 213 897 263 732 l 369 601 b 121 821 154 667 57 767 z "},"R":{"ha":836,"x_min":0,"x_max":0,"o":"m 356 454 b 517 67 614 454 371 213 b 958 149 663 -79 865 26 l 936 171 b 797 158 893 126 846 110 b 667 418 749 207 764 321 b 568 479 633 450 601 469 b 811 701 715 513 811 586 b 360 951 811 864 619 951 b 32 650 222 951 32 889 l 32 0 l 336 0 l 336 525 b 135 778 336 704 168 696 b 224 869 121 813 131 869 b 453 750 296 869 389 831 b 356 486 582 590 500 486 z "},"Q":{"ha":992,"x_min":0,"x_max":0,"o":"m 1169 -75 l 1135 -75 b 1047 -192 1158 -124 1113 -214 b 832 4 982 -168 967 -28 b 624 -12 761 22 706 17 b 967 471 825 119 967 265 b 496 950 967 736 756 950 b 25 471 236 950 25 736 b 456 19 25 206 258 19 b 669 218 597 19 669 117 l 635 218 b 351 381 618 129 478 178 b 261 847 222 589 182 797 b 640 560 342 897 511 768 b 579 -3 796 311 719 90 b 404 -111 467 -78 411 -107 b 403 -112 403 -111 403 -112 l 418 -144 b 419 -143 418 -144 419 -144 b 607 -142 481 -115 551 -101 b 856 -392 671 -187 703 -337 b 1169 -75 1106 -481 1233 -215 z "},"P":{"ha":843,"x_min":0,"x_max":0,"o":"m 358 346 b 811 674 644 346 811 499 b 358 951 811 836 618 951 b 32 650 221 951 32 889 l 32 0 l 336 0 l 336 525 b 133 778 336 704 167 696 b 222 869 119 813 129 869 b 453 722 296 869 396 808 b 358 374 568 546 492 374 z "},"Ò":{"ha":993,"x_min":0,"x_max":0,"o":"m 496 950 b 25 471 236 950 25 736 b 496 -10 25 206 236 -10 b 967 471 757 -10 967 206 b 496 950 967 736 757 950 z m 731 93 b 351 381 651 44 481 172 b 261 847 222 589 182 797 b 640 560 342 897 511 768 b 731 93 771 353 810 143 z m 518 983 l 438 1219 l 211 1219 l 211 1186 l 475 983 z "},"Ô":{"ha":993,"x_min":0,"x_max":0,"o":"m 496 950 b 25 471 236 950 25 736 b 496 -10 25 206 236 -10 b 967 471 757 -10 967 206 b 496 950 967 736 757 950 z m 731 93 b 351 381 651 44 481 172 b 261 847 222 589 182 797 b 640 560 342 897 511 768 b 731 93 771 353 810 143 z m 344 983 l 496 1096 l 647 983 l 689 983 l 549 1219 l 443 1219 l 301 983 z "},"Ó":{"ha":993,"x_min":0,"x_max":0,"o":"m 496 950 b 25 471 236 950 25 736 b 496 -10 25 206 236 -10 b 967 471 757 -10 967 206 b 496 950 967 736 757 950 z m 731 93 b 351 381 651 44 481 172 b 261 847 222 589 182 797 b 640 560 342 897 511 768 b 731 93 771 353 810 143 z m 518 983 l 782 1186 l 782 1219 l 556 1219 l 475 983 z "},"Ø":{"ha":992,"x_min":0,"x_max":0,"o":"m 808 986 l 739 881 b 496 950 668 925 585 950 b 25 471 236 950 25 736 b 218 82 25 311 101 169 l 149 -25 l 176 -43 l 246 64 b 496 -10 318 17 404 -10 b 967 471 757 -10 967 206 b 767 863 967 633 888 775 l 836 968 z m 731 93 b 403 304 661 50 522 142 l 604 614 l 640 560 b 731 93 771 353 810 143 z m 351 381 b 261 847 222 589 182 797 b 583 642 331 890 465 800 l 382 333 b 351 381 372 349 361 364 z "},"Õ":{"ha":992,"x_min":0,"x_max":0,"o":"m 496 950 b 25 471 236 950 25 736 b 496 -10 25 206 236 -10 b 967 471 757 -10 967 206 b 496 950 967 736 757 950 z m 731 93 b 351 381 651 44 481 172 b 261 847 222 589 182 797 b 640 560 342 897 511 768 b 731 93 771 353 810 143 z m 407 1176 b 278 986 317 1176 278 1121 l 310 986 b 376 1061 310 1035 325 1058 b 608 996 463 1067 524 996 b 728 1186 689 996 728 1053 l 701 1186 b 643 1111 701 1138 688 1117 b 407 1176 572 1101 506 1176 z "},"Œ":{"ha":1433,"x_min":0,"x_max":0,"o":"m 1244 506 l 1064 506 b 800 829 754 506 706 771 b 1174 597 942 915 968 597 b 1403 942 1381 597 1424 789 l 1372 942 b 1289 842 1372 881 1357 842 b 986 950 1219 842 1124 950 b 756 871 874 950 799 918 b 496 950 681 921 592 950 b 25 469 236 950 25 735 b 496 -10 25 204 236 -10 b 763 74 594 -10 686 21 b 1088 -10 835 21 946 -10 b 1460 144 1275 -10 1376 53 l 1444 161 b 988 201 1324 33 1097 -17 b 1082 469 904 361 946 464 l 1221 469 z m 731 93 b 351 379 650 43 481 172 b 261 847 222 588 182 797 b 640 560 342 896 511 768 b 728 388 676 500 706 443 b 668 247 690 351 668 306 b 735 96 668 189 692 136 b 731 93 733 94 732 93 z "},"ˆ":{"ha":865,"x_min":0,"x_max":0,"o":"m 329 792 l 481 904 l 632 792 l 674 792 l 533 1028 l 428 1028 l 286 792 z "},"ˇ":{"ha":865,"x_min":0,"x_max":0,"o":"m 631 1028 l 479 915 l 328 1028 l 286 1028 l 426 792 l 532 792 l 674 1028 z "},"^":{"ha":576,"x_min":0,"x_max":0,"o":"m 68 310 l 289 589 l 510 310 l 551 310 l 342 713 l 236 713 l 25 310 z "},"−":{"ha":593,"x_min":0,"x_max":0,"o":"m 560 493 l 32 493 l 32 439 l 560 439 z "},"–":{"ha":842,"x_min":0,"x_max":0,"o":"m 810 493 l 32 493 l 32 439 l 810 439 z "},"—":{"ha":1260,"x_min":0,"x_max":0,"o":"m 1228 493 l 32 493 l 32 439 l 1228 439 z "},"›":{"ha":378,"x_min":0,"x_max":0,"o":"m 232 465 l 29 235 l 63 201 l 346 465 l 63 729 l 29 697 z "},"«":{"ha":533,"x_min":0,"x_max":0,"o":"m 367 697 l 333 729 l 31 465 l 333 201 l 367 235 l 144 465 z m 501 656 l 469 688 l 228 465 l 469 244 l 501 276 l 342 465 z "},"»":{"ha":533,"x_min":0,"x_max":0,"o":"m 389 465 l 167 235 l 200 201 l 503 465 l 200 729 l 167 697 z m 192 465 l 32 276 l 64 244 l 306 465 l 64 688 l 32 656 z "},"…":{"ha":1167,"x_min":0,"x_max":0,"o":"m 24 156 b 203 -10 24 58 96 -10 b 381 156 308 -10 381 58 b 203 321 381 253 308 321 b 24 156 96 321 24 253 z m 403 156 b 582 -10 403 58 475 -10 b 760 156 688 -10 760 58 b 582 321 760 253 688 321 b 403 156 475 321 403 253 z m 783 156 b 963 -10 783 58 856 -10 b 1140 156 1068 -10 1140 58 b 963 321 1140 253 1068 321 b 783 156 856 321 783 253 z "},"‰":{"ha":1976,"x_min":0,"x_max":0,"o":"m 1532 432 b 1261 390 1422 432 1331 418 b 992 432 1193 418 1101 432 b 572 211 732 432 572 356 b 992 -10 572 68 732 -10 b 1263 31 1101 -10 1193 4 b 1532 -10 1331 4 1422 -10 b 1951 211 1792 -10 1951 68 b 1532 432 1951 356 1792 432 z m 444 950 b 25 729 183 950 25 874 b 444 508 25 586 183 508 b 863 729 704 508 863 586 b 444 950 863 874 704 950 z m 1647 31 b 1460 156 1593 4 1542 26 b 1417 393 1388 268 1361 367 b 1606 267 1471 419 1524 397 b 1647 31 1676 156 1703 57 z m 1107 31 b 919 156 1053 4 1001 26 b 876 393 847 268 821 367 b 1065 267 931 419 983 397 b 1107 31 1136 156 1163 57 z m 560 549 b 371 674 506 522 453 544 b 329 911 300 786 274 885 b 517 785 383 938 435 915 b 560 549 589 674 614 575 z m 439 0 b 739 469 439 204 532 350 l 754 479 b 1103 942 956 596 1103 681 l 1068 942 b 733 504 1068 699 935 621 l 719 496 b 404 0 501 369 404 217 z "},"Ñ":{"ha":810,"x_min":0,"x_max":0,"o":"m 442 743 b 33 942 319 958 163 942 l 33 0 l 336 0 l 336 26 b 72 779 336 358 108 204 l 332 322 b 742 0 463 93 742 219 l 776 0 l 776 942 l 474 942 l 474 915 b 733 204 474 590 689 724 b 658 354 715 247 690 294 b 442 743 600 463 514 614 z m 315 1176 b 186 986 225 1176 186 1121 l 218 986 b 285 1061 218 1035 233 1058 b 517 996 371 1067 432 996 b 636 1186 597 996 636 1053 l 610 1186 b 551 1111 610 1138 596 1117 b 315 1176 481 1101 414 1176 z "},"ü":{"ha":842,"x_min":0,"x_max":0,"o":"m 643 883 b 536 983 643 939 596 983 b 431 883 478 983 431 939 b 536 783 431 828 478 783 b 643 883 596 783 643 828 z m 390 883 b 285 983 390 939 343 983 b 179 883 226 983 179 939 b 285 783 179 828 226 783 b 390 883 343 783 390 828 z m 808 0 l 808 751 l 504 751 l 504 157 b 451 64 501 110 489 76 b 340 364 369 39 297 78 b 306 690 358 486 372 606 b -146 608 189 838 -53 731 l -125 586 b 1 608 -81 629 -35 640 b 31 372 56 561 49 483 b 360 -6 -4 156 119 -6 b 710 107 497 -6 567 136 b 774 0 747 99 774 69 z "},"û":{"ha":842,"x_min":0,"x_max":0,"o":"m 243 792 l 394 904 l 546 792 l 588 792 l 447 1028 l 342 1028 l 200 792 z m 808 0 l 808 751 l 504 751 l 504 157 b 451 64 501 110 489 76 b 340 364 369 39 297 78 b 306 690 358 486 372 606 b -146 608 189 838 -53 731 l -125 586 b 1 608 -81 629 -35 640 b 31 372 56 561 49 483 b 360 -6 -4 156 119 -6 b 710 107 497 -6 567 136 b 774 0 747 99 774 69 z "},"ù":{"ha":842,"x_min":0,"x_max":0,"o":"m 444 792 l 364 1028 l 138 1028 l 138 994 l 401 792 z m 808 0 l 808 751 l 504 751 l 504 157 b 451 64 501 110 489 76 b 340 364 369 39 297 78 b 306 690 358 486 372 606 b -146 608 189 838 -53 731 l -125 586 b 1 608 -81 629 -35 640 b 31 372 56 561 49 483 b 360 -6 -4 156 119 -6 b 710 107 497 -6 567 136 b 774 0 747 99 774 69 z "},"ú":{"ha":842,"x_min":0,"x_max":0,"o":"m 426 792 l 690 994 l 690 1028 l 464 1028 l 383 792 z m 808 0 l 808 751 l 504 751 l 504 157 b 451 64 501 110 489 76 b 340 364 369 39 297 78 b 306 690 358 486 372 606 b -146 608 189 838 -53 731 l -125 586 b 1 608 -81 629 -35 640 b 31 372 56 561 49 483 b 360 -6 -4 156 119 -6 b 710 107 497 -6 567 136 b 774 0 747 99 774 69 z "},"¨":{"ha":865,"x_min":0,"x_max":0,"o":"m 726 883 b 619 983 726 939 679 983 b 514 883 561 983 514 939 b 619 783 514 828 561 783 b 726 883 679 783 726 828 z m 474 883 b 368 983 474 939 426 983 b 263 883 310 983 263 939 b 368 783 263 828 310 783 b 474 883 426 783 474 828 z "},"¢":{"ha":808,"x_min":0,"x_max":0,"o":"m 667 869 l 579 703 b 421 761 538 731 488 761 b 25 376 203 761 25 603 b 232 35 25 219 103 97 l 183 -58 l 213 -74 l 261 21 b 439 -10 314 1 374 -10 b 832 219 650 -10 742 82 l 803 240 b 379 246 683 75 538 38 l 475 431 b 569 407 501 417 532 407 b 779 751 750 407 800 599 l 749 751 b 683 651 749 689 735 651 b 607 683 658 651 633 665 l 696 854 z m 336 310 b 242 689 218 496 156 649 b 449 450 344 738 344 540 l 358 276 b 336 310 351 288 343 297 z "},"w":{"ha":1303,"x_min":0,"x_max":0,"o":"m 901 42 b 760 301 792 22 699 96 b 789 751 831 476 842 676 l 386 751 b 467 42 601 636 704 56 b 392 364 403 38 349 78 b 356 690 410 486 422 606 b -96 608 239 838 -3 731 l -74 586 b 53 608 -31 629 15 640 b 81 372 107 561 99 483 b 410 -6 46 156 168 -6 b 692 169 529 -6 624 68 b 844 -6 692 64 746 -6 b 1275 751 1189 -6 1294 565 l 872 751 b 901 42 1029 604 1132 82 z "},"y":{"ha":797,"x_min":0,"x_max":0,"o":"m 418 42 b 342 364 353 38 299 78 b 307 690 360 486 374 606 b -146 608 189 838 -51 731 l -124 586 b 3 608 -81 629 -35 640 b 32 372 57 561 49 483 b 361 -6 -3 156 118 -6 b 572 85 443 -6 514 29 b 410 -192 564 -79 511 -192 b 126 -25 313 -192 304 -25 b -83 -368 -54 -25 -104 -217 l -53 -368 b 21 -269 -53 -307 -42 -269 b 256 -379 90 -269 118 -379 b 703 218 463 -379 621 -65 b 739 751 742 353 811 631 l 336 751 b 418 42 551 636 654 56 z "},"z":{"ha":714,"x_min":0,"x_max":0,"o":"m 115 375 l 140 399 b 197 508 104 425 128 508 b 439 419 267 508 301 419 b 500 425 460 419 481 421 b 372 389 465 408 422 396 b 97 267 233 367 149 329 b 25 18 50 213 26 136 l 25 0 l 61 0 l 61 14 b 169 119 63 74 81 119 b 481 -10 265 119 319 -10 b 610 378 681 -10 764 246 l 585 354 b 528 243 621 328 596 243 b 276 332 458 243 414 332 l 268 332 b 378 356 300 342 336 349 b 689 714 590 389 681 492 b 690 751 690 726 690 739 l 654 751 b 546 632 654 685 642 632 b 244 761 450 632 406 761 b 115 375 44 761 -40 506 z "},"ž":{"ha":713,"x_min":0,"x_max":0,"o":"m 115 375 l 140 399 b 197 508 104 425 128 508 b 439 419 267 508 301 419 b 500 425 460 419 481 421 b 372 389 465 408 422 396 b 97 267 233 367 149 329 b 25 18 50 213 26 136 l 25 0 l 61 0 b 169 119 61 67 74 119 b 481 -10 265 119 319 -10 b 610 378 681 -10 764 246 l 585 354 b 528 243 621 328 596 243 b 276 332 458 243 414 332 l 268 332 b 378 356 300 342 336 349 b 689 714 589 389 681 492 b 690 733 689 719 690 726 l 690 751 l 654 751 b 546 632 654 685 642 632 b 244 761 450 632 406 761 b 115 375 44 761 -40 506 z m 533 1028 l 382 915 l 231 1028 l 189 1028 l 329 792 l 435 792 l 576 1028 z "},"ÿ":{"ha":797,"x_min":0,"x_max":0,"o":"m 601 883 b 494 983 601 939 554 983 b 389 883 436 983 389 939 b 494 783 389 828 436 783 b 601 883 554 783 601 828 z m 349 883 b 243 983 349 939 301 983 b 138 883 185 983 138 939 b 243 783 138 828 185 783 b 349 883 301 783 349 828 z m 418 42 b 342 364 353 38 299 78 b 307 690 360 486 374 606 b -146 608 189 838 -51 731 l -124 586 b 3 608 -81 629 -35 640 b 32 372 57 561 49 483 b 361 -6 -3 156 118 -6 b 572 85 443 -6 514 29 b 410 -192 564 -79 511 -192 b 126 -25 313 -192 304 -25 b -83 -368 -54 -25 -104 -217 l -53 -368 b 21 -269 -53 -307 -42 -269 b 256 -379 90 -269 118 -379 b 703 218 463 -379 621 -65 b 739 751 742 353 811 631 l 336 751 b 418 42 551 636 654 56 z "},"ý":{"ha":797,"x_min":0,"x_max":0,"o":"m 418 42 b 342 364 353 38 299 78 b 307 690 360 486 374 606 b -146 608 189 838 -51 731 l -124 586 b 3 608 -81 629 -35 640 b 32 372 57 561 49 483 b 361 -6 -3 156 118 -6 b 572 85 443 -6 514 29 b 410 -192 564 -79 511 -192 b 126 -25 313 -192 304 -25 b -83 -368 -54 -25 -104 -217 l -53 -368 b 21 -269 -53 -307 -42 -269 b 256 -379 90 -269 118 -379 b 703 218 463 -379 621 -65 b 739 751 742 353 811 631 l 336 751 b 418 42 551 636 654 56 z m 331 792 l 594 994 l 594 1028 l 368 1028 l 288 792 z "},"î":{"ha":367,"x_min":0,"x_max":0,"o":"m 33 792 l 185 904 l 336 792 l 378 792 l 238 1028 l 132 1028 l -10 792 z m 32 751 l 32 0 l 336 0 l 336 528 b 67 751 336 708 67 558 z "},"Ö":{"ha":993,"x_min":0,"x_max":0,"o":"m 496 950 b 25 471 236 950 25 736 b 496 -10 25 206 236 -10 b 967 471 757 -10 967 206 b 496 950 967 736 757 950 z m 731 93 b 351 381 651 44 481 172 b 261 847 222 589 182 797 b 640 560 342 897 511 768 b 731 93 771 353 810 143 z m 728 1083 b 621 1183 728 1139 681 1183 b 515 1083 563 1183 515 1139 b 621 983 515 1028 563 983 b 728 1083 681 983 728 1028 z m 475 1083 b 369 1183 475 1139 428 1183 b 264 1083 311 1183 264 1139 b 369 983 264 1028 311 983 b 475 1083 428 983 475 1028 z "},"Š":{"ha":783,"x_min":0,"x_max":0,"o":"m 25 665 b 354 358 25 482 164 414 b 656 119 589 289 721 178 b 260 343 539 17 467 343 b 32 -1 54 343 11 151 l 63 -1 b 146 99 63 60 76 99 b 443 -10 215 99 306 -10 b 758 283 622 -10 758 128 b 399 593 758 476 515 560 b 122 821 164 658 56 765 b 499 599 244 922 292 599 b 728 943 706 599 747 790 l 696 943 b 613 843 696 882 682 843 b 335 950 544 843 472 950 b 25 665 158 950 25 818 z m 501 1219 l 350 1107 l 199 1219 l 157 1219 l 297 983 l 403 983 l 544 1219 z "},"Ž":{"ha":867,"x_min":0,"x_max":0,"o":"m 126 564 l 151 588 b 189 697 115 614 119 697 b 519 590 257 697 382 590 b 546 592 528 590 536 590 b 399 539 500 572 451 556 b 99 322 258 494 160 422 b 25 0 49 238 25 133 l 60 0 b 201 139 60 67 106 139 b 574 -10 297 139 368 -10 b 842 214 781 -10 842 143 b 750 378 842 286 801 335 l 725 354 b 689 243 761 328 757 243 b 357 351 619 243 494 351 b 86 214 268 351 156 311 b 408 507 133 360 238 451 b 839 942 651 585 839 672 l 803 942 b 675 803 803 875 772 803 b 303 950 579 803 510 950 b 35 726 96 950 35 799 b 126 564 35 656 76 607 z m 622 1219 l 471 1107 l 319 1219 l 278 1219 l 418 983 l 524 983 l 665 1219 z "},"X":{"ha":1024,"x_min":0,"x_max":0,"o":"m 586 942 b 613 572 726 786 697 664 b 511 736 579 628 544 682 b 163 949 390 925 260 949 b -53 844 92 949 1 922 l -29 818 b 154 738 15 867 110 811 b 322 461 206 651 251 576 b 25 0 206 369 25 194 l 438 0 b 353 413 304 147 292 304 b 485 203 389 353 432 286 b 819 -10 606 13 722 -10 b 1035 94 890 -10 981 17 l 1011 119 b 842 201 963 67 892 121 b 639 529 768 318 701 426 b 999 942 767 600 999 740 l 586 942 z "},"Y":{"ha":858,"x_min":0,"x_max":0,"o":"m 413 942 b 496 563 569 846 583 714 b 474 514 486 546 479 531 b 424 696 465 560 450 611 b 121 951 356 908 192 951 b -96 847 49 951 -40 925 l -71 822 b 78 786 -28 869 44 865 b 132 617 101 729 108 685 b 447 400 183 472 447 590 b 179 125 447 238 179 301 l 179 0 l 482 0 l 482 396 b 542 567 482 425 488 482 b 833 942 632 708 833 799 z "},"Z":{"ha":867,"x_min":0,"x_max":0,"o":"m 126 564 l 151 588 b 189 697 115 614 119 697 b 519 590 257 697 382 590 b 546 592 528 590 536 590 b 399 539 500 572 451 556 b 99 322 258 494 160 422 b 25 0 49 238 25 133 l 60 0 b 201 139 60 67 106 139 b 574 -10 297 139 368 -10 b 842 214 781 -10 842 143 b 750 378 842 286 801 335 l 725 354 b 689 243 761 328 757 243 b 357 351 619 243 494 351 b 86 214 268 351 156 311 b 408 507 133 360 238 451 b 839 942 651 585 839 672 l 803 942 b 675 803 803 875 772 803 b 303 950 579 803 510 950 b 35 726 96 950 35 799 b 126 564 35 656 76 607 z "},"ı":{"ha":367,"x_min":0,"x_max":0,"o":"m 32 751 l 32 0 l 336 0 l 336 528 b 67 751 336 708 67 558 z "},"ï":{"ha":367,"x_min":0,"x_max":0,"o":"m 417 883 b 310 983 417 939 369 983 b 204 883 251 983 204 939 b 310 783 204 828 251 783 b 417 883 369 783 417 828 z m 164 883 b 58 983 164 939 117 983 b -47 883 0 983 -47 939 b 58 783 -47 828 0 783 b 164 883 117 783 164 828 z m 32 751 l 32 0 l 336 0 l 336 528 b 67 751 336 708 67 558 z "},"ì":{"ha":367,"x_min":0,"x_max":0,"o":"m 213 792 l 132 1028 l -94 1028 l -94 994 l 169 792 z m 32 751 l 32 0 l 336 0 l 336 528 b 67 751 336 708 67 558 z "},"í":{"ha":367,"x_min":0,"x_max":0,"o":"m 164 792 l 428 994 l 428 1028 l 201 1028 l 121 792 z m 32 751 l 32 0 l 336 0 l 336 528 b 67 751 336 708 67 558 z "},"˜":{"ha":867,"x_min":0,"x_max":0,"o":"m 376 1003 b 247 813 286 1003 247 947 l 279 813 b 346 888 279 861 294 885 b 578 822 432 893 493 822 b 697 1013 658 822 697 879 l 671 1013 b 613 938 671 964 657 943 b 376 1003 542 928 475 1003 z "},"ñ":{"ha":842,"x_min":0,"x_max":0,"o":"m 349 1003 b 219 813 258 1003 219 947 l 251 813 b 318 888 251 861 267 885 b 550 822 404 893 465 822 b 669 1013 631 822 669 879 l 643 1013 b 585 938 643 964 629 943 b 349 1003 514 928 447 1003 z m 32 751 l 32 0 l 336 0 l 336 582 b 389 692 338 638 349 679 b 500 393 471 718 543 678 b 535 67 482 271 468 151 b 986 149 653 -81 893 26 l 965 171 b 839 149 921 126 875 117 b 810 385 785 196 793 274 b 481 761 844 601 721 761 b 217 650 374 761 299 669 b 67 751 136 631 67 639 z "},"Ì":{"ha":367,"x_min":0,"x_max":0,"o":"m 213 983 l 132 1219 l -94 1219 l -94 1186 l 169 983 z m 336 0 l 336 942 l 32 942 l 32 0 z "},"Ï":{"ha":367,"x_min":0,"x_max":0,"o":"m 417 1083 b 310 1183 417 1139 369 1183 b 204 1083 251 1183 204 1139 b 310 983 204 1028 251 983 b 417 1083 369 983 417 1028 z m 164 1083 b 58 1183 164 1139 117 1183 b -47 1083 0 1183 -47 1139 b 58 983 -47 1028 0 983 b 164 1083 117 983 164 1028 z m 336 0 l 336 942 l 32 942 l 32 0 z "},"Î":{"ha":367,"x_min":0,"x_max":0,"o":"m 38 983 l 189 1096 l 340 983 l 382 983 l 242 1219 l 136 1219 l -6 983 z m 336 0 l 336 942 l 32 942 l 32 0 z "},"Í":{"ha":367,"x_min":0,"x_max":0,"o":"m 206 983 l 469 1186 l 469 1219 l 243 1219 l 163 983 z m 336 0 l 336 942 l 32 942 l 32 0 z "},"×":{"ha":478,"x_min":0,"x_max":0,"o":"m 33 632 l 200 465 l 33 299 l 71 260 l 238 426 l 406 260 l 443 299 l 276 465 l 444 633 l 407 672 l 238 503 l 71 671 z "},"±":{"ha":592,"x_min":0,"x_max":0,"o":"m 560 493 l 322 493 l 322 729 l 268 729 l 268 493 l 32 493 l 32 439 l 268 439 l 268 203 l 322 203 l 322 439 l 560 439 z m 560 54 l 32 54 l 32 0 l 560 0 z "},"≥":{"ha":493,"x_min":0,"x_max":0,"o":"m 32 0 l 461 0 l 461 54 l 32 54 z m 339 465 l 32 206 l 60 169 l 461 465 l 60 763 l 32 726 z "},"≠":{"ha":714,"x_min":0,"x_max":0,"o":"m 414 811 l 353 608 l 69 608 l 69 497 l 321 497 l 279 356 l 69 356 l 69 244 l 246 244 l 201 92 l 308 61 l 363 244 l 644 244 l 644 356 l 394 356 l 436 497 l 644 497 l 644 608 l 469 608 l 521 781 z "},"Ù":{"ha":844,"x_min":0,"x_max":0,"o":"m 621 72 b 336 489 385 72 336 235 l 336 942 l 33 942 l 33 363 b 485 -10 33 150 225 -10 b 811 293 622 -10 811 54 l 811 942 l 508 942 l 508 417 b 710 164 508 238 676 247 b 621 72 724 129 714 72 z m 460 983 l 379 1219 l 153 1219 l 153 1186 l 417 983 z "},"Û":{"ha":844,"x_min":0,"x_max":0,"o":"m 621 72 b 336 489 385 72 336 235 l 336 942 l 33 942 l 33 363 b 485 -10 33 150 225 -10 b 811 293 622 -10 811 54 l 811 942 l 508 942 l 508 417 b 710 164 508 238 676 247 b 621 72 724 129 714 72 z m 276 983 l 428 1096 l 579 983 l 621 983 l 481 1219 l 375 1219 l 233 983 z "},"Ú":{"ha":844,"x_min":0,"x_max":0,"o":"m 621 72 b 336 489 385 72 336 235 l 336 942 l 33 942 l 33 363 b 485 -10 33 150 225 -10 b 811 293 622 -10 811 54 l 811 942 l 508 942 l 508 417 b 710 164 508 238 676 247 b 621 72 724 129 714 72 z m 451 983 l 715 1186 l 715 1219 l 489 1219 l 408 983 z "},"}":{"ha":503,"x_min":0,"x_max":0,"o":"m 436 -4 b 351 324 436 115 338 244 b 469 381 360 368 408 381 l 469 411 b 351 469 408 411 360 425 b 436 796 338 547 436 676 b 33 1000 436 988 218 1000 l 33 968 b 132 901 94 968 129 953 b 47 565 138 813 47 674 b 268 396 47 457 147 413 b 47 226 147 378 47 333 b 132 -110 47 118 138 -21 b 33 -176 129 -160 94 -176 l 33 -207 b 436 -4 218 -207 436 -194 z "},"≈":{"ha":592,"x_min":0,"x_max":0,"o":"m 560 382 b 32 382 383 231 208 533 l 32 328 b 560 328 208 479 383 176 z m 560 582 b 32 582 383 431 208 733 l 32 528 b 560 528 208 679 383 376 z "},"∑":{"ha":868,"x_min":0,"x_max":0,"o":"m 531 501 b 226 624 468 514 333 542 b 372 590 275 600 326 590 b 703 697 510 590 635 697 b 789 610 764 697 789 650 b 788 594 789 604 788 599 l 822 594 b 857 726 838 629 857 656 b 589 950 857 799 796 950 b 217 803 382 950 313 803 b 75 942 119 803 75 875 l 40 942 b 432 489 44 692 217 549 b 25 0 204 429 25 276 l 61 0 l 61 25 b 201 139 72 83 118 139 b 575 -10 299 139 368 -10 b 843 214 782 -10 843 143 b 751 378 843 286 801 335 l 725 354 b 749 303 740 343 749 324 b 689 243 749 274 731 243 b 358 351 621 243 496 351 b 149 279 293 351 214 329 b 531 475 236 393 379 454 z "},"÷":{"ha":592,"x_min":0,"x_max":0,"o":"m 560 493 l 32 493 l 32 439 l 560 439 z m 117 246 b 296 81 117 149 189 81 b 474 246 401 81 474 149 b 296 411 474 343 401 411 b 117 246 189 411 117 343 z m 117 686 b 296 521 117 589 189 521 b 474 686 401 521 474 589 b 296 851 474 783 401 851 b 117 686 189 851 117 783 z "},"’":{"ha":407,"x_min":0,"x_max":0,"o":"m 143 626 b 117 401 274 592 247 467 l 135 371 b 381 761 311 451 381 582 b 203 950 381 871 310 950 b 25 785 96 950 25 882 b 143 626 25 707 69 646 z "},"‘":{"ha":407,"x_min":0,"x_max":0,"o":"m 264 694 b 290 919 133 729 160 854 l 272 950 b 26 560 96 869 26 739 b 204 371 26 450 97 371 b 382 536 311 371 382 439 b 264 694 382 614 338 675 z "},"”":{"ha":769,"x_min":0,"x_max":0,"o":"m 143 626 b 117 401 274 592 247 467 l 135 371 b 381 761 311 451 381 582 b 203 950 381 871 310 950 b 25 785 96 950 25 882 b 143 626 25 707 69 646 z m 506 626 b 479 401 636 592 610 467 l 497 371 b 743 761 674 451 743 582 b 565 950 743 871 672 950 b 388 785 458 950 388 882 b 506 626 388 707 432 646 z "},"“":{"ha":769,"x_min":0,"x_max":0,"o":"m 626 694 b 653 919 496 729 522 854 l 635 950 b 389 560 458 869 389 739 b 567 371 389 450 460 371 b 744 536 674 371 744 439 b 626 694 744 614 700 675 z m 264 694 b 290 919 133 729 160 854 l 272 950 b 26 560 96 869 26 739 b 204 371 26 450 97 371 b 382 536 311 371 382 439 b 264 694 382 614 338 675 z "},"¬":{"ha":593,"x_min":0,"x_max":0,"o":"m 560 493 l 32 493 l 32 439 l 506 439 l 506 203 l 560 203 z "},"˙":{"ha":881,"x_min":0,"x_max":0,"o":"m 386 861 b 446 803 386 829 413 803 b 506 861 479 803 506 829 b 446 921 506 894 479 921 b 386 861 413 921 386 894 z "},"˚":{"ha":865,"x_min":0,"x_max":0,"o":"m 483 1022 b 272 919 328 1022 272 989 b 483 815 272 849 328 815 b 694 919 639 815 694 849 b 483 1022 694 989 639 1022 z m 518 840 b 447 903 490 831 468 854 b 449 999 426 951 421 989 b 519 935 476 1008 499 983 b 518 840 540 888 546 850 z "},"ƒ":{"ha":807,"x_min":0,"x_max":0,"o":"m 726 515 l 460 515 b 219 689 400 613 231 615 b 286 765 214 726 228 765 b 568 597 382 765 390 597 b 779 942 750 597 800 789 l 747 942 b 674 842 747 881 736 842 b 439 953 606 842 576 953 b 178 650 301 953 178 888 l 178 515 l 25 515 l 25 482 l 178 482 l 178 138 b 440 -115 178 -42 426 -26 b 374 -192 446 -153 432 -192 b 90 -25 278 -192 268 -25 b -119 -368 -90 -25 -140 -217 l -87 -368 b -15 -269 -87 -307 -76 -269 b 221 -379 54 -269 83 -379 b 482 -76 358 -379 482 -315 l 482 435 b 475 482 482 451 479 468 l 726 482 z "},"Ý":{"ha":858,"x_min":0,"x_max":0,"o":"m 422 983 l 686 1186 l 686 1219 l 460 1219 l 379 983 z m 413 942 b 496 563 569 846 583 714 b 474 514 486 546 479 531 b 424 696 465 560 450 611 b 121 951 356 908 192 951 b -96 847 49 951 -40 925 l -71 822 b 78 786 -28 869 44 865 b 132 617 101 729 108 685 b 447 400 183 472 447 590 b 179 125 447 238 179 301 l 179 0 l 482 0 l 482 396 b 542 567 482 425 488 482 b 833 942 632 708 833 799 z "},"Ÿ":{"ha":858,"x_min":0,"x_max":0,"o":"m 654 1083 b 547 1183 654 1139 607 1183 b 442 1083 489 1183 442 1139 b 547 983 442 1028 489 983 b 654 1083 607 983 654 1028 z m 401 1083 b 296 1183 401 1139 354 1183 b 190 1083 238 1183 190 1139 b 296 983 190 1028 238 983 b 401 1083 354 983 401 1028 z m 413 942 b 496 563 569 846 583 714 b 474 514 486 546 479 531 b 424 696 465 560 450 611 b 121 951 356 908 192 951 b -96 847 49 951 -40 925 l -71 822 b 78 786 -28 869 44 865 b 132 617 101 729 108 685 b 447 400 183 472 447 590 b 179 125 447 238 179 301 l 179 0 l 482 0 l 482 396 b 542 567 482 425 488 482 b 833 942 632 708 833 799 z "},"_":{"ha":593,"x_min":0,"x_max":0,"o":"m 593 -28 l 0 -28 l 0 -82 l 593 -82 z "},"þ":{"ha":892,"x_min":0,"x_max":0,"o":"m 68 -425 b 338 -201 68 -232 338 -381 l 338 54 b 494 -10 394 8 454 -10 b 867 376 653 -10 867 149 b 456 761 867 603 703 761 b 338 725 414 761 374 744 l 338 942 l 301 942 b 33 718 301 749 33 899 l 33 -425 z m 338 589 b 372 706 338 649 344 690 b 589 424 436 738 550 588 b 561 64 626 264 640 114 b 338 136 499 25 413 46 z "},"Þ":{"ha":836,"x_min":0,"x_max":0,"o":"m 358 151 b 811 479 644 151 811 304 b 358 758 811 642 619 758 b 336 757 351 758 343 758 l 336 942 l 32 942 l 32 0 l 336 0 l 336 332 b 135 585 336 511 168 501 b 222 676 119 619 131 676 b 453 529 296 676 396 614 b 358 181 569 353 492 181 z "},"⁄":{"ha":749,"x_min":0,"x_max":0,"o":"m 60 0 b 360 469 60 204 153 350 l 375 479 b 724 942 576 596 724 681 l 689 942 b 354 504 689 699 556 621 l 340 496 b 25 0 122 369 25 217 l 60 0 z "},"/":{"ha":490,"x_min":0,"x_max":0,"o":"m 428 942 l 25 0 l 63 0 l 465 942 z "},"\\":{"ha":490,"x_min":0,"x_max":0,"o":"m 25 942 l 428 0 l 465 0 l 63 942 z "},"š":{"ha":682,"x_min":0,"x_max":0,"o":"m 500 1028 l 349 915 l 197 1028 l 156 1028 l 296 792 l 401 792 l 543 1028 z m 317 568 b 231 726 117 618 149 726 b 493 533 326 726 383 533 b 639 751 613 533 639 685 l 603 751 b 504 689 603 710 557 689 b 231 761 407 689 357 761 b 26 528 119 761 22 647 b 300 257 31 369 169 282 b 517 115 454 228 504 168 b 463 31 528 67 497 33 b 186 260 365 22 367 260 b 35 0 39 260 35 68 l 69 0 b 156 81 69 51 97 81 b 414 -10 251 81 288 -10 b 657 254 589 -10 653 121 b 317 568 663 431 528 514 z "},"Ü":{"ha":844,"x_min":0,"x_max":0,"o":"m 621 72 b 336 489 385 72 336 235 l 336 942 l 33 942 l 33 363 b 485 -10 33 150 225 -10 b 811 293 622 -10 811 54 l 811 942 l 508 942 l 508 417 b 710 164 508 238 676 247 b 621 72 724 129 714 72 z m 665 1083 b 558 1183 665 1139 618 1183 b 453 1083 500 1183 453 1139 b 558 983 453 1028 500 983 b 665 1083 618 983 665 1028 z m 413 1083 b 307 1183 413 1139 365 1183 b 201 1083 249 1183 201 1139 b 307 983 201 1028 249 983 b 413 1083 365 983 413 1028 z "},"ª":{"ha":865,"x_min":0,"x_max":0,"o":"m 506 949 b 171 849 346 949 258 849 b 110 939 125 849 110 888 l 74 939 b 224 636 49 708 106 636 b 432 906 404 636 340 879 b 529 618 519 931 563 869 b 411 624 493 622 454 624 b 25 403 151 624 25 547 b 385 182 25 260 138 182 b 546 272 501 182 538 219 b 560 254 550 267 554 260 b 1011 336 676 107 918 214 l 990 358 b 864 336 946 314 900 304 b 835 572 810 383 817 461 b 506 949 869 789 744 949 z m 510 431 b 488 235 510 346 521 250 b 324 375 433 208 374 249 b 346 575 285 471 292 549 b 525 586 385 594 453 596 l 525 581 b 510 431 517 529 511 478 z "},"º":{"ha":879,"x_min":0,"x_max":0,"o":"m 440 949 b 25 564 192 949 25 790 b 440 178 25 336 192 178 b 854 564 688 178 854 336 b 440 949 854 790 688 949 z m 638 251 b 336 497 558 201 454 313 b 242 876 218 683 163 825 b 543 629 321 926 425 815 b 638 251 660 444 718 301 z "},"∫":{"ha":369,"x_min":0,"x_max":0,"o":"m 336 435 b 74 689 336 615 88 600 b 140 765 68 726 82 765 b 422 597 236 765 244 597 b 633 942 604 597 654 789 l 601 942 b 528 842 601 881 590 842 b 293 953 460 842 431 953 b 32 650 156 953 32 888 l 32 138 b 294 -115 32 -42 281 -26 b 228 -192 300 -153 286 -192 b -56 -25 132 -192 122 -25 b -265 -368 -236 -25 -286 -217 l -233 -368 b -161 -269 -233 -307 -222 -269 b 75 -379 -92 -269 -62 -379 b 336 -76 213 -379 336 -315 l 336 435 z "},"Ł":{"ha":797,"x_min":0,"x_max":0,"o":"m 417 653 l 336 625 l 336 942 l 32 942 l 32 524 l -69 490 l -60 458 l 32 489 l 32 0 l 67 0 b 181 139 67 67 83 139 b 515 -10 276 139 308 -10 b 763 365 781 -10 789 240 l 728 367 b 629 243 735 322 699 243 b 344 351 561 243 482 351 b 74 190 249 351 135 306 b 336 507 118 407 336 346 l 336 590 l 428 621 z "},"ł":{"ha":361,"x_min":0,"x_max":0,"o":"m 417 653 l 332 624 l 332 718 b 63 942 332 899 63 749 l 28 942 l 28 522 l -69 490 l -60 458 l 28 488 l 28 0 l 332 0 l 332 589 l 428 621 z "},"ð":{"ha":969,"x_min":0,"x_max":0,"o":"m 351 871 b 407 839 371 861 389 851 l 299 803 l 308 771 l 438 814 b 510 725 464 790 488 761 b 278 743 419 775 311 757 b 25 376 136 685 25 542 b 488 -10 25 149 239 -10 b 943 493 746 -10 961 207 b 665 889 932 675 822 814 l 796 933 l 785 965 l 618 910 b 375 953 544 938 461 953 b 135 926 253 953 174 938 l 135 896 b 351 871 244 914 304 893 z m 582 592 b 657 51 731 325 714 86 b 336 310 589 10 438 117 b 290 711 233 504 214 656 b 582 592 342 750 500 738 z "},"¹":{"ha":451,"x_min":0,"x_max":0,"o":"m 25 692 b 204 729 83 692 146 704 l 204 414 l 419 414 l 419 949 l 394 949 b 25 714 350 797 174 717 l 25 692 z "},"²":{"ha":522,"x_min":0,"x_max":0,"o":"m 247 950 b 72 704 90 950 -11 818 l 94 717 b 172 840 42 794 94 851 b 190 664 292 822 358 697 b 25 426 89 643 28 575 l 25 415 l 51 415 b 126 510 51 463 69 510 b 342 406 194 510 247 406 b 497 564 461 406 497 513 b 432 679 497 614 468 649 l 414 663 b 399 585 440 643 447 585 b 254 651 360 585 322 632 b 451 842 383 682 481 736 b 247 950 431 917 336 950 z "},"³":{"ha":590,"x_min":0,"x_max":0,"o":"m 147 649 b 239 660 147 649 190 657 b 328 590 267 656 296 639 b 239 429 390 490 358 425 b 4 535 140 432 49 485 l -11 522 b 269 406 44 454 131 406 b 565 551 453 406 565 450 b 383 676 565 626 497 664 b 311 950 582 740 571 950 b 107 907 213 950 156 907 b 51 944 58 907 51 919 l 29 944 b 181 735 15 838 35 735 b 442 865 328 735 336 914 b 274 683 496 839 513 690 b 128 692 171 683 128 692 z "},"E":{"ha":790,"x_min":0,"x_max":0,"o":"m 601 507 l 421 507 b 157 829 111 507 63 772 b 531 599 299 915 325 599 b 760 943 738 599 781 790 l 729 943 b 646 843 729 882 714 843 b 343 950 576 843 481 950 b 308 483 -49 950 7 563 b 25 249 144 454 25 383 b 444 -10 25 97 183 -10 b 817 146 632 -10 733 53 l 801 163 b 344 201 681 35 454 -15 b 450 471 260 367 306 471 l 578 471 z "},"D":{"ha":854,"x_min":0,"x_max":0,"o":"m 360 -10 b 831 471 619 -10 831 206 b 360 951 831 736 619 951 b 32 650 221 951 32 889 l 32 0 l 264 0 b 360 -10 293 -6 329 -10 z m 200 853 b 504 560 279 831 407 715 b 593 93 633 353 674 143 b 336 219 536 58 435 113 l 336 525 b 135 778 336 704 168 696 b 200 853 121 813 129 872 z "},"C":{"ha":938,"x_min":0,"x_max":0,"o":"m 679 599 b 908 943 886 599 929 790 l 878 943 b 794 843 878 882 863 843 b 496 950 725 843 635 950 b 25 471 236 950 25 736 b 496 -10 25 206 236 -10 b 936 256 681 -10 860 99 l 908 271 b 638 113 857 172 761 82 b 351 381 549 133 443 233 b 263 847 222 589 182 797 b 679 599 403 936 474 599 z "},"B":{"ha":907,"x_min":0,"x_max":0,"o":"m 429 -10 b 882 250 690 -10 882 88 b 569 479 882 382 756 456 b 811 701 717 513 811 586 b 358 951 811 864 619 951 b 32 650 221 951 32 889 l 32 0 l 286 0 b 429 -10 331 -6 379 -10 z m 353 485 l 353 454 b 558 310 419 454 496 410 b 564 42 631 192 617 71 b 336 126 494 4 418 32 l 336 525 b 133 778 336 704 168 696 b 222 869 119 813 131 869 b 453 750 296 869 389 831 b 353 485 581 590 506 488 z "},"A":{"ha":935,"x_min":0,"x_max":0,"o":"m 436 0 b 297 254 381 61 328 154 l 504 254 b 814 -10 550 118 661 -10 b 1029 94 885 -10 974 17 l 1006 119 b 856 157 961 72 890 78 b 711 629 800 286 771 451 b 236 949 660 785 517 949 l 236 913 b 360 736 299 913 324 853 b 254 594 324 692 285 642 b 25 0 161 453 25 200 z m 493 288 l 289 288 b 322 626 258 406 260 532 b 372 697 339 651 356 674 b 493 288 413 567 451 415 z "},"Á":{"ha":936,"x_min":0,"x_max":0,"o":"m 393 983 l 657 1186 l 657 1219 l 431 1219 l 350 983 z m 436 0 b 297 254 381 61 328 154 l 504 254 b 814 -10 550 118 661 -10 b 1029 94 885 -10 974 17 l 1006 119 b 856 157 961 72 890 78 b 711 629 800 286 771 451 b 236 949 660 785 517 949 l 236 913 b 360 736 299 913 324 853 b 254 594 324 692 285 642 b 25 0 161 453 25 200 z m 493 288 l 289 288 b 322 626 258 406 260 532 b 372 697 339 651 356 674 b 493 288 413 567 451 415 z "},"Â":{"ha":936,"x_min":0,"x_max":0,"o":"m 257 983 l 408 1096 l 560 983 l 601 983 l 461 1219 l 356 1219 l 214 983 z m 436 0 b 297 254 381 61 328 154 l 504 254 b 814 -10 550 118 661 -10 b 1029 94 885 -10 974 17 l 1006 119 b 856 157 961 72 890 78 b 711 629 800 286 771 451 b 236 949 660 785 517 949 l 236 913 b 360 736 299 913 324 853 b 254 594 324 692 285 642 b 25 0 161 453 25 200 z m 493 288 l 289 288 b 322 626 258 406 260 532 b 372 697 339 651 356 674 b 493 288 413 567 451 415 z "},"Ã":{"ha":936,"x_min":0,"x_max":0,"o":"m 436 0 b 297 254 381 61 328 154 l 504 254 b 510 240 506 249 508 244 b 814 -10 585 29 742 -10 b 1029 94 885 -10 974 17 l 1006 119 b 856 157 961 72 890 78 b 711 629 800 286 771 451 b 236 949 660 785 517 949 l 236 913 b 356 753 299 913 324 853 l 360 736 b 254 594 324 692 285 642 b 25 0 161 453 25 200 z m 493 288 l 289 288 b 322 626 258 406 260 532 b 372 697 339 651 356 674 b 493 288 413 567 451 415 z m 324 1176 b 194 986 233 1176 194 1121 l 226 986 b 293 1061 226 1035 242 1058 b 525 996 379 1067 440 996 b 644 1186 606 996 644 1053 l 618 1186 b 560 1111 618 1138 604 1117 b 324 1176 489 1101 422 1176 z "},"À":{"ha":936,"x_min":0,"x_max":0,"o":"m 436 0 b 297 254 381 61 328 154 l 504 254 b 510 240 506 249 508 244 b 814 -10 585 29 742 -10 b 1029 94 885 -10 974 17 l 1006 119 b 856 157 961 72 890 78 b 711 629 800 286 771 451 b 236 949 660 785 517 949 l 236 913 b 356 753 299 913 324 853 l 360 736 b 254 594 324 692 285 642 b 25 0 161 453 25 200 z m 493 288 l 289 288 b 322 626 258 406 260 532 b 372 697 339 651 356 674 b 493 288 413 567 451 415 z m 456 983 l 375 1219 l 149 1219 l 149 1186 l 413 983 z "},"Å":{"ha":936,"x_min":0,"x_max":0,"o":"m 400 1185 b 189 1082 244 1185 189 1151 b 400 978 189 1011 244 978 b 611 1082 556 978 611 1011 b 400 1185 611 1151 556 1185 z m 435 1003 b 364 1065 407 993 385 1017 b 365 1161 343 1114 338 1151 b 436 1097 393 1171 415 1146 b 435 1003 457 1050 463 1013 z m 436 0 b 297 254 381 61 328 154 l 504 254 b 814 -10 550 118 661 -10 b 1029 94 885 -10 974 17 l 1006 119 b 856 157 961 72 890 78 b 711 629 800 286 771 451 b 236 949 660 785 517 949 l 236 913 b 360 736 299 913 324 853 b 254 594 324 692 285 642 b 25 0 161 453 25 200 z m 493 288 l 289 288 b 322 626 258 406 260 532 b 372 697 339 651 356 674 b 493 288 413 567 451 415 z "},"Ä":{"ha":936,"x_min":0,"x_max":0,"o":"m 436 0 b 297 254 381 61 328 154 l 504 254 b 814 -10 550 118 661 -10 b 1029 94 885 -10 974 17 l 1006 119 b 856 157 961 72 890 78 b 711 629 800 286 771 451 b 236 949 660 785 517 949 l 236 913 b 360 736 299 913 324 853 b 254 594 324 692 285 642 b 25 0 161 453 25 200 z m 493 288 l 289 288 b 322 626 258 406 260 532 b 372 697 339 651 356 674 b 493 288 413 567 451 415 z m 644 1083 b 538 1183 644 1139 597 1183 b 432 1083 479 1183 432 1139 b 538 983 432 1028 479 983 b 644 1083 597 983 644 1028 z m 392 1083 b 286 1183 392 1139 344 1183 b 181 1083 228 1183 181 1139 b 286 983 181 1028 228 983 b 392 1083 344 983 392 1028 z "},"È":{"ha":792,"x_min":0,"x_max":0,"o":"m 601 507 l 421 507 b 157 829 111 507 63 772 b 531 599 299 915 325 599 b 760 943 738 599 781 790 l 729 943 b 646 843 729 882 714 843 b 343 950 576 843 481 950 b 308 483 -49 950 7 563 b 25 249 144 454 25 383 b 444 -10 25 97 183 -10 b 817 146 632 -10 733 53 l 801 163 b 344 201 681 35 454 -15 b 450 471 260 367 306 471 l 578 471 z m 492 983 l 411 1219 l 185 1219 l 185 1186 l 449 983 z "},"Ë":{"ha":792,"x_min":0,"x_max":0,"o":"m 601 507 l 421 507 b 157 829 111 507 63 772 b 531 599 299 915 325 599 b 760 943 738 599 781 790 l 729 943 b 646 843 729 882 714 843 b 343 950 576 843 481 950 b 308 483 -49 950 7 563 b 25 249 144 454 25 383 b 444 -10 25 97 183 -10 b 817 146 632 -10 733 53 l 801 163 b 344 201 681 35 454 -15 b 439 471 261 363 303 465 l 578 471 z m 643 1083 b 536 1183 643 1139 596 1183 b 431 1083 478 1183 431 1139 b 536 983 431 1028 478 983 b 643 1083 596 983 643 1028 z m 390 1083 b 285 1183 390 1139 343 1183 b 179 1083 226 1183 179 1139 b 285 983 179 1028 226 983 b 390 1083 343 983 390 1028 z "},"Ê":{"ha":792,"x_min":0,"x_max":0,"o":"m 601 507 l 421 507 b 157 829 111 507 63 772 b 531 599 299 915 325 599 b 760 943 738 599 781 790 l 729 943 b 646 843 729 882 714 843 b 343 950 576 843 481 950 b 308 483 -49 950 7 563 b 25 249 144 454 25 383 b 444 -10 25 97 183 -10 b 817 146 632 -10 733 53 l 801 163 b 344 201 681 35 454 -15 b 450 471 260 367 306 471 l 578 471 z m 251 983 l 403 1096 l 554 983 l 596 983 l 456 1219 l 350 1219 l 208 983 z "},"É":{"ha":792,"x_min":0,"x_max":0,"o":"m 601 507 l 421 507 b 157 829 111 507 63 772 b 531 599 299 915 325 599 b 760 943 738 599 781 790 l 729 943 b 646 843 729 882 714 843 b 343 950 576 843 481 950 b 308 483 -49 950 7 563 b 25 249 144 454 25 383 b 444 -10 25 97 183 -10 b 817 146 632 -10 733 53 l 801 163 b 344 201 681 35 454 -15 b 450 471 260 367 306 471 l 578 471 z m 407 983 l 671 1186 l 671 1219 l 444 1219 l 364 983 z "},"Æ":{"ha":1344,"x_min":0,"x_max":0,"o":"m 436 0 b 297 254 381 61 328 154 l 564 254 l 588 188 b 999 -10 629 69 775 -10 b 1372 144 1188 -10 1288 53 l 1356 161 b 899 201 1235 33 1008 -17 b 1004 469 815 365 860 469 l 1132 469 l 1157 506 l 976 506 b 711 829 665 506 617 771 b 1086 597 853 915 879 597 b 1314 942 1292 597 1335 789 l 1283 942 b 1200 842 1283 881 1269 842 b 897 950 1131 842 1035 950 b 622 776 719 950 635 871 b 549 882 601 818 579 857 b 207 947 478 938 333 947 l 207 913 b 386 765 267 913 342 854 b 254 593 342 714 292 650 b 24 0 161 451 24 200 z m 554 286 l 289 286 b 322 625 258 404 260 531 b 401 732 349 664 375 700 b 554 286 454 611 507 429 z "},"Ð":{"ha":854,"x_min":0,"x_max":0,"o":"m 360 -10 b 831 471 619 -10 831 206 b 360 951 831 736 619 951 b 32 650 221 951 32 889 l 32 468 l -76 468 l -76 435 l 32 435 l 32 0 l 264 0 b 360 -10 293 -6 329 -10 z m 429 468 l 336 468 l 336 525 b 135 778 336 704 168 696 b 200 853 121 813 129 872 b 504 560 279 831 407 715 b 593 93 633 353 674 143 b 336 219 536 58 435 113 l 336 435 l 429 435 z "},"Ç":{"ha":938,"x_min":0,"x_max":0,"o":"m 679 599 b 908 943 886 599 929 790 l 878 943 b 794 843 878 882 863 843 b 496 950 725 843 635 950 b 25 471 236 950 25 736 b 354 13 25 256 163 74 b 292 -153 326 -29 292 -68 l 321 -153 b 379 -122 332 -140 357 -125 b 489 -192 425 -118 458 -140 b 438 -350 540 -278 535 -351 b 264 -292 361 -349 264 -292 l 251 -314 b 468 -379 251 -314 346 -379 b 732 -221 656 -379 732 -303 b 472 -78 732 -139 647 -74 b 324 -119 399 -78 347 -103 b 382 4 331 -67 360 -32 b 496 -10 418 -4 457 -10 b 936 256 681 -10 860 99 l 908 271 b 638 113 857 172 761 82 b 351 381 549 133 443 233 b 263 847 222 589 182 797 b 679 599 403 936 474 599 z "},"½":{"ha":1168,"x_min":0,"x_max":0,"o":"m 893 535 b 718 289 736 535 635 403 l 740 301 b 818 425 688 379 740 436 b 836 249 938 407 1004 282 b 671 15 735 228 675 160 l 671 0 l 697 0 b 772 94 697 47 715 94 b 988 -10 840 94 893 -10 b 1143 149 1107 -10 1143 97 b 1078 264 1143 199 1114 233 l 1060 247 b 1044 169 1086 228 1093 169 b 900 236 1006 169 968 217 b 1097 426 1029 267 1126 321 b 893 535 1076 501 982 535 z m 25 692 b 204 729 83 692 146 704 l 204 414 l 419 414 l 419 949 l 394 949 b 25 714 350 797 174 717 z m 319 0 b 619 469 319 204 413 350 l 635 479 b 983 942 836 596 983 681 l 949 942 b 614 504 949 699 815 621 l 600 496 b 285 0 382 369 285 217 z "},"¾":{"ha":1199,"x_min":0,"x_max":0,"o":"m 147 649 b 239 660 147 649 190 657 b 328 590 267 656 296 639 b 239 429 390 490 358 425 b 4 535 140 432 49 485 l -11 522 b 269 406 44 454 131 406 b 565 551 453 406 565 450 b 383 676 565 626 497 664 b 311 950 582 740 571 950 b 107 907 213 950 156 907 b 51 944 58 907 51 919 l 29 944 b 181 735 15 838 35 735 b 442 865 328 735 336 914 b 274 683 496 839 513 690 b 128 692 171 683 128 692 z m 726 408 b 793 221 726 329 800 290 b 699 156 788 174 746 156 l 699 132 l 951 132 l 951 0 l 1167 0 l 1167 535 l 1142 535 b 951 156 1142 176 1074 156 l 872 156 b 994 290 944 179 994 221 b 926 467 994 379 924 403 b 997 514 929 503 954 514 l 997 536 b 726 408 867 536 726 517 z m 365 0 b 665 469 365 204 458 350 l 681 479 b 1029 942 882 596 1029 681 l 994 942 b 660 504 994 699 861 621 l 646 496 b 331 0 428 369 331 217 z "},"¼":{"ha":1153,"x_min":0,"x_max":0,"o":"m 681 408 b 747 221 681 329 754 290 b 663 156 742 176 706 158 l 653 156 l 653 132 l 906 132 l 906 0 l 1121 0 l 1121 535 l 1096 535 b 906 156 1096 176 1028 156 l 826 156 b 949 290 899 179 949 221 b 881 467 949 379 878 403 b 951 514 883 503 908 514 l 951 536 b 681 408 821 536 681 517 z m 25 692 b 204 729 83 692 146 704 l 204 414 l 419 414 l 419 949 l 394 949 b 25 714 350 797 174 717 z m 319 0 b 619 469 319 204 413 350 l 635 479 b 983 942 836 596 983 681 l 949 942 b 614 504 949 699 815 621 l 600 496 b 285 0 382 369 285 217 z "},"•":{"ha":568,"x_min":0,"x_max":0,"o":"m 32 482 b 285 247 32 344 133 247 b 536 482 435 247 536 344 b 285 717 536 621 435 717 b 32 482 133 717 32 621 z "}," ":{"ha":367,"x_min":0,"x_max":0,"o":""},"¦":{"ha":103,"x_min":0,"x_max":0,"o":"m 32 333 l 32 -207 l 71 -207 l 71 333 z m 32 999 l 32 458 l 71 458 l 71 999 z "},"˘":{"ha":865,"x_min":0,"x_max":0,"o":"m 622 1028 b 482 926 622 963 596 926 b 343 1028 369 926 343 963 l 319 1028 b 482 815 319 882 353 815 b 646 1028 613 815 646 882 z "},"¯":{"ha":865,"x_min":0,"x_max":0,"o":"m 664 911 l 317 911 l 317 850 l 664 850 z "},"ﬂ":{"ha":832,"x_min":0,"x_max":0,"o":"m 426 435 b 419 482 426 451 424 468 l 496 482 l 496 0 l 799 0 l 799 940 l 764 940 b 690 842 764 879 753 842 b 383 951 622 842 522 951 b 122 649 246 951 122 888 l 122 515 l 25 515 l 25 482 l 122 482 l 122 0 l 426 0 z m 231 764 b 496 611 308 764 376 653 l 496 515 l 404 515 b 164 688 343 611 175 614 b 231 764 158 725 174 764 z "},"ﬁ":{"ha":831,"x_min":0,"x_max":0,"o":"m 426 435 b 419 482 426 451 424 468 l 494 482 l 494 0 l 799 0 l 799 751 l 764 751 b 510 515 764 621 703 519 l 404 515 b 164 688 343 611 175 614 b 231 764 158 725 172 764 b 514 597 326 764 336 597 b 724 940 694 597 744 789 l 693 940 b 619 842 693 879 681 842 b 383 951 550 842 521 951 b 122 649 246 951 122 888 l 122 515 l 25 515 l 25 482 l 122 482 l 122 0 l 426 0 l 426 435 z "},"Ţ":{"ha":914,"x_min":0,"x_max":0,"o":"m 117 564 l 142 588 b 178 697 106 614 110 697 b 306 651 208 697 251 675 l 306 0 l 610 0 l 610 421 b 356 631 610 574 414 467 b 557 590 413 608 479 590 b 889 940 694 590 889 685 l 854 940 b 713 803 854 874 808 803 b 274 950 617 803 481 950 b 25 726 67 950 25 799 b 117 564 25 656 65 607 z m 393 -360 b 367 -585 524 -394 497 -519 l 385 -615 b 631 -225 561 -535 631 -404 b 453 -36 631 -115 560 -36 b 275 -201 346 -36 275 -104 b 393 -360 275 -279 319 -340 z "},"Ť":{"ha":914,"x_min":0,"x_max":0,"o":"m 117 564 l 142 588 b 178 697 106 614 110 697 b 306 651 208 697 251 675 l 306 0 l 610 0 l 610 421 b 356 631 610 574 414 467 b 557 590 413 608 479 590 b 889 940 694 590 889 685 l 854 940 b 713 803 854 874 808 803 b 274 950 617 803 481 950 b 25 726 67 950 25 799 b 117 564 25 656 65 607 z m 606 1219 l 454 1107 l 303 1219 l 261 1219 l 401 983 l 507 983 l 649 1219 z "},"Ľ":{"ha":797,"x_min":0,"x_max":0,"o":"m 763 365 l 728 367 b 629 243 735 322 699 243 b 344 351 561 243 482 351 b 74 190 249 351 135 306 b 336 507 118 407 336 346 l 336 942 l 32 942 l 32 18 l 32 0 l 67 0 b 181 139 67 67 83 139 b 515 -10 276 139 308 -10 b 763 365 781 -10 789 240 z m 340 1219 l 189 1107 l 38 1219 l -4 1219 l 136 983 l 242 983 l 383 1219 z "},"Č":{"ha":938,"x_min":0,"x_max":0,"o":"m 639 1219 l 488 1107 l 336 1219 l 294 1219 l 435 983 l 540 983 l 682 1219 z m 679 599 b 908 943 886 599 929 790 l 878 943 b 794 843 878 882 863 843 b 496 950 725 843 635 950 b 25 471 236 950 25 736 b 496 -10 25 206 236 -10 b 936 256 681 -10 860 99 l 908 271 b 638 113 857 172 761 82 b 351 381 549 133 443 233 b 263 847 222 589 182 797 b 679 599 403 936 474 599 z "},"Ě":{"ha":792,"x_min":0,"x_max":0,"o":"m 601 507 l 421 507 b 157 829 111 507 63 772 b 531 599 299 915 325 599 b 760 943 738 599 781 790 l 729 943 b 646 843 729 882 714 843 b 343 950 576 843 481 950 b 308 483 -49 950 7 563 b 25 249 144 454 25 383 b 444 -10 25 97 183 -10 b 817 146 632 -10 733 53 l 801 163 b 344 201 681 35 454 -15 b 450 471 260 367 306 471 l 578 471 z m 579 1219 l 428 1107 l 276 1219 l 235 1219 l 375 983 l 481 983 l 622 1219 z "},"Ď":{"ha":854,"x_min":0,"x_max":0,"o":"m 360 -10 b 831 471 619 -10 831 206 b 360 951 831 736 619 951 b 32 650 221 951 32 889 l 32 0 l 264 0 b 360 -10 293 -6 329 -10 z m 200 853 b 504 560 279 831 407 715 b 593 93 633 353 674 143 b 336 219 536 58 435 113 l 336 525 b 135 778 336 704 168 696 b 200 853 121 813 129 872 z m 511 1219 l 360 1107 l 208 1219 l 167 1219 l 307 983 l 413 983 l 554 1219 z "},"Ň":{"ha":810,"x_min":0,"x_max":0,"o":"m 442 743 b 68 942 329 939 190 942 l 33 942 l 33 0 l 336 0 l 336 26 b 72 779 336 358 108 204 l 332 322 b 742 0 463 93 742 219 l 776 0 l 776 942 l 474 942 l 474 915 b 733 204 474 590 689 724 b 658 354 715 247 690 294 b 442 743 600 463 514 614 z m 574 1219 l 422 1107 l 271 1219 l 229 1219 l 369 983 l 475 983 l 617 1219 z "},"Ř":{"ha":835,"x_min":0,"x_max":0,"o":"m 356 454 b 517 67 614 454 371 213 b 958 149 663 -79 865 26 l 936 171 b 797 158 893 126 846 110 b 667 418 749 207 764 321 b 568 479 633 450 601 469 b 811 701 715 513 811 586 b 360 951 811 864 619 951 b 32 650 222 951 32 889 l 32 0 l 336 0 l 336 525 b 135 778 336 704 168 696 b 224 869 121 813 131 869 b 453 750 296 869 389 831 b 356 486 582 590 500 486 z m 529 1219 l 378 1107 l 226 1219 l 185 1219 l 325 983 l 431 983 l 572 1219 z "},"č":{"ha":808,"x_min":0,"x_max":0,"o":"m 803 240 b 336 310 674 60 511 32 b 242 689 218 496 156 649 b 569 407 375 751 336 407 b 779 751 750 407 800 599 l 749 751 b 683 651 749 689 735 651 b 421 761 614 651 550 761 b 25 376 203 761 25 603 b 439 -10 25 149 192 -10 b 832 219 650 -10 742 82 z m 549 1028 l 397 915 l 246 1028 l 204 1028 l 344 792 l 450 792 l 592 1028 z "},"ě":{"ha":804,"x_min":0,"x_max":0,"o":"m 351 347 b 439 761 817 461 806 761 b 24 376 190 761 24 603 b 439 -10 24 149 190 -10 b 856 196 650 -10 738 61 b 829 222 847 204 839 214 b 335 310 669 46 496 56 b 317 339 328 319 322 329 z m 319 374 b 299 368 313 371 306 369 b 240 689 207 525 169 643 b 435 603 293 722 378 697 b 319 374 475 538 481 413 z m 579 1028 l 428 915 l 276 1028 l 235 1028 l 375 792 l 481 792 l 622 1028 z "},"ň":{"ha":842,"x_min":0,"x_max":0,"o":"m 603 1028 l 451 915 l 300 1028 l 258 1028 l 399 792 l 504 792 l 646 1028 z m 32 751 l 32 0 l 336 0 l 336 582 b 389 692 338 638 349 679 b 500 393 471 718 543 678 b 535 67 482 271 468 151 b 986 149 653 -81 893 26 l 965 171 b 839 149 921 126 875 117 b 810 385 785 196 793 274 b 481 761 844 601 721 761 b 217 650 374 761 299 669 b 67 751 136 631 67 639 z "},"ř":{"ha":797,"x_min":0,"x_max":0,"o":"m 540 1028 l 389 915 l 238 1028 l 196 1028 l 336 792 l 442 792 l 583 1028 z m 32 751 l 32 0 l 336 0 l 333 611 b 382 692 333 661 346 697 b 601 449 468 679 421 449 b 771 751 719 449 785 521 l 735 751 b 674 661 735 700 719 661 b 449 761 606 661 611 761 b 204 649 333 761 296 665 b 67 751 128 635 67 644 z "},"Ś":{"ha":783,"x_min":0,"x_max":0,"o":"m 25 665 b 354 358 25 482 164 414 b 656 119 589 289 721 178 b 260 343 539 17 467 343 b 32 -1 54 343 11 151 l 63 -1 b 146 99 63 60 76 99 b 443 -10 215 99 306 -10 b 758 283 622 -10 758 128 b 399 593 758 476 515 560 b 122 821 164 658 56 765 b 499 599 244 922 292 599 b 728 943 706 599 747 790 l 696 943 b 613 843 696 882 682 843 b 335 950 544 843 472 950 b 25 665 158 950 25 818 z m 369 983 l 633 1186 l 633 1219 l 407 1219 l 326 983 z "},"Ź":{"ha":867,"x_min":0,"x_max":0,"o":"m 126 564 l 151 588 b 189 697 115 614 119 697 b 519 590 257 697 382 590 b 546 592 528 590 536 590 b 399 539 500 572 451 556 b 99 322 258 494 160 422 b 25 0 49 238 25 133 l 60 0 b 201 139 60 67 106 139 b 574 -10 297 139 368 -10 b 842 214 781 -10 842 143 b 750 378 842 286 801 335 l 725 354 b 689 243 761 328 757 243 b 357 351 619 243 494 351 b 86 214 268 351 156 311 b 408 507 133 360 238 451 b 839 942 651 585 839 672 l 803 942 b 675 803 803 875 772 803 b 303 950 579 803 510 950 b 35 726 96 950 35 799 b 126 564 35 656 76 607 z m 422 983 l 686 1186 l 686 1219 l 460 1219 l 379 983 z "},"Ŕ":{"ha":835,"x_min":0,"x_max":0,"o":"m 356 454 b 517 67 614 454 371 213 b 958 149 663 -79 865 26 l 936 171 b 797 158 893 126 846 110 b 667 418 749 207 764 321 b 568 479 633 450 601 469 b 811 701 715 513 811 586 b 360 951 811 864 619 951 b 32 650 222 951 32 889 l 32 0 l 336 0 l 336 525 b 135 778 336 704 168 696 b 224 869 121 813 131 869 b 453 750 296 869 389 831 b 356 486 582 590 500 486 z m 382 983 l 646 1186 l 646 1219 l 419 1219 l 339 983 z "},"Ĺ":{"ha":797,"x_min":0,"x_max":0,"o":"m 763 365 l 728 367 b 629 243 735 322 699 243 b 344 351 561 243 482 351 b 74 190 249 351 135 306 b 336 507 118 407 336 346 l 336 942 l 32 942 l 32 0 l 67 0 b 181 139 67 67 83 139 b 515 -10 276 139 308 -10 b 763 365 781 -10 789 240 z m 190 983 l 454 1186 l 454 1219 l 228 1219 l 147 983 z "},"Ć":{"ha":938,"x_min":0,"x_max":0,"o":"m 510 983 l 774 1186 l 774 1219 l 547 1219 l 467 983 z m 679 599 b 908 943 886 599 929 790 l 878 943 b 794 843 878 882 863 843 b 496 950 725 843 635 950 b 25 471 236 950 25 736 b 496 -10 25 206 236 -10 b 936 256 681 -10 860 99 l 908 271 b 638 113 857 172 761 82 b 351 381 549 133 443 233 b 263 847 222 589 182 797 b 679 599 403 936 474 599 z "},"Ń":{"ha":810,"x_min":0,"x_max":0,"o":"m 442 743 b 68 942 329 939 190 942 l 33 942 l 33 0 l 336 0 l 336 26 b 72 779 336 358 108 204 l 332 322 b 742 0 463 93 742 219 l 776 0 l 776 942 l 474 942 l 474 915 b 733 204 474 590 689 724 b 658 354 715 247 690 294 b 442 743 600 463 514 614 z m 417 983 l 681 1186 l 681 1219 l 454 1219 l 374 983 z "},"Ů":{"ha":844,"x_min":0,"x_max":0,"o":"m 621 72 b 336 489 385 72 336 235 l 336 942 l 33 942 l 33 363 b 485 -10 33 150 225 -10 b 811 293 622 -10 811 54 l 811 942 l 508 942 l 508 417 b 710 164 508 238 676 247 b 621 72 724 129 714 72 z m 428 1185 b 217 1082 272 1185 217 1151 b 428 978 217 1011 272 978 b 639 1082 583 978 639 1011 b 428 1185 639 1151 583 1185 z m 463 1003 b 392 1065 435 993 413 1017 b 393 1161 371 1114 365 1151 b 464 1097 421 1171 443 1146 b 463 1003 485 1050 490 1013 z "},"ű":{"ha":842,"x_min":0,"x_max":0,"o":"m 460 792 l 779 994 l 779 1028 l 553 1028 l 417 792 z m 361 792 l 481 994 l 481 1028 l 276 1028 l 318 792 z m 808 0 l 808 751 l 504 751 l 504 157 b 451 64 501 110 489 76 b 340 364 369 39 297 78 b 306 690 358 486 372 606 b -146 608 189 838 -53 731 l -125 586 b 1 608 -81 629 -35 640 b 31 372 56 561 49 483 b 360 -6 -4 156 119 -6 b 710 107 497 -6 567 136 b 774 0 747 99 774 69 z "},"ő":{"ha":879,"x_min":0,"x_max":0,"o":"m 510 792 l 829 994 l 829 1028 l 603 1028 l 467 792 z m 411 792 l 531 994 l 531 1028 l 326 1028 l 368 792 z m 440 761 b 25 376 192 761 25 603 b 440 -10 25 149 192 -10 b 854 376 688 -10 854 149 b 440 761 854 603 688 761 z m 638 64 b 336 310 558 14 454 125 b 242 689 218 496 163 638 b 543 442 321 739 425 628 b 638 64 660 257 718 114 z "},"ŕ":{"ha":797,"x_min":0,"x_max":0,"o":"m 289 792 l 553 994 l 553 1028 l 326 1028 l 246 792 z m 32 751 l 32 0 l 336 0 l 333 611 b 382 692 333 661 346 697 b 601 449 468 679 421 449 b 771 751 719 449 785 521 l 735 751 b 674 661 735 700 719 661 b 449 761 606 661 611 761 b 204 649 333 761 296 665 b 67 751 128 635 67 644 z "},"ć":{"ha":808,"x_min":0,"x_max":0,"o":"m 803 240 b 336 310 674 60 511 32 b 242 689 218 496 156 649 b 569 407 375 751 336 407 b 779 751 750 407 800 599 l 749 751 b 683 651 749 689 735 651 b 421 761 614 651 550 761 b 25 376 203 761 25 603 b 439 -10 25 149 192 -10 b 832 219 650 -10 742 82 z m 411 792 l 675 994 l 675 1028 l 449 1028 l 368 792 z "},"ń":{"ha":842,"x_min":0,"x_max":0,"o":"m 429 792 l 693 994 l 693 1028 l 467 1028 l 386 792 z m 32 751 l 32 0 l 336 0 l 336 582 b 389 692 338 638 349 679 b 500 393 471 718 543 678 b 535 67 482 271 468 151 b 986 149 653 -81 893 26 l 965 171 b 839 149 921 126 875 117 b 810 385 785 196 793 274 b 481 761 844 601 721 761 b 217 650 374 761 299 669 b 67 751 136 631 67 639 z "},"ź":{"ha":713,"x_min":0,"x_max":0,"o":"m 115 375 l 140 399 b 197 508 104 425 128 508 b 439 419 267 508 301 419 b 500 425 460 419 481 421 b 372 389 465 408 422 396 b 97 267 233 367 149 329 b 25 18 50 213 26 136 l 25 0 l 61 0 b 169 119 61 67 74 119 b 481 -10 265 119 319 -10 b 610 378 681 -10 764 246 l 585 354 b 528 243 621 328 596 243 b 276 332 458 243 414 332 l 268 332 b 378 356 300 342 336 349 b 689 714 589 389 681 492 b 690 733 689 719 690 726 l 690 751 l 654 751 l 654 736 b 546 632 651 676 635 632 b 244 761 450 632 406 761 b 115 375 44 761 -40 506 z m 372 792 l 636 994 l 636 1028 l 410 1028 l 329 792 z "},"ś":{"ha":682,"x_min":0,"x_max":0,"o":"m 289 792 l 553 994 l 553 1028 l 326 1028 l 246 792 z m 317 568 b 231 726 117 618 149 726 b 493 533 326 726 383 533 b 639 751 613 533 639 685 l 603 751 b 504 689 603 710 557 689 b 231 761 407 689 357 761 b 26 528 119 761 22 647 b 300 257 31 369 169 282 b 517 115 454 228 504 168 b 463 31 528 67 497 33 b 186 260 365 22 367 260 b 35 0 39 260 35 68 l 69 0 b 156 81 69 51 97 81 b 414 -10 251 81 288 -10 b 657 254 589 -10 653 121 b 317 568 663 431 528 514 z "},"ĺ":{"ha":361,"x_min":0,"x_max":0,"o":"m 201 983 l 465 1186 l 465 1219 l 239 1219 l 158 983 z m 28 942 l 28 0 l 332 0 l 332 718 b 63 942 332 899 63 749 z "},"Ő":{"ha":993,"x_min":0,"x_max":0,"o":"m 496 950 b 25 471 236 950 25 736 b 496 -10 25 206 236 -10 b 967 471 757 -10 967 206 b 496 950 967 736 757 950 z m 731 93 b 351 381 651 44 481 172 b 261 847 222 589 182 797 b 640 560 342 897 511 768 b 731 93 771 353 810 143 z m 572 983 l 892 1186 l 892 1219 l 665 1219 l 529 983 z m 474 983 l 593 1186 l 593 1219 l 389 1219 l 431 983 z "},"Ű":{"ha":844,"x_min":0,"x_max":0,"o":"m 621 72 b 336 489 385 72 336 235 l 336 942 l 33 942 l 33 363 b 485 -10 33 150 225 -10 b 811 293 622 -10 811 54 l 811 942 l 508 942 l 508 417 b 710 164 508 238 676 247 b 621 72 724 129 714 72 z m 496 983 l 815 1186 l 815 1219 l 589 1219 l 453 983 z m 397 983 l 517 1186 l 517 1219 l 313 1219 l 354 983 z "},"Đ":{"ha":854,"x_min":0,"x_max":0,"o":"m 360 -10 b 831 471 619 -10 831 206 b 360 951 831 736 619 951 b 32 650 221 951 32 889 l 32 468 l -76 468 l -76 435 l 32 435 l 32 0 l 264 0 b 360 -10 293 -6 329 -10 z m 429 468 l 336 468 l 336 525 b 135 778 336 704 168 696 b 200 853 121 813 129 872 b 504 560 279 831 407 715 b 593 93 633 353 674 143 b 336 219 536 58 435 113 l 336 435 l 429 435 z "},"ľ":{"ha":739,"x_min":0,"x_max":0,"o":"m 475 626 b 449 401 606 592 579 467 l 467 371 b 713 761 643 451 713 582 b 535 950 713 871 642 950 b 357 785 428 950 357 882 b 475 626 357 707 401 646 z m 28 942 l 28 0 l 332 0 l 332 718 b 63 942 332 899 63 749 z "},"ď":{"ha":1254,"x_min":0,"x_max":0,"o":"m 436 -10 b 725 104 549 -10 642 104 b 824 0 772 104 824 100 l 858 0 l 858 718 b 589 942 858 899 589 749 l 554 942 l 554 696 b 397 761 496 743 436 761 b 25 376 239 761 25 603 b 436 -10 25 149 188 -10 z m 519 47 b 303 328 456 14 342 164 b 331 689 265 488 251 638 b 554 615 390 726 478 706 l 554 219 b 519 47 554 128 556 67 z m 990 626 b 964 401 1121 592 1094 467 l 982 371 b 1228 761 1158 451 1228 582 b 1050 950 1228 871 1157 950 b 872 785 943 950 872 882 b 990 626 872 707 917 646 z "},"ť":{"ha":1028,"x_min":0,"x_max":0,"o":"m 425 507 l 425 719 l 632 719 l 632 751 l 425 751 l 425 943 l 392 943 b 122 751 392 851 317 751 l 25 751 l 25 719 l 122 719 l 122 293 b 364 -10 122 54 246 -10 b 561 101 486 -10 493 101 b 625 1 624 101 625 63 l 657 1 b 485 346 676 154 665 346 b 229 178 360 346 325 178 b 163 254 172 178 157 217 b 425 507 176 343 425 328 z m 764 626 b 738 401 894 592 868 467 l 756 371 b 1001 761 932 451 1001 582 b 824 950 1001 871 931 950 b 646 785 717 950 646 882 b 764 626 646 707 690 646 z "},"ţ":{"ha":689,"x_min":0,"x_max":0,"o":"m 425 507 l 425 719 l 632 719 l 632 751 l 425 751 l 425 943 l 392 943 b 122 751 392 851 317 751 l 25 751 l 25 719 l 122 719 l 122 293 b 364 -10 122 54 246 -10 b 561 101 486 -10 493 101 b 625 1 624 101 625 63 l 657 1 b 485 346 676 154 665 346 b 229 178 360 346 325 178 b 163 254 172 178 157 217 b 425 507 176 343 425 328 z m 311 -360 b 285 -585 442 -394 415 -519 l 303 -615 b 549 -225 479 -535 549 -404 b 371 -36 549 -115 478 -36 b 193 -201 264 -36 193 -104 b 311 -360 193 -279 238 -340 z "},"ů":{"ha":842,"x_min":0,"x_max":0,"o":"m 400 1022 b 189 919 244 1022 189 989 b 400 815 189 849 244 815 b 611 919 556 815 611 849 b 400 1022 611 989 556 1022 z m 435 840 b 364 903 407 831 385 854 b 365 999 343 951 338 989 b 436 935 393 1008 415 983 b 435 840 457 888 463 850 z m 808 0 l 808 751 l 504 751 l 504 157 b 451 64 501 110 489 76 b 340 364 369 39 297 78 b 306 690 358 486 372 606 b -146 608 189 838 -53 731 l -125 586 b 1 608 -81 629 -35 640 b 31 372 56 561 49 483 b 360 -6 -4 156 119 -6 b 710 107 497 -6 567 136 b 774 0 747 99 774 69 z "},"Ă":{"ha":936,"x_min":0,"x_max":0,"o":"m 436 0 b 297 254 381 61 328 154 l 504 254 b 510 240 506 249 508 244 b 814 -10 585 29 742 -10 b 1029 94 885 -10 974 17 l 1006 119 b 856 157 961 72 890 78 b 711 629 800 286 771 451 b 236 949 660 785 517 949 l 236 913 b 356 753 299 913 324 853 l 360 736 b 254 594 324 692 285 642 b 25 0 161 453 25 200 z m 493 288 l 289 288 b 322 626 258 406 260 532 b 372 697 339 651 356 674 b 493 288 413 567 451 415 z m 543 1201 b 403 1100 543 1136 517 1100 b 264 1201 290 1100 264 1136 l 240 1201 b 403 989 240 1056 274 989 b 567 1201 533 989 567 1056 z "},"ă":{"ha":865,"x_min":0,"x_max":0,"o":"m 506 761 b 172 661 346 761 258 661 b 110 751 125 661 110 700 l 74 751 b 224 449 49 521 106 449 b 432 718 406 449 342 692 b 529 431 519 743 563 682 b 411 436 493 435 454 436 b 25 215 151 436 25 360 b 385 -6 25 72 138 -6 b 546 85 501 -6 538 32 b 560 67 550 79 554 72 b 1011 149 678 -81 918 26 l 990 171 b 864 149 946 126 900 117 b 835 385 810 196 818 274 b 506 761 869 601 746 761 z m 510 243 b 488 47 510 158 521 63 b 324 188 433 21 374 61 b 346 388 285 283 292 361 b 525 399 386 407 454 408 l 525 393 b 510 243 517 342 511 290 z m 622 1028 b 482 926 622 963 596 926 b 343 1028 369 926 343 963 l 319 1028 b 482 815 319 882 353 815 b 646 1028 613 815 646 882 z "},"ş":{"ha":682,"x_min":0,"x_max":0,"o":"m 317 568 b 231 726 117 618 149 726 b 493 533 326 726 383 533 b 639 751 613 533 639 685 l 603 751 b 504 689 603 710 557 689 b 231 761 407 689 357 761 b 26 528 119 761 22 647 b 300 257 31 369 169 282 b 517 115 454 228 504 168 b 463 31 528 67 497 33 b 186 260 365 22 367 260 b 35 0 39 260 35 68 l 69 0 b 156 81 69 51 97 81 b 260 43 197 81 228 63 b 181 -153 235 -14 181 -47 l 210 -153 b 268 -122 221 -140 246 -125 b 378 -192 314 -118 347 -140 b 326 -350 429 -278 424 -351 b 153 -292 250 -349 153 -292 l 140 -314 b 357 -379 140 -314 235 -379 b 621 -221 544 -379 621 -303 b 361 -78 621 -139 536 -74 b 213 -119 288 -78 236 -103 b 283 28 222 -54 261 -19 b 414 -10 318 8 357 -10 b 657 254 589 -10 653 121 b 317 568 663 431 528 514 z "},"Ş":{"ha":783,"x_min":0,"x_max":0,"o":"m 25 665 b 354 358 25 482 164 414 b 656 119 589 289 721 178 b 260 343 539 17 467 343 b 32 -1 54 343 11 151 l 63 -1 b 146 99 63 60 76 99 b 361 3 200 99 268 31 b 306 -153 336 -35 306 -74 l 335 -153 b 393 -122 346 -140 371 -125 b 503 -192 439 -118 472 -140 b 451 -350 554 -278 549 -351 b 278 -292 375 -349 278 -292 l 265 -314 b 482 -379 265 -314 360 -379 b 746 -221 669 -379 746 -303 b 486 -78 746 -139 661 -74 b 338 -119 413 -78 361 -103 b 390 -4 344 -71 368 -37 b 443 -10 407 -8 425 -10 b 758 283 622 -10 758 128 b 399 593 758 476 515 560 b 122 821 164 658 56 765 b 499 599 244 922 292 599 b 728 943 706 599 747 790 l 696 943 b 613 843 696 882 682 843 b 335 950 544 843 472 950 b 25 665 158 950 25 818 z "},"ą":{"ha":865,"x_min":0,"x_max":0,"o":"m 890 -311 b 769 -353 890 -311 813 -347 b 660 -282 725 -357 690 -333 b 713 -125 610 -197 615 -124 b 822 -153 758 -125 822 -153 l 822 -151 l 851 -151 b 835 385 865 38 781 14 b 506 761 867 601 746 761 b 172 661 346 761 258 661 b 110 751 125 661 110 700 l 74 751 b 224 449 49 521 106 449 b 433 718 406 449 342 692 b 529 431 519 743 563 682 b 410 436 493 435 453 436 b 25 215 150 436 25 360 b 385 -6 25 72 136 -6 b 546 85 501 -6 538 32 b 560 67 550 79 554 72 b 815 -119 649 -43 788 -3 b 681 -94 790 -110 742 -94 b 418 -254 494 -94 418 -171 b 678 -397 418 -336 503 -400 b 900 -335 785 -394 900 -335 z m 510 243 b 488 47 510 158 521 63 b 324 188 433 21 374 61 b 346 388 285 283 290 361 b 525 399 385 407 453 408 l 525 393 b 510 243 517 342 511 290 z "},"Ą":{"ha":936,"x_min":0,"x_max":0,"o":"m 1029 94 l 1006 119 b 856 157 961 72 890 78 b 711 629 800 286 771 451 b 236 949 660 785 517 949 l 236 913 b 356 753 299 913 324 853 l 360 736 b 254 594 324 692 285 642 b 25 0 161 453 25 200 l 436 0 b 297 254 381 61 328 154 l 504 254 b 510 240 506 249 508 244 b 788 -8 576 51 708 0 b 839 -121 808 -40 831 -74 b 701 -94 814 -110 763 -94 b 438 -254 514 -94 438 -171 b 697 -397 438 -336 522 -400 b 919 -335 804 -394 919 -335 l 910 -311 b 790 -353 910 -311 832 -347 b 681 -282 744 -357 711 -333 b 732 -125 629 -197 635 -124 b 842 -153 778 -125 842 -153 l 871 -153 b 822 -10 871 -82 846 -44 b 1029 94 892 -7 975 19 z m 493 288 l 289 288 b 322 626 258 406 260 532 b 372 697 339 651 356 674 b 493 288 413 567 451 415 z "},"Ę":{"ha":792,"x_min":0,"x_max":0,"o":"m 801 163 b 344 201 681 35 454 -15 b 450 471 260 367 306 471 l 578 471 l 601 507 l 421 507 b 157 829 111 507 63 772 b 531 599 299 915 325 599 b 760 943 738 599 781 790 l 729 943 b 646 843 729 882 714 843 b 343 950 576 843 481 950 b 308 483 -49 950 7 563 b 25 249 144 454 25 383 b 417 -10 25 103 172 -3 b 468 -121 438 -42 460 -74 b 331 -94 443 -110 392 -94 b 67 -254 143 -94 67 -171 b 326 -397 67 -336 151 -400 b 549 -335 433 -394 549 -335 l 539 -311 b 419 -353 539 -311 461 -347 b 310 -282 374 -357 340 -333 b 361 -125 258 -197 264 -124 b 471 -153 407 -125 471 -153 l 500 -153 b 451 -10 500 -82 475 -44 b 817 146 635 -8 735 54 z "},"ę":{"ha":732,"x_min":0,"x_max":0,"o":"m 551 -153 b 501 -7 551 -81 526 -43 b 856 196 668 6 750 75 b 829 222 847 204 839 214 b 335 310 669 46 496 56 b 317 339 328 319 322 329 l 351 347 b 439 761 817 461 806 761 b 24 376 190 761 24 603 b 439 -10 24 149 190 -10 b 468 -8 449 -10 458 -8 b 519 -121 489 -42 511 -74 b 382 -94 494 -110 443 -94 b 118 -254 194 -94 118 -171 b 378 -397 118 -336 203 -400 b 600 -335 485 -394 600 -335 l 590 -311 b 471 -353 590 -311 513 -347 b 361 -282 425 -357 392 -333 b 413 -125 310 -197 315 -124 b 522 -153 458 -125 522 -153 z m 319 374 b 299 368 313 371 306 369 b 240 689 207 525 169 643 b 435 603 293 722 378 697 b 319 374 475 538 481 413 z "},"Ż":{"ha":867,"x_min":0,"x_max":0,"o":"m 126 564 l 151 588 b 189 697 115 614 119 697 b 519 590 257 697 382 590 b 546 592 528 590 536 590 b 399 539 500 572 451 556 b 99 322 258 494 160 422 b 25 0 49 238 25 133 l 60 0 b 201 139 60 67 106 139 b 574 -10 297 139 368 -10 b 842 214 781 -10 842 143 b 750 378 842 286 801 335 l 725 354 b 689 243 761 328 757 243 b 357 351 619 243 494 351 b 86 214 268 351 156 311 b 408 507 133 360 238 451 b 839 942 651 585 839 672 l 803 942 b 675 803 803 875 772 803 b 303 950 579 803 510 950 b 35 726 96 950 35 799 b 126 564 35 656 76 607 z m 571 1083 b 465 1183 571 1139 524 1183 b 360 1083 407 1183 360 1139 b 465 983 360 1028 407 983 b 571 1083 524 983 571 1028 z "},"ż":{"ha":713,"x_min":0,"x_max":0,"o":"m 115 375 l 140 399 b 197 508 104 425 128 508 b 439 419 267 508 301 419 b 500 425 460 419 481 421 b 372 389 465 408 422 396 b 97 267 233 367 149 329 b 25 38 53 215 29 144 l 25 0 l 61 0 l 61 14 b 169 119 63 74 81 119 b 481 -10 265 119 319 -10 b 610 378 681 -10 764 246 l 585 354 b 528 243 621 328 596 243 b 276 332 458 243 414 332 l 268 332 b 378 356 300 342 336 349 b 689 714 589 389 681 492 b 690 733 689 719 690 726 l 690 751 l 654 751 l 654 736 b 546 632 651 676 635 632 b 244 761 450 632 406 761 b 115 375 44 761 -40 506 z m 474 883 b 368 983 474 939 426 983 b 263 883 310 983 263 939 b 368 783 263 828 310 783 b 474 883 426 783 474 828 z "},"đ":{"ha":890,"x_min":0,"x_max":0,"o":"m 436 -10 b 725 104 549 -10 642 104 b 824 0 772 104 824 100 l 858 0 l 858 718 b 824 797 858 758 844 782 l 960 797 l 960 831 l 688 831 b 589 942 635 840 589 863 l 554 942 l 554 831 l 454 831 l 454 797 l 554 797 l 554 696 b 397 761 496 743 436 761 b 25 376 239 761 25 603 b 436 -10 25 149 188 -10 z m 519 47 b 303 328 456 14 342 164 b 331 689 265 488 251 638 b 554 615 390 726 478 706 l 554 219 b 519 47 554 128 556 67 z "},"­":{"ha":593,"x_min":0,"x_max":0,"o":"m 560 493 l 32 493 l 32 439 l 560 439 z "},"Ĉ":{"ha":938,"x_min":0,"x_max":0,"o":"m 318 983 l 469 1096 l 621 983 l 663 983 l 522 1219 l 417 1219 l 275 983 z m 679 599 b 908 943 886 599 929 790 l 878 943 b 794 843 878 882 863 843 b 496 950 725 843 635 950 b 25 471 236 950 25 736 b 496 -10 25 206 236 -10 b 936 256 681 -10 860 99 l 908 271 b 638 113 857 172 761 82 b 351 381 549 133 443 233 b 263 847 222 589 182 797 b 679 599 403 936 474 599 z "},"ĥ":{"ha":839,"x_min":0,"x_max":0,"o":"m 300 942 b 32 718 300 749 32 899 l 32 0 l 336 0 l 336 582 b 389 692 338 638 349 679 b 500 393 471 718 543 678 b 535 67 482 271 468 151 b 986 149 651 -81 893 26 l 964 171 b 839 149 921 126 875 117 b 810 385 785 196 792 274 b 481 761 844 601 719 761 b 336 713 424 761 379 738 l 336 942 z m 29 983 l 181 1096 l 332 983 l 374 983 l 233 1219 l 128 1219 l -14 983 z "},"Ĵ":{"ha":800,"x_min":0,"x_max":0,"o":"m 464 983 l 615 1096 l 767 983 l 808 983 l 668 1219 l 563 1219 l 421 983 z m 464 507 b 726 253 464 328 713 342 b 660 176 732 215 726 176 b 258 344 564 176 465 344 b 29 0 51 344 10 153 l 61 0 b 144 100 61 61 75 100 b 440 -10 213 100 303 -10 b 768 293 578 -10 768 54 l 768 942 l 464 942 z "},"Ĥ":{"ha":849,"x_min":0,"x_max":0,"o":"m 336 0 l 336 493 b 421 476 363 499 389 492 b 514 442 453 460 483 446 l 514 0 l 818 0 l 818 942 l 514 942 l 514 474 b 436 506 492 478 467 490 b 336 526 410 519 375 532 l 336 942 l 32 942 l 32 0 z m 274 983 l 425 1096 l 576 983 l 618 983 l 478 1219 l 372 1219 l 231 983 z "},"Ĝ":{"ha":978,"x_min":0,"x_max":0,"o":"m 944 582 l 910 582 b 700 432 910 582 888 439 l 517 432 l 517 399 l 640 399 l 640 375 b 743 85 640 224 818 129 b 351 381 644 26 475 181 b 261 847 222 589 182 797 b 679 599 401 936 472 599 b 908 943 886 599 928 790 l 876 943 b 793 843 876 882 863 843 b 496 950 725 843 633 950 b 25 471 236 950 25 736 b 496 -10 25 206 236 -10 b 944 211 681 -10 829 79 z m 344 983 l 496 1096 l 647 983 l 689 983 l 549 1219 l 443 1219 l 301 983 z "},"Ŝ":{"ha":783,"x_min":0,"x_max":0,"o":"m 25 665 b 354 358 25 482 164 414 b 656 119 589 289 721 178 b 260 343 539 17 467 343 b 32 -1 54 343 11 151 l 63 -1 b 146 99 63 60 76 99 b 443 -10 215 99 306 -10 b 758 283 622 -10 758 128 b 399 593 758 476 515 560 b 122 821 164 658 56 765 b 499 599 244 922 292 599 b 728 943 706 599 747 790 l 696 943 b 613 843 696 882 682 843 b 335 950 544 843 472 950 b 25 665 158 950 25 818 z m 226 983 l 378 1096 l 529 983 l 571 983 l 431 1219 l 325 1219 l 183 983 z "},"Ğ":{"ha":978,"x_min":0,"x_max":0,"o":"m 944 582 l 910 582 b 686 432 910 582 888 432 l 517 432 l 517 399 l 640 399 l 640 375 b 743 85 640 224 818 129 b 351 381 644 26 475 181 b 261 847 222 589 182 797 b 679 599 401 936 472 599 b 908 943 886 599 928 790 l 876 943 b 793 843 876 882 863 843 b 496 950 725 843 633 950 b 25 471 236 950 25 736 b 496 -10 25 206 236 -10 b 944 211 681 -10 829 79 z m 622 1201 b 482 1100 622 1136 596 1100 b 343 1201 369 1100 343 1136 l 319 1201 b 482 989 319 1056 353 989 b 646 1201 613 989 646 1056 z "},"Ŭ":{"ha":844,"x_min":0,"x_max":0,"o":"m 621 72 b 336 489 385 72 336 235 l 336 942 l 33 942 l 33 363 b 485 -10 33 150 225 -10 b 811 293 622 -10 811 54 l 811 942 l 508 942 l 508 417 b 710 164 508 238 676 247 b 621 72 724 129 714 72 z m 563 1201 b 422 1100 563 1136 536 1100 b 283 1201 310 1100 283 1136 l 260 1201 b 422 989 260 1056 293 989 b 586 1201 553 989 586 1056 z "},"Ċ":{"ha":938,"x_min":0,"x_max":0,"o":"m 597 1083 b 490 1183 597 1139 550 1183 b 385 1083 432 1183 385 1139 b 490 983 385 1028 432 983 b 597 1083 550 983 597 1028 z m 679 599 b 908 943 886 599 929 790 l 878 943 b 794 843 878 882 863 843 b 496 950 725 843 635 950 b 25 471 236 950 25 736 b 496 -10 25 206 236 -10 b 936 256 681 -10 860 99 l 908 271 b 638 113 857 172 761 82 b 351 381 549 133 443 233 b 263 847 222 589 182 797 b 679 599 403 936 474 599 z "},"İ":{"ha":367,"x_min":0,"x_max":0,"o":"m 290 1083 b 185 1183 290 1139 243 1183 b 79 1083 126 1183 79 1139 b 185 983 79 1028 126 983 b 290 1083 243 983 290 1028 z m 336 0 l 336 942 l 32 942 l 32 0 z "},"Ġ":{"ha":978,"x_min":0,"x_max":0,"o":"m 944 582 l 910 582 b 686 432 910 582 888 432 l 517 432 l 517 399 l 640 399 l 640 375 b 743 85 640 224 818 129 b 351 381 644 26 475 181 b 261 847 222 589 182 797 b 679 599 401 936 472 599 b 908 943 886 599 928 790 l 876 943 b 793 843 876 882 863 843 b 496 950 725 843 633 950 b 25 471 236 950 25 736 b 496 -10 25 206 236 -10 b 944 211 681 -10 829 79 z m 606 1083 b 500 1183 606 1139 558 1183 b 394 1083 442 1183 394 1139 b 500 983 394 1028 442 983 b 606 1083 558 983 606 1028 z "},"ġ":{"ha":888,"x_min":0,"x_max":0,"o":"m 529 883 b 424 983 529 939 482 983 b 318 883 365 983 318 939 b 424 783 318 828 365 783 b 529 883 482 783 529 828 z m 864 -121 b 785 -192 861 -164 842 -192 b 265 -25 689 -192 497 -25 b 46 -368 85 -25 25 -217 l 78 -368 b 160 -269 78 -307 99 -269 b 632 -379 328 -269 494 -379 b 907 -126 769 -379 907 -281 b 485 207 907 75 733 264 b 228 182 360 178 228 115 b 424 246 228 244 363 246 l 443 246 b 863 504 703 246 863 336 b 807 650 863 560 843 614 b 915 728 767 701 807 751 l 915 758 b 697 721 813 883 665 821 b 443 761 629 747 544 761 b 24 504 183 761 24 672 b 271 261 24 376 115 294 b 194 168 225 246 194 218 b 535 -40 194 61 350 -24 b 864 -121 713 -57 872 -18 z m 576 292 b 360 439 515 261 456 288 b 310 717 278 571 247 686 b 526 568 372 746 432 719 b 576 292 608 438 639 322 z "},"ċ":{"ha":808,"x_min":0,"x_max":0,"o":"m 803 240 b 336 310 674 60 511 32 b 242 689 218 496 156 649 b 569 407 375 751 336 407 b 779 751 750 407 800 599 l 749 751 b 683 651 749 689 735 651 b 421 761 614 651 550 761 b 25 376 203 761 25 603 b 439 -10 25 149 192 -10 b 832 219 650 -10 742 82 z m 474 883 b 368 983 474 939 426 983 b 263 883 310 983 263 939 b 368 783 263 828 310 783 b 474 883 426 783 474 828 z "},"ŝ":{"ha":682,"x_min":0,"x_max":0,"o":"m 157 792 l 308 904 l 460 792 l 501 792 l 361 1028 l 256 1028 l 114 792 z m 317 568 b 231 726 117 618 149 726 b 493 533 326 726 383 533 b 639 751 613 533 639 685 l 603 751 b 504 689 603 710 557 689 b 231 761 407 689 357 761 b 26 528 119 761 22 647 b 300 257 31 369 169 282 b 517 115 454 228 504 168 b 463 31 528 67 497 33 b 186 260 365 22 367 260 b 35 0 39 260 35 68 l 69 0 b 156 81 69 51 97 81 b 414 -10 251 81 288 -10 b 657 254 589 -10 653 121 b 317 568 663 431 528 514 z "},"ĝ":{"ha":888,"x_min":0,"x_max":0,"o":"m 290 792 l 442 904 l 593 792 l 635 792 l 494 1028 l 389 1028 l 247 792 z m 864 -121 b 785 -192 861 -164 842 -192 b 265 -25 689 -192 497 -25 b 46 -368 85 -25 25 -217 l 78 -368 b 160 -269 78 -307 99 -269 b 632 -379 328 -269 494 -379 b 907 -126 769 -379 907 -281 b 485 207 907 75 733 264 b 228 182 360 178 228 115 b 424 246 228 244 363 246 l 443 246 b 863 504 703 246 863 336 b 807 650 863 560 843 614 b 915 728 767 701 807 751 l 915 758 b 697 721 813 883 665 821 b 443 761 629 747 544 761 b 24 504 183 761 24 672 b 271 261 24 376 115 294 b 194 168 225 246 194 218 b 535 -40 194 61 350 -24 b 864 -121 713 -57 872 -18 z m 576 292 b 360 439 515 261 456 288 b 310 717 278 571 247 686 b 526 568 372 746 432 719 b 576 292 608 438 639 322 z "},"ĉ":{"ha":808,"x_min":0,"x_max":0,"o":"m 803 240 b 336 310 674 60 511 32 b 242 689 218 496 156 649 b 569 407 375 751 336 407 b 779 751 750 407 800 599 l 749 751 b 683 651 749 689 735 651 b 421 761 614 651 550 761 b 25 376 203 761 25 603 b 439 -10 25 149 192 -10 b 832 219 650 -10 742 82 z m 257 792 l 408 904 l 560 792 l 601 792 l 461 1028 l 356 1028 l 214 792 z "},"ĵ":{"ha":367,"x_min":0,"x_max":0,"o":"m 32 751 l 32 138 b 294 -115 32 -42 281 -26 b 228 -192 300 -153 286 -192 b -56 -25 132 -192 122 -25 b -265 -368 -236 -25 -286 -217 l -233 -368 b -161 -269 -233 -307 -222 -269 b 75 -379 -92 -269 -62 -379 b 336 -76 213 -379 336 -315 l 336 478 l 336 485 l 336 528 b 67 751 336 708 67 558 z m 31 792 l 182 904 l 333 792 l 375 792 l 235 1028 l 129 1028 l -12 792 z "},"ŭ":{"ha":842,"x_min":0,"x_max":0,"o":"m 556 1028 b 415 926 556 963 529 926 b 276 1028 303 926 276 963 l 253 1028 b 415 815 253 882 286 815 b 579 1028 546 815 579 882 z m 808 0 l 808 751 l 504 751 l 504 157 b 451 64 501 110 489 76 b 340 364 369 39 297 78 b 306 690 358 486 372 606 b -146 608 189 838 -53 731 l -125 586 b 1 608 -81 629 -35 640 b 31 372 56 561 49 483 b 360 -6 -4 156 119 -6 b 710 107 497 -6 567 136 b 774 0 747 99 774 69 z "},"ğ":{"ha":888,"x_min":0,"x_max":0,"o":"m 581 1028 b 440 926 581 963 554 926 b 301 1028 328 926 301 963 l 278 1028 b 440 815 278 882 311 815 b 604 1028 571 815 604 882 z m 864 -121 b 785 -192 861 -164 842 -192 b 265 -25 689 -192 497 -25 b 46 -368 85 -25 25 -217 l 78 -368 b 160 -269 78 -307 99 -269 b 632 -379 328 -269 494 -379 b 907 -126 769 -379 907 -281 b 485 207 907 75 733 264 b 228 182 360 178 228 115 b 424 246 228 244 363 246 l 443 246 b 863 504 703 246 863 336 b 807 650 863 560 843 614 b 915 728 767 701 807 751 l 915 758 b 697 721 813 883 665 821 b 443 761 629 747 544 761 b 24 504 183 761 24 672 b 271 261 24 376 115 294 b 194 168 225 246 194 218 b 535 -40 194 61 350 -24 b 864 -121 713 -57 872 -18 z m 576 292 b 360 439 515 261 456 288 b 310 717 278 571 247 686 b 526 568 372 746 432 719 b 576 292 608 438 639 322 z "},"ħ":{"ha":839,"x_min":0,"x_max":0,"o":"m 300 942 b 201 831 300 863 254 840 l -64 831 l -64 797 l 67 797 b 32 718 46 782 32 758 l 32 0 l 336 0 l 336 582 b 389 692 338 638 349 679 b 500 393 471 718 543 678 b 535 67 482 271 468 151 b 986 149 651 -81 893 26 l 964 171 b 839 149 921 126 875 117 b 810 385 785 196 792 274 b 481 761 844 601 719 761 b 336 713 424 761 379 738 l 336 797 l 442 797 l 442 831 l 336 831 l 336 942 z "},"Ħ":{"ha":849,"x_min":0,"x_max":0,"o":"m 336 0 l 336 493 b 421 476 363 499 389 492 b 514 442 453 460 483 446 l 514 0 l 818 0 l 818 740 l 876 740 l 876 774 l 818 774 l 818 942 l 514 942 l 514 774 l 336 774 l 336 942 l 32 942 l 32 774 l -28 774 l -28 740 l 32 740 l 32 0 z m 436 506 b 336 526 410 519 375 532 l 336 740 l 514 740 l 514 474 b 436 506 492 478 467 490 z "},"ķ":{"ha":844,"x_min":0,"x_max":0,"o":"m 385 358 b 190 33 385 181 324 33 b 147 244 6 33 53 208 b 336 496 221 274 336 311 l 336 718 b 67 942 336 899 67 749 l 32 942 l 32 0 l 190 0 b 418 353 363 0 418 167 b 419 389 418 365 418 378 b 471 63 558 335 383 171 b 901 149 579 -72 796 10 l 879 171 b 711 215 810 100 761 96 b 426 421 657 343 550 372 b 481 461 435 444 451 461 b 664 388 550 461 574 388 b 818 751 776 388 818 496 l 782 751 b 731 646 782 697 768 646 b 522 761 679 646 647 772 b 385 358 396 751 385 578 z m 340 -360 b 314 -585 471 -394 444 -519 l 332 -615 b 578 -225 508 -535 578 -404 b 400 -36 578 -115 507 -36 b 222 -201 293 -36 222 -104 b 340 -360 222 -279 267 -340 z "},"ņ":{"ha":842,"x_min":0,"x_max":0,"o":"m 365 -360 b 339 -585 496 -394 469 -519 l 357 -615 b 603 -225 533 -535 603 -404 b 425 -36 603 -115 532 -36 b 247 -201 318 -36 247 -104 b 365 -360 247 -279 292 -340 z m 32 751 l 32 0 l 336 0 l 336 582 b 389 692 338 638 349 679 b 500 393 471 718 543 678 b 535 67 482 271 468 151 b 986 149 653 -81 893 26 l 965 171 b 839 149 921 126 875 117 b 810 385 785 196 793 274 b 481 761 844 601 721 761 b 217 650 374 761 299 669 b 67 751 136 631 67 639 z "},"Ķ":{"ha":975,"x_min":0,"x_max":0,"o":"m 432 494 b 214 33 433 238 397 33 b 147 244 4 33 53 208 b 336 496 221 274 336 311 l 336 942 l 32 942 l 32 0 l 214 0 b 465 469 418 0 463 208 b 596 67 718 467 450 211 b 1039 149 742 -79 946 26 l 1017 171 b 878 158 974 126 926 110 b 765 418 829 207 839 331 b 465 501 689 508 582 501 l 465 528 b 553 650 465 574 485 650 b 750 576 622 650 638 576 b 950 940 888 576 950 685 l 915 940 b 854 835 915 886 890 835 b 642 950 778 835 765 950 b 432 533 435 950 432 753 z m 426 -360 b 400 -585 557 -394 531 -519 l 418 -615 b 664 -225 594 -535 664 -404 b 486 -36 664 -115 593 -36 b 308 -201 379 -36 308 -104 b 426 -360 308 -279 353 -340 z "},"Ņ":{"ha":810,"x_min":0,"x_max":0,"o":"m 442 743 b 33 942 319 958 163 942 l 33 0 l 336 0 l 336 26 b 72 779 336 358 108 204 l 332 322 b 742 0 463 93 742 219 l 776 0 l 776 942 l 474 942 l 474 915 b 733 204 474 590 689 724 b 658 354 715 247 690 294 b 442 743 600 463 514 614 z m 364 -360 b 338 -585 494 -394 468 -519 l 356 -615 b 601 -225 532 -535 601 -404 b 424 -36 601 -115 531 -36 b 246 -201 317 -36 246 -104 b 364 -360 246 -279 290 -340 z "},"ļ":{"ha":361,"x_min":0,"x_max":0,"o":"m 122 -360 b 96 -585 253 -394 226 -519 l 114 -615 b 360 -225 290 -535 360 -404 b 182 -36 360 -115 289 -36 b 4 -201 75 -36 4 -104 b 122 -360 4 -279 49 -340 z m 28 942 l 28 0 l 332 0 l 332 718 b 63 942 332 899 63 749 z "},"ŗ":{"ha":797,"x_min":0,"x_max":0,"o":"m 126 -360 b 100 -585 257 -394 231 -519 l 118 -615 b 364 -225 294 -535 364 -404 b 186 -36 364 -115 293 -36 b 8 -201 79 -36 8 -104 b 126 -360 8 -279 53 -340 z m 32 751 l 32 0 l 336 0 l 333 611 b 382 692 333 661 346 697 b 601 449 468 679 421 449 b 771 751 719 449 785 521 l 735 751 b 674 661 735 700 719 661 b 449 761 606 661 611 761 b 204 649 333 761 296 665 b 67 751 128 635 67 644 z "},"Ģ":{"ha":978,"x_min":0,"x_max":0,"o":"m 849 792 l 904 792 b 908 943 914 840 914 893 l 876 943 b 793 843 876 882 863 843 b 496 950 725 843 633 950 b 25 471 236 950 25 736 b 496 -10 25 206 236 -10 b 944 211 681 -10 829 79 l 944 582 l 910 582 b 686 432 910 582 888 432 l 517 432 l 517 399 l 640 399 l 640 375 b 743 85 640 224 818 129 b 351 381 644 26 475 181 b 261 847 222 589 182 797 b 679 599 401 936 472 599 b 857 679 764 599 819 631 l 849 679 z m 439 -360 b 413 -585 569 -394 543 -519 l 431 -615 b 676 -225 607 -535 676 -404 b 499 -36 676 -115 606 -36 b 321 -201 392 -36 321 -104 b 439 -360 321 -279 365 -340 z m 857 679 l 978 679 l 978 792 l 904 792 b 857 679 896 750 881 711 z "},"Ļ":{"ha":797,"x_min":0,"x_max":0,"o":"m 763 365 l 728 367 b 629 243 735 322 699 243 b 344 351 561 243 482 351 b 74 190 249 351 135 306 b 336 507 118 407 336 346 l 336 942 l 32 942 l 32 0 l 67 0 b 181 139 67 67 83 139 b 515 -10 276 139 308 -10 b 763 365 781 -10 789 240 z m 296 -360 b 269 -585 426 -394 400 -519 l 288 -615 b 533 -225 464 -535 533 -404 b 356 -36 533 -115 463 -36 b 178 -201 249 -36 178 -104 b 296 -360 178 -279 222 -340 z "},"Ŗ":{"ha":835,"x_min":0,"x_max":0,"o":"m 356 454 b 517 67 614 454 371 213 b 958 149 663 -79 865 26 l 936 171 b 797 158 893 126 846 110 b 667 418 749 207 764 321 b 568 479 633 450 601 469 b 811 701 715 513 811 586 b 360 951 811 864 619 951 b 32 650 222 951 32 889 l 32 0 l 336 0 l 336 525 b 135 778 336 704 168 696 b 224 869 121 813 131 869 b 453 750 296 869 389 831 b 356 486 582 590 500 486 z m 386 -360 b 360 -585 517 -394 490 -519 l 378 -615 b 624 -225 554 -535 624 -404 b 446 -36 624 -115 553 -36 b 268 -201 339 -36 268 -104 b 386 -360 268 -279 313 -340 z "},"ģ":{"ha":888,"x_min":0,"x_max":0,"o":"m 864 -121 b 785 -192 861 -164 842 -192 b 265 -25 689 -192 497 -25 b 46 -368 85 -25 25 -217 l 78 -368 b 160 -269 78 -307 99 -269 b 632 -379 328 -269 494 -379 b 907 -126 769 -379 907 -281 b 485 207 907 75 733 264 b 228 182 360 178 228 115 b 433 246 228 247 378 246 l 443 246 b 863 504 703 246 863 336 b 807 650 863 563 843 611 b 915 728 765 700 806 751 l 915 758 b 697 721 813 883 665 821 b 443 761 629 747 544 761 b 24 504 183 761 24 672 b 271 261 24 376 115 294 b 194 168 225 246 194 218 b 535 -40 194 61 350 -24 b 864 -121 713 -57 872 -18 z m 504 1099 b 531 1324 374 1133 400 1258 l 513 1354 b 267 964 336 1274 267 1143 b 444 775 267 854 338 775 b 622 940 551 775 622 843 b 504 1099 622 1018 578 1079 z m 576 292 b 360 439 515 261 456 288 b 310 717 278 571 247 686 b 526 568 372 746 432 719 b 576 292 608 438 639 321 z "},"į":{"ha":367,"x_min":0,"x_max":0,"o":"m 32 0 l 247 0 b 304 -121 268 -36 296 -69 b 167 -94 279 -110 228 -94 b -97 -254 -21 -94 -97 -171 b 163 -397 -97 -336 -12 -400 b 385 -335 269 -394 385 -335 l 375 -311 b 256 -353 375 -311 297 -347 b 146 -282 210 -357 176 -333 b 197 -125 94 -197 100 -124 b 307 -153 243 -125 307 -153 l 336 -153 b 282 0 336 -76 307 -37 l 336 0 l 336 478 b 179 588 336 576 253 576 b 32 653 100 600 54 624 z m 363 786 b 185 953 363 885 292 953 b 7 786 78 953 7 885 b 185 621 7 689 78 621 b 363 786 292 621 363 689 z "},"ĩ":{"ha":367,"x_min":0,"x_max":0,"o":"m 89 1003 b -40 813 -1 1003 -40 947 l -8 813 b 58 888 -8 861 7 885 b 290 822 144 893 206 822 b 410 1013 371 822 410 879 l 383 1013 b 325 938 383 964 369 943 b 89 1003 254 928 188 1003 z m 32 751 l 32 0 l 336 0 l 336 528 b 67 751 336 708 67 558 z "},"ī":{"ha":367,"x_min":0,"x_max":0,"o":"m 356 911 l 8 911 l 8 850 l 356 850 z m 32 751 l 32 0 l 336 0 l 336 528 b 67 751 336 708 67 558 z "},"ū":{"ha":842,"x_min":0,"x_max":0,"o":"m 553 911 l 206 911 l 206 850 l 553 850 z m 808 0 l 808 751 l 504 751 l 504 157 b 451 64 501 110 489 76 b 340 364 369 39 297 78 b 306 690 358 486 372 606 b -146 608 189 838 -53 731 l -125 586 b 1 608 -81 629 -35 640 b 31 372 56 561 49 483 b 360 -6 -4 156 119 -6 b 710 107 497 -6 567 136 b 774 0 747 99 774 69 z "},"ō":{"ha":879,"x_min":0,"x_max":0,"o":"m 610 911 l 263 911 l 263 850 l 610 850 z m 440 761 b 25 376 192 761 25 603 b 440 -10 25 149 192 -10 b 854 376 688 -10 854 149 b 440 761 854 603 688 761 z m 638 64 b 336 310 558 14 454 125 b 242 689 218 496 163 638 b 543 442 321 739 425 628 b 638 64 660 257 718 114 z "},"ā":{"ha":865,"x_min":0,"x_max":0,"o":"m 506 761 b 172 661 346 761 258 661 b 110 751 125 661 110 700 l 75 751 b 224 449 49 521 106 449 b 433 718 406 449 342 692 b 529 431 519 743 563 682 b 411 436 493 435 454 436 b 25 215 151 436 25 360 b 385 -6 25 72 138 -6 b 546 85 501 -6 538 32 b 560 67 550 79 554 72 b 1013 149 678 -81 918 26 l 990 171 b 864 149 947 126 900 117 b 835 385 810 196 818 274 b 506 761 869 601 746 761 z m 510 243 b 489 47 510 158 521 63 b 324 188 433 21 374 61 b 346 388 286 283 292 361 b 525 399 386 407 454 408 l 525 393 b 510 243 517 342 511 290 z m 664 911 l 317 911 l 317 850 l 664 850 z "},"ē":{"ha":732,"x_min":0,"x_max":0,"o":"m 351 347 b 439 761 817 461 806 761 b 24 376 190 761 24 603 b 439 -10 24 149 190 -10 b 856 196 650 -10 738 61 b 829 222 847 204 839 214 b 335 310 669 46 496 56 b 317 339 328 319 322 329 z m 319 374 b 299 368 313 371 306 369 b 240 689 207 525 169 643 b 435 603 293 722 378 697 b 319 374 475 538 481 413 z m 581 911 l 233 911 l 233 850 l 581 850 z "},"Ā":{"ha":936,"x_min":0,"x_max":0,"o":"m 436 0 b 297 254 381 61 328 154 l 504 254 b 510 240 506 249 508 244 b 814 -10 585 29 742 -10 b 1029 94 885 -10 974 17 l 1006 119 b 856 157 961 72 890 78 b 711 629 800 286 771 451 b 236 949 660 785 517 949 l 236 913 b 356 753 299 913 324 853 l 360 736 b 254 594 324 692 285 642 b 25 0 161 453 25 200 z m 493 288 l 289 288 b 322 626 258 406 260 532 b 372 697 339 651 356 674 b 493 288 413 567 451 415 z m 574 1083 l 226 1083 l 226 1022 l 574 1022 z "},"Ē":{"ha":792,"x_min":0,"x_max":0,"o":"m 601 507 l 421 507 b 157 829 111 507 63 772 b 531 599 299 915 325 599 b 760 943 738 599 781 790 l 729 943 b 646 843 729 882 714 843 b 343 950 576 843 481 950 b 308 483 -49 950 7 563 b 25 249 144 454 25 383 b 444 -10 25 97 183 -10 b 817 146 632 -10 733 53 l 801 163 b 344 201 681 35 454 -15 b 450 471 260 367 306 471 l 578 471 z m 588 1083 l 240 1083 l 240 1022 l 588 1022 z "},"Ī":{"ha":367,"x_min":0,"x_max":0,"o":"m 357 1083 l 10 1083 l 10 1022 l 357 1022 z m 336 0 l 336 942 l 32 942 l 32 0 z "},"Ō":{"ha":993,"x_min":0,"x_max":0,"o":"m 496 950 b 25 471 236 950 25 736 b 496 -10 25 206 236 -10 b 967 471 757 -10 967 206 b 496 950 967 736 757 950 z m 731 93 b 351 381 651 44 481 172 b 261 847 222 589 182 797 b 640 560 342 897 511 768 b 731 93 771 353 810 143 z m 671 1083 l 324 1083 l 324 1022 l 671 1022 z "},"Ū":{"ha":844,"x_min":0,"x_max":0,"o":"m 621 72 b 336 489 385 72 336 235 l 336 942 l 33 942 l 33 363 b 485 -10 33 150 225 -10 b 811 293 622 -10 811 54 l 811 942 l 508 942 l 508 417 b 710 164 508 238 676 247 b 621 72 724 129 714 72 z m 603 1083 l 256 1083 l 256 1022 l 603 1022 z "},"Ė":{"ha":792,"x_min":0,"x_max":0,"o":"m 601 507 l 421 507 b 157 829 111 507 63 772 b 531 599 299 915 325 599 b 760 943 738 599 781 790 l 729 943 b 646 843 729 882 714 843 b 343 950 576 843 481 950 b 308 483 -49 950 7 563 b 25 249 144 454 25 383 b 444 -10 25 97 183 -10 b 817 146 632 -10 733 53 l 801 163 b 344 201 681 35 454 -15 b 450 471 260 367 306 471 l 578 471 z m 549 1083 b 443 1183 549 1139 501 1183 b 338 1083 385 1183 338 1139 b 443 983 338 1028 385 983 b 549 1083 501 983 549 1028 z "},"ũ":{"ha":842,"x_min":0,"x_max":0,"o":"m 306 1003 b 176 813 215 1003 176 947 l 208 813 b 275 888 208 861 224 885 b 507 822 361 893 422 822 b 626 1013 588 822 626 879 l 600 1013 b 542 938 600 964 586 943 b 306 1003 471 928 404 1003 z m 808 0 l 808 751 l 504 751 l 504 157 b 451 64 501 110 489 76 b 340 364 369 39 297 78 b 306 690 358 486 372 606 b -146 608 189 838 -53 731 l -125 586 b 1 608 -81 629 -35 640 b 31 372 56 561 49 483 b 360 -6 -4 156 119 -6 b 710 107 497 -6 567 136 b 774 0 747 99 774 69 z "},"Ĩ":{"ha":367,"x_min":0,"x_max":0,"o":"m 83 1176 b -46 986 -7 1176 -46 1121 l -14 986 b 53 1061 -14 1035 1 1058 b 285 996 139 1067 200 996 b 404 1186 365 996 404 1053 l 378 1186 b 319 1111 378 1138 364 1117 b 83 1176 249 1101 182 1176 z m 336 0 l 336 942 l 32 942 l 32 0 z "},"Ũ":{"ha":844,"x_min":0,"x_max":0,"o":"m 621 72 b 336 489 385 72 336 235 l 336 942 l 33 942 l 33 363 b 485 -10 33 150 225 -10 b 811 293 622 -10 811 54 l 811 942 l 508 942 l 508 417 b 710 164 508 238 676 247 b 621 72 724 129 714 72 z m 332 1176 b 203 986 242 1176 203 1121 l 235 986 b 301 1061 235 1035 250 1058 b 533 996 388 1067 449 996 b 653 1186 614 996 653 1053 l 626 1186 b 568 1111 626 1138 613 1117 b 332 1176 497 1101 431 1176 z "},"ĸ":{"ha":844,"x_min":0,"x_max":0,"o":"m 385 358 b 190 33 385 181 324 33 b 147 244 6 33 53 208 b 336 496 221 274 336 311 l 336 528 b 67 751 336 708 67 558 l 32 751 l 32 0 l 190 0 b 418 353 363 0 418 167 b 419 389 418 365 418 378 b 471 63 558 335 383 171 b 901 149 579 -72 796 10 l 879 171 b 711 215 810 100 761 96 b 426 421 657 343 550 372 b 481 461 435 444 451 461 b 664 388 550 461 574 388 b 818 751 776 388 818 496 l 782 751 b 731 646 782 697 768 646 b 522 761 679 646 647 772 b 385 358 396 751 385 578 z "},"ŧ":{"ha":689,"x_min":0,"x_max":0,"o":"m 632 751 l 425 751 l 425 943 l 392 943 b 122 751 392 851 317 751 l 25 751 l 25 719 l 122 719 l 122 524 l 53 524 l 53 492 l 122 492 l 122 293 b 364 -10 122 54 246 -10 b 561 101 486 -10 493 101 b 625 1 624 101 625 63 l 657 1 b 485 346 676 154 665 346 b 229 178 360 346 325 178 b 163 254 172 178 157 217 b 424 492 175 340 410 328 l 600 492 l 600 524 l 425 524 l 425 719 l 632 719 z "},"Ŧ":{"ha":914,"x_min":0,"x_max":0,"o":"m 729 328 l 610 328 l 610 421 b 356 631 610 574 414 467 b 557 590 413 608 479 590 b 889 940 694 590 889 685 l 854 940 b 713 803 854 874 808 803 b 274 950 617 803 481 950 b 25 726 67 950 25 799 b 117 564 25 656 65 607 l 142 588 b 178 697 106 614 110 697 b 306 651 208 697 251 675 l 306 328 l 196 328 l 196 294 l 306 294 l 306 0 l 610 0 l 610 294 l 729 294 z "},"Į":{"ha":367,"x_min":0,"x_max":0,"o":"m 336 0 l 336 942 l 32 942 l 32 0 l 190 0 b 247 -121 211 -36 239 -69 b 110 -94 222 -110 171 -94 b -154 -254 -78 -94 -154 -171 b 106 -397 -154 -336 -69 -400 b 328 -335 213 -394 328 -335 l 318 -311 b 199 -353 318 -311 240 -347 b 89 -282 153 -357 119 -333 b 140 -125 38 -197 43 -124 b 250 -153 186 -125 250 -153 l 279 -153 b 225 0 279 -76 250 -37 z "},"Ų":{"ha":844,"x_min":0,"x_max":0,"o":"m 551 -153 b 503 -8 551 -82 526 -43 b 811 293 639 -3 811 64 l 811 942 l 508 942 l 508 417 b 710 164 508 238 676 247 b 621 72 724 129 714 72 b 336 489 385 72 336 235 l 336 942 l 33 942 l 33 363 b 468 -10 33 154 217 -3 b 519 -121 489 -42 511 -74 b 382 -94 494 -110 443 -94 b 118 -254 194 -94 118 -171 b 378 -397 118 -336 203 -400 b 600 -335 485 -394 600 -335 l 590 -311 b 471 -353 590 -311 513 -347 b 361 -282 425 -357 392 -333 b 413 -125 310 -197 315 -124 b 522 -153 458 -125 522 -153 z "},"ų":{"ha":842,"x_min":0,"x_max":0,"o":"m 808 0 l 808 751 l 504 751 l 504 157 b 451 64 501 110 489 76 b 340 364 369 39 297 78 b 306 690 358 486 372 606 b -146 608 189 838 -53 731 l -125 586 b 1 608 -81 629 -35 640 b 31 372 56 561 49 483 b 360 -6 -4 156 119 -6 b 514 50 421 -6 468 22 b 596 -121 533 -10 583 -46 b 458 -94 571 -110 519 -94 b 194 -254 271 -94 194 -171 b 454 -397 194 -336 279 -400 b 676 -335 561 -394 676 -335 l 667 -311 b 547 -353 667 -311 589 -347 b 438 -282 501 -357 468 -333 b 489 -125 386 -197 392 -124 b 599 -153 535 -125 599 -153 l 628 -153 b 540 67 628 -35 558 -6 b 710 107 590 96 642 121 b 774 0 747 99 774 69 z "},"ė":{"ha":732,"x_min":0,"x_max":0,"o":"m 351 347 b 439 761 817 461 806 761 b 24 376 190 761 24 603 b 439 -10 24 149 190 -10 b 856 196 650 -10 738 61 b 829 222 847 204 839 214 b 335 310 669 46 496 56 b 317 339 328 319 322 329 z m 319 374 b 299 368 313 371 306 369 b 240 689 207 525 169 643 b 435 603 293 722 378 697 b 319 374 475 538 481 413 z m 511 883 b 404 983 511 939 464 983 b 299 883 346 983 299 939 b 404 783 299 828 346 783 b 511 883 464 783 511 828 z "},"ŋ":{"ha":842,"x_min":0,"x_max":0,"o":"m 32 751 l 32 0 l 336 0 l 336 582 b 389 692 338 638 349 679 b 500 393 471 718 543 678 b 485 231 492 338 485 282 b 508 110 485 182 493 143 l 513 100 b 757 -115 581 -32 746 -44 b 690 -192 763 -153 749 -192 b 407 -25 594 -192 585 -25 b 197 -368 226 -25 176 -217 l 229 -368 b 301 -269 229 -307 240 -269 b 538 -379 371 -269 400 -379 b 799 -76 675 -379 799 -315 b 810 385 799 82 781 189 b 481 761 842 601 721 761 b 217 650 374 761 299 669 b 67 751 136 631 67 639 z "},"Ŋ":{"ha":810,"x_min":0,"x_max":0,"o":"m 442 743 b 68 942 329 939 190 942 l 33 942 l 33 0 l 336 0 l 336 26 b 72 779 336 358 108 204 l 332 322 b 742 0 463 93 742 219 b 668 -192 742 -53 757 -192 b 385 -25 572 -192 563 -25 b 175 -368 204 -25 154 -217 l 207 -368 b 279 -269 207 -307 218 -269 b 515 -379 349 -269 378 -379 b 776 -49 653 -379 776 -307 l 776 942 l 474 942 l 474 915 b 733 204 474 590 689 724 b 658 354 715 247 690 294 b 442 743 600 463 514 614 z "},"฿":{"ha":907,"x_min":0,"x_max":0,"o":"m 401 1078 l 401 950 b 360 951 388 951 374 951 b 33 650 222 951 33 889 l 33 0 l 288 0 b 401 -10 324 -6 361 -8 l 401 -131 l 433 -131 l 433 -10 b 883 250 692 -8 883 88 b 569 479 883 382 756 456 b 813 701 717 513 813 586 b 433 949 813 847 654 933 l 433 1078 z m 354 485 l 354 454 b 401 446 369 454 385 451 l 401 65 b 336 129 379 82 358 103 l 336 525 b 135 779 336 704 168 696 b 224 869 121 813 131 869 b 401 801 278 869 344 847 l 401 488 l 399 488 l 392 488 l 390 488 z m 558 310 b 565 42 632 192 618 71 b 433 44 522 19 479 21 l 433 433 b 558 310 476 413 519 372 z m 453 751 b 433 493 565 611 522 515 l 433 774 z "},"₦":{"ha":975,"x_min":0,"x_max":0,"o":"m 525 743 b 150 942 411 939 272 942 l 115 942 l 115 572 l 25 572 l 25 539 l 115 539 l 115 356 l 25 356 l 25 324 l 115 324 l 115 0 l 419 0 l 419 26 b 292 324 419 200 357 242 l 414 324 b 415 322 414 322 415 322 b 825 0 544 93 825 219 l 860 0 l 860 324 l 950 324 l 950 356 l 860 356 l 860 539 l 950 539 l 950 572 l 860 572 l 860 942 l 556 942 l 556 915 b 715 572 556 711 640 689 l 619 572 z m 267 356 b 189 539 238 399 210 454 l 292 539 b 396 356 329 472 365 407 z m 735 539 b 796 356 758 493 781 436 l 740 356 l 639 539 z m 181 572 b 154 782 169 629 158 697 l 272 572 z m 803 324 b 817 203 808 288 814 247 b 758 324 803 239 782 278 z "},"₩":{"ha":1517,"x_min":0,"x_max":0,"o":"m -68 844 l -44 818 b 104 782 0 867 71 861 b 161 614 125 731 144 674 l 24 614 l 24 581 l 171 581 l 214 422 l 71 422 l 71 389 l 224 389 b 250 310 232 363 240 336 b 550 0 301 154 550 282 l 585 0 l 585 11 b 693 344 588 85 617 226 l 721 389 l 765 389 b 792 310 774 363 782 336 b 1092 0 843 154 1092 282 l 1128 0 l 1128 11 b 1235 344 1131 85 1158 226 l 1263 389 l 1444 389 l 1444 422 l 1283 422 b 1365 581 1311 469 1339 524 l 1492 581 l 1492 614 l 1381 614 b 1464 942 1428 722 1464 839 l 1043 942 b 1239 614 1151 876 1221 747 l 1019 614 l 993 699 b 689 949 924 911 761 949 b 474 844 618 949 529 922 l 499 818 b 647 782 542 867 613 861 b 665 733 654 765 660 750 b 671 718 667 728 668 724 b 696 614 682 685 692 649 l 478 614 l 450 699 b 147 949 381 911 218 949 b -68 844 75 949 -14 922 z m 529 451 l 489 581 l 699 581 b 682 422 703 526 697 472 l 538 422 z m 1072 451 b 1031 581 1054 506 1042 543 l 1242 581 b 1224 422 1246 526 1239 472 l 1081 422 z m 547 389 l 671 389 b 647 340 664 372 656 356 b 578 183 615 286 593 235 b 547 389 572 261 563 326 z m 1089 389 l 1213 389 b 1189 340 1206 372 1197 356 b 1121 185 1158 288 1136 235 b 1089 389 1115 261 1104 326 z m 751 439 l 756 422 l 742 422 b 751 439 744 428 747 433 z "},"₱":{"ha":1013,"x_min":0,"x_max":0,"o":"m 988 585 l 988 618 l 894 618 l 894 621 b 443 951 894 810 703 951 b 115 650 306 951 115 889 l 115 618 l 25 618 l 25 585 l 115 585 l 115 433 l 25 433 l 25 401 l 115 401 l 115 0 l 419 0 l 419 401 l 592 401 b 443 269 565 325 508 269 l 443 242 b 818 401 614 242 743 306 l 988 401 l 988 433 l 840 433 b 892 585 869 479 886 531 z m 218 779 b 307 869 204 813 214 869 b 556 672 379 869 476 793 b 585 618 567 654 576 636 l 399 618 b 218 779 353 704 244 714 z m 419 525 b 413 585 419 547 417 567 l 596 585 b 601 433 611 532 611 479 l 419 433 z "},"₴":{"ha":964,"x_min":0,"x_max":0,"o":"m 939 572 l 835 572 b 850 665 844 599 850 631 b 540 950 850 818 717 950 b 261 843 401 950 331 843 b 178 943 192 843 178 882 l 147 943 b 375 599 126 790 169 599 b 751 821 582 599 629 922 b 475 593 818 765 710 658 l 407 572 l 25 572 l 25 539 l 325 539 b 151 403 257 507 190 464 l 25 403 l 25 371 l 133 371 b 115 283 122 344 115 315 b 431 -10 115 128 251 -10 b 728 99 568 -10 660 99 b 811 -1 797 99 811 60 l 843 -1 b 614 343 864 151 821 343 b 219 121 407 343 336 18 b 519 358 154 178 286 289 l 561 371 l 939 371 l 939 403 l 649 403 b 819 539 726 435 786 476 l 939 539 z "},"₺":{"ha":919,"x_min":0,"x_max":0,"o":"m 522 882 l 432 851 l 432 942 l 128 942 l 128 750 l 25 717 l 36 685 l 128 715 l 128 615 l 25 582 l 36 550 l 128 581 l 128 0 l 163 0 b 482 192 163 136 385 165 b 896 574 694 250 896 354 l 474 574 b 446 219 632 479 611 274 b 169 104 381 199 240 178 b 432 399 214 318 432 238 l 432 682 l 532 715 l 522 747 l 432 717 l 432 817 l 532 850 z "},"₽":{"ha":926,"x_min":0,"x_max":0,"o":"m 443 393 b 894 674 728 393 894 499 b 443 951 894 836 703 951 b 115 650 306 951 115 889 l 115 425 l 25 425 l 25 393 l 115 393 l 115 260 l 25 260 l 25 228 l 115 228 l 115 0 l 419 0 l 419 228 l 743 228 l 743 260 l 419 260 l 419 393 z m 443 425 l 419 425 l 419 525 b 218 779 419 704 251 696 b 307 869 204 813 214 869 b 536 722 379 869 479 808 b 443 425 653 546 575 425 z "},"№":{"ha":1675,"x_min":0,"x_max":0,"o":"m 440 743 b 67 942 328 939 189 942 l 32 942 l 32 0 l 336 0 l 336 26 b 71 782 336 360 106 204 b 331 322 140 660 263 440 b 740 0 461 93 740 219 l 776 0 l 776 942 l 472 942 l 472 915 b 732 206 472 590 688 725 b 658 354 714 249 690 296 b 440 743 599 463 514 614 z m 1235 950 b 821 565 988 950 821 793 b 1235 179 821 338 988 179 b 1650 565 1483 179 1650 338 b 1235 950 1650 793 1483 950 z m 1433 253 b 1132 499 1354 203 1249 314 b 1038 878 1014 685 957 826 b 1339 631 1117 928 1221 817 b 1433 253 1457 446 1513 303 z m 1638 33 l 832 33 l 832 0 l 1638 0 z "},"₿":{"ha":907,"x_min":0,"x_max":0,"o":"m 497 1078 l 497 942 b 360 951 454 949 408 951 b 336 950 351 951 343 951 l 336 1078 l 304 1078 l 304 947 b 33 650 176 932 33 857 l 33 0 l 288 0 b 304 -1 293 0 299 -1 l 304 -131 l 336 -131 l 336 -6 b 431 -10 367 -8 397 -10 b 497 -7 453 -10 475 -8 l 497 -131 l 531 -131 l 531 -4 b 883 250 738 17 883 108 b 569 479 883 382 756 456 b 813 701 717 513 813 586 b 531 936 813 825 700 906 l 531 1078 z m 354 485 l 354 454 b 497 388 399 454 450 433 l 497 25 b 336 129 446 28 393 63 l 336 843 b 453 751 378 824 419 793 b 497 683 471 728 486 704 l 497 531 b 390 488 474 503 435 488 z m 135 779 b 224 869 121 813 131 869 b 304 856 249 869 276 864 l 304 636 b 135 779 253 706 158 718 z m 558 310 b 565 42 632 192 618 71 b 531 29 554 36 542 32 l 531 349 z "},"←":{"ha":664,"x_min":0,"x_max":0,"o":"m 369 206 l 136 439 l 632 439 l 632 493 l 132 493 l 369 731 l 332 768 l 32 468 l 332 168 z "},"↑":{"ha":664,"x_min":0,"x_max":0,"o":"m 69 433 l 303 667 l 303 171 l 357 171 l 357 671 l 596 433 l 632 471 l 332 771 l 32 471 z "},"→":{"ha":664,"x_min":0,"x_max":0,"o":"m 332 168 l 632 468 l 332 768 l 294 731 l 532 493 l 32 493 l 32 439 l 528 439 l 294 206 z "},"↓":{"ha":664,"x_min":0,"x_max":0,"o":"m 594 506 l 361 272 l 361 768 l 307 768 l 307 268 l 69 506 l 32 468 l 332 168 l 632 468 z "},"↔":{"ha":1028,"x_min":0,"x_max":0,"o":"m 696 168 l 996 468 l 696 768 l 658 731 l 896 493 l 132 493 l 369 731 l 332 768 l 32 468 l 332 168 l 369 206 l 136 439 l 892 439 l 658 206 z "},"↕":{"ha":664,"x_min":0,"x_max":0,"o":"m 632 650 l 332 950 l 32 650 l 69 613 l 307 850 l 307 86 l 69 324 l 32 286 l 332 -14 l 632 286 l 594 324 l 361 90 l 361 846 l 594 613 z "},"↖":{"ha":664,"x_min":0,"x_max":0,"o":"m 172 256 l 172 586 l 524 235 l 561 274 l 208 628 l 544 628 l 544 681 l 119 681 l 119 256 z "},"↗":{"ha":664,"x_min":0,"x_max":0,"o":"m 544 256 l 544 681 l 119 681 l 119 628 l 456 628 l 103 274 l 140 235 l 492 586 l 492 256 z "},"↘":{"ha":664,"x_min":0,"x_max":0,"o":"m 119 256 l 544 256 l 544 681 l 492 681 l 492 344 l 138 697 l 99 660 l 450 308 l 119 308 z "},"↙":{"ha":664,"x_min":0,"x_max":0,"o":"m 544 308 l 214 308 l 565 660 l 526 697 l 172 344 l 172 681 l 119 681 l 119 256 l 544 256 z "},"₾":{"ha":911,"x_min":0,"x_max":0,"o":"m 660 1078 l 660 888 b 497 949 614 913 561 942 l 497 1078 l 464 1078 l 464 950 b 26 489 206 947 3 751 b 200 176 43 306 192 286 b 56 36 204 114 140 46 l 56 0 b 340 97 206 -12 247 89 b 646 -10 435 106 488 -10 b 872 361 911 -10 899 236 l 836 361 b 758 243 844 317 826 243 b 501 310 664 243 625 310 b 338 242 439 310 386 281 b 283 521 347 332 325 435 b 229 847 201 686 163 807 b 464 700 317 901 379 792 l 464 431 l 497 431 l 497 667 b 651 599 540 628 590 599 l 660 599 l 660 431 l 693 431 l 693 601 b 881 943 864 626 900 801 l 850 943 b 767 843 850 882 835 843 b 693 868 744 843 719 854 l 693 1078 z "},"☚":{"ha":1372,"x_min":0,"x_max":0,"o":"m 979 335 b 983 464 983 364 985 413 b 968 624 981 524 974 589 b 632 729 879 649 681 713 b 500 725 585 746 528 738 b 342 697 474 714 422 704 b 279 686 318 694 299 690 b 203 675 256 682 231 676 b 124 668 158 674 139 675 b 121 667 122 667 121 667 b 117 651 121 661 119 657 b 79 626 111 640 97 628 b 33 625 65 625 46 625 b 38 614 33 621 35 617 b 71 592 43 601 56 593 b 172 594 117 589 144 586 b 194 629 192 601 197 615 l 208 632 b 208 600 210 622 210 610 b 307 594 221 593 249 589 b 324 621 321 600 325 611 l 339 622 b 335 594 339 614 338 603 b 444 574 356 589 413 574 l 469 574 b 546 626 526 578 546 626 l 558 622 b 443 543 558 621 540 544 l 431 538 b 318 431 396 522 340 497 b 496 471 367 454 425 468 b 564 588 542 483 569 538 l 579 589 b 554 481 583 549 572 507 b 613 518 578 489 594 503 l 631 532 b 729 578 660 554 703 578 l 729 564 b 639 521 711 564 672 546 l 621 507 b 489 442 590 481 546 444 b 326 403 429 440 372 426 b 379 385 349 403 372 399 b 378 325 386 368 385 340 b 363 313 372 317 367 314 b 301 306 353 311 324 307 b 408 293 335 296 372 299 b 571 297 451 288 508 289 b 813 275 651 306 729 275 b 979 335 854 275 942 315 z m 1139 204 l 1093 204 b 1169 121 1103 147 1125 121 l 1340 121 l 1340 724 l 1117 724 b 1056 694 1074 724 1061 708 l 1094 694 l 1099 686 b 1147 392 1129 621 1146 521 b 1140 217 1149 296 1140 217 z m 1114 232 b 1076 667 1118 290 1133 532 l 990 664 b 1008 232 1000 617 1024 475 z m 303 388 b 283 318 281 365 278 336 b 360 326 306 319 349 324 b 364 332 361 326 363 328 b 365 378 371 343 371 367 b 303 388 361 388 333 392 z m 574 269 b 456 263 531 264 490 261 b 506 244 471 253 489 249 b 576 222 532 240 540 211 b 613 269 603 231 613 253 b 574 269 597 271 585 271 z m 1035 279 b 1065 310 1035 296 1049 310 b 1094 279 1082 310 1094 296 b 1065 250 1094 263 1082 250 b 1035 279 1049 250 1035 263 z m 78 640 b 104 658 90 642 100 650 b 106 664 106 660 106 663 b 32 658 93 664 58 663 b 31 639 32 654 31 647 b 78 640 43 639 64 640 z m 983 306 l 969 299 b 981 251 972 279 976 264 z "},"☛":{"ha":1372,"x_min":0,"x_max":0,"o":"m 393 335 b 560 275 431 315 518 275 b 801 297 643 275 721 306 b 964 293 864 289 921 288 b 1071 306 1000 299 1038 296 b 1010 313 1049 307 1019 311 b 994 325 1006 314 1000 317 b 993 385 988 340 986 368 b 1046 403 1000 399 1024 403 b 883 442 1000 426 943 440 b 751 507 826 444 782 481 l 733 521 b 643 564 700 546 661 564 l 643 578 b 742 532 669 578 713 554 l 760 518 b 818 481 778 503 794 489 b 793 589 800 507 789 549 l 808 588 b 876 471 803 538 831 483 b 1054 431 947 468 1006 454 b 942 538 1032 497 976 522 l 929 543 b 814 622 832 544 814 621 l 826 626 b 903 574 826 626 846 578 l 928 574 b 1038 594 960 574 1017 589 b 1033 622 1035 603 1033 614 l 1049 621 b 1065 594 1047 611 1051 600 b 1164 600 1124 589 1151 593 b 1164 632 1163 610 1163 622 l 1178 629 b 1200 594 1175 615 1181 601 b 1301 592 1228 586 1256 589 b 1335 614 1317 593 1329 601 b 1339 625 1338 617 1339 621 b 1293 626 1326 625 1307 625 b 1256 651 1275 628 1261 640 b 1251 667 1253 657 1251 661 b 1249 668 1251 667 1250 667 b 1169 675 1233 675 1214 674 b 1093 686 1142 676 1117 682 b 1031 697 1074 690 1054 694 b 872 725 950 704 899 714 b 740 729 844 738 788 746 b 404 624 692 713 493 649 b 389 464 399 589 392 524 b 393 335 388 413 389 364 z m 232 217 b 225 392 232 217 224 296 b 274 686 226 521 243 621 l 278 694 l 317 694 b 256 724 311 708 299 724 l 32 724 l 32 121 l 203 121 b 279 204 247 121 269 147 l 233 204 z m 258 232 l 364 232 b 382 664 349 475 372 617 l 296 667 b 258 232 239 532 254 290 z m 1069 388 b 1007 378 1039 392 1011 388 b 1008 332 1001 367 1001 343 b 1013 326 1010 328 1011 326 b 1089 318 1024 324 1067 319 b 1069 388 1094 336 1092 365 z m 799 269 b 760 269 788 271 775 271 b 796 222 760 253 769 231 b 867 244 832 211 840 240 b 917 263 883 249 901 253 b 799 269 882 261 842 264 z m 338 279 b 307 250 338 263 324 250 b 278 279 290 250 278 263 b 307 310 278 296 290 310 b 338 279 324 310 338 296 z m 1294 640 b 1342 639 1308 640 1329 639 b 1340 658 1342 647 1340 654 b 1267 664 1314 663 1279 664 b 1268 658 1267 663 1267 660 b 1294 640 1272 650 1282 642 z m 392 251 b 403 299 396 264 400 279 l 389 306 z "},"☜":{"ha":1403,"x_min":0,"x_max":0,"o":"m 39 672 b 42 600 31 657 29 625 b 97 564 50 585 65 567 b 228 574 150 560 186 557 b 351 568 253 563 293 561 b 422 551 361 565 392 557 b 313 407 381 529 326 492 b 288 304 282 378 276 336 b 394 269 300 275 349 272 l 435 265 b 458 263 442 265 450 264 b 533 231 479 244 510 235 b 551 221 539 229 544 226 b 590 206 561 214 574 206 b 611 210 597 206 604 207 b 650 243 635 217 646 232 b 656 268 654 251 656 260 b 746 257 683 267 715 261 b 843 246 783 251 818 246 b 972 286 876 246 932 268 b 1018 204 978 253 992 204 l 1124 204 b 1199 121 1132 147 1154 121 l 1369 121 l 1369 724 l 1146 724 b 1085 694 1104 724 1090 708 l 994 692 b 964 654 976 692 969 682 b 667 751 865 683 707 736 b 519 751 611 771 553 765 b 368 725 483 735 397 728 b 303 714 344 722 324 718 b 232 704 279 710 257 704 b 138 686 186 703 161 697 b 49 679 125 686 81 685 l 43 678 z m 100 592 b 67 614 85 593 74 601 l 63 625 b 108 626 75 625 94 625 b 146 651 128 628 140 640 b 149 660 147 654 149 657 b 232 675 167 668 185 674 b 308 686 260 676 285 682 b 371 697 328 690 349 694 b 531 725 453 704 503 713 b 657 725 558 736 608 742 b 1000 614 706 707 911 638 b 1013 478 1004 582 1010 538 b 783 425 960 458 836 426 b 644 400 719 424 679 400 b 501 396 610 400 539 392 b 411 375 464 399 456 378 b 408 385 411 378 410 382 b 356 403 401 399 378 403 b 518 442 403 426 458 439 b 651 507 576 443 619 481 b 669 521 657 513 664 517 b 760 564 701 546 740 564 l 760 578 b 661 532 733 578 690 554 l 642 518 b 576 472 624 503 603 485 b 608 589 599 497 613 544 l 594 588 b 535 476 600 536 569 481 b 542 563 522 497 542 544 b 589 622 572 583 589 622 l 575 626 b 499 574 575 626 557 578 l 474 574 b 364 594 442 574 385 589 b 368 622 367 603 369 614 l 354 621 b 336 594 354 611 350 600 b 238 600 279 589 251 593 b 238 632 239 610 239 622 l 224 629 b 203 594 226 615 221 601 b 100 592 174 586 146 589 z m 1038 232 b 1019 664 1053 475 1029 617 l 1106 667 b 1143 232 1163 532 1147 290 z m 314 318 b 333 388 308 336 310 365 b 396 378 363 392 392 388 b 394 332 400 367 400 343 b 389 326 393 328 390 326 b 314 318 378 324 335 319 z m 1094 310 b 1064 279 1078 310 1064 296 b 1094 250 1064 263 1078 250 b 1125 279 1111 250 1125 263 b 1094 310 1125 296 1111 310 z m 61 639 b 63 653 61 644 61 649 b 133 657 86 657 118 657 b 108 640 129 650 121 642 b 61 639 93 640 74 639 z "},"☝":{"ha":713,"x_min":0,"x_max":0,"o":"m 128 1106 l 122 1101 l 121 1096 b 113 1007 114 1064 113 1019 b 94 913 101 983 96 958 b 85 842 94 888 89 865 b 74 776 81 821 76 800 b 47 625 71 747 64 661 b 47 478 33 592 28 533 b 144 181 63 438 115 279 b 107 150 117 175 107 168 l 104 60 b 75 -1 90 54 75 40 l 75 -225 l 678 -225 l 678 -54 b 594 21 678 -10 651 13 l 594 126 b 513 172 594 153 546 167 b 553 301 531 213 553 268 b 542 399 553 326 547 361 b 531 489 538 429 532 461 b 556 494 539 489 547 490 b 589 533 567 499 582 510 b 593 554 592 540 593 547 b 578 593 593 571 585 583 b 568 611 572 600 569 606 b 536 686 564 635 554 665 b 533 710 535 694 533 703 l 529 750 b 494 857 526 796 524 844 b 392 832 463 868 421 863 b 247 722 307 818 269 764 b 231 793 242 753 233 783 b 225 917 238 851 236 892 b 235 1047 242 958 239 994 b 200 1103 232 1079 215 1094 b 128 1106 175 1115 143 1114 z m 207 1044 b 204 942 210 999 213 971 b 169 921 197 924 183 918 l 167 907 b 199 907 176 906 189 906 b 204 808 206 893 210 865 b 178 790 199 794 188 790 l 176 776 b 204 781 185 775 196 778 b 225 671 210 760 225 703 l 225 646 b 172 569 221 588 172 569 l 176 556 b 236 603 176 556 215 572 b 322 610 254 603 301 622 b 211 550 318 575 263 544 l 210 536 b 326 568 254 532 301 546 b 281 503 314 542 296 521 l 267 483 b 221 385 244 454 221 411 l 235 385 b 278 475 235 404 253 443 b 292 493 282 481 286 488 b 357 626 318 525 356 568 b 396 789 360 686 372 742 b 414 736 396 767 400 743 b 424 733 417 735 421 733 b 403 643 421 689 400 681 b 399 500 407 606 399 535 b 374 361 399 465 375 425 b 321 132 372 308 340 185 b 185 144 261 135 217 140 b 74 488 161 233 92 439 b 74 614 57 536 63 586 b 101 774 86 642 94 692 b 113 836 104 796 108 817 b 124 913 117 860 122 885 b 139 996 125 960 131 978 b 147 999 142 996 144 997 b 172 1036 158 1004 171 1017 b 174 1082 174 1050 174 1069 l 185 1078 b 207 1044 197 1071 206 1060 z m 567 1 b 132 39 508 -3 267 -18 l 135 125 b 567 107 182 115 324 92 z m 481 831 b 472 756 479 810 475 767 b 467 750 472 754 471 751 b 421 749 456 744 432 744 b 411 811 411 753 407 782 b 481 831 433 835 463 836 z m 489 50 b 519 19 489 33 503 19 b 549 50 536 19 549 33 b 519 81 549 67 536 81 b 489 50 503 81 489 67 z m 160 1083 b 158 1036 160 1071 158 1051 b 142 1011 157 1024 149 1015 b 146 1082 142 1026 142 1058 b 160 1083 150 1083 154 1083 z "},"☞":{"ha":1403,"x_min":0,"x_max":0,"o":"m 1364 672 l 1360 678 l 1354 679 b 1265 686 1322 685 1278 686 b 1171 704 1242 697 1217 703 b 1100 714 1146 704 1124 710 b 1035 725 1079 718 1058 722 b 883 751 1006 728 919 735 b 736 751 850 765 792 771 b 439 654 696 736 538 683 b 408 692 433 682 426 692 l 318 694 b 257 724 313 708 299 724 l 33 724 l 33 121 l 204 121 b 279 204 249 121 271 147 l 385 204 b 431 286 411 204 425 253 b 560 246 471 268 526 246 b 657 257 585 246 619 251 b 747 268 688 261 719 267 b 753 243 747 260 749 251 b 792 210 757 232 768 217 b 813 206 799 207 806 206 b 851 221 829 206 842 214 b 869 231 858 226 864 229 b 944 263 893 235 924 244 b 968 265 953 264 961 265 l 1008 269 b 1115 304 1054 272 1103 275 b 1090 407 1126 336 1121 378 b 981 551 1076 492 1022 529 b 1051 568 1011 557 1042 565 b 1175 574 1110 561 1150 563 b 1306 564 1217 557 1253 560 b 1361 600 1338 567 1353 585 b 1364 672 1374 625 1372 657 z m 1303 592 b 1200 594 1257 589 1229 586 b 1179 629 1182 601 1176 615 l 1165 632 b 1165 600 1164 622 1164 610 b 1067 594 1151 593 1124 589 b 1049 621 1053 600 1049 611 l 1035 622 b 1039 594 1033 614 1036 603 b 929 574 1018 589 961 574 l 904 574 b 828 626 846 578 828 626 l 814 622 b 861 563 814 622 831 583 b 868 476 861 544 881 497 b 808 588 833 481 803 536 l 794 589 b 826 472 790 544 804 497 b 761 518 800 485 779 503 l 742 532 b 643 578 713 554 669 578 l 643 564 b 733 521 663 564 701 546 b 751 507 739 517 746 513 b 885 442 783 481 826 443 b 1047 403 944 439 1000 426 b 994 385 1025 403 1001 399 b 992 375 993 382 992 378 b 901 396 947 378 939 399 b 758 400 864 392 793 400 b 619 425 724 400 683 424 b 390 478 567 426 443 458 b 403 614 393 538 399 582 b 746 725 492 638 697 707 b 872 725 794 742 844 736 b 1032 697 900 713 950 704 b 1094 686 1054 694 1075 690 b 1171 675 1118 682 1143 676 b 1254 660 1218 674 1236 668 b 1257 651 1254 657 1256 654 b 1294 626 1263 640 1275 628 b 1340 625 1308 625 1328 625 l 1336 614 b 1303 592 1329 601 1318 593 z m 260 232 b 297 667 256 290 240 532 l 383 664 b 365 232 374 617 350 475 z m 1089 318 b 1014 326 1068 319 1025 324 b 1008 332 1013 326 1010 328 b 1007 378 1003 343 1003 367 b 1069 388 1011 388 1040 392 b 1089 318 1093 365 1094 336 z m 308 310 b 278 279 292 310 278 296 b 308 250 278 263 292 250 b 339 279 325 250 339 263 b 308 310 339 296 325 310 z m 1342 639 b 1294 640 1329 639 1310 640 b 1269 657 1282 642 1274 650 b 1340 653 1285 657 1317 657 b 1342 639 1342 649 1342 644 z "},"☟":{"ha":713,"x_min":0,"x_max":0,"o":"m 578 -215 l 583 -211 l 585 -206 b 593 -117 592 -174 593 -129 b 611 -22 604 -93 610 -68 b 621 49 611 3 617 25 b 632 114 625 69 629 90 b 658 265 635 143 642 229 b 658 413 672 299 678 357 b 561 710 643 453 590 611 b 599 740 589 715 599 722 l 601 831 b 631 892 615 836 631 850 l 631 1115 l 28 1115 l 28 944 b 111 869 28 900 54 878 l 111 764 b 193 718 111 738 160 724 b 153 589 175 678 153 622 b 164 492 153 564 158 529 b 175 401 168 461 174 429 b 150 396 167 401 158 400 b 117 357 139 392 124 381 b 113 336 114 350 113 343 b 128 297 113 319 121 307 b 138 279 133 290 136 285 b 169 204 142 256 151 225 b 172 181 171 196 172 188 l 176 140 b 211 33 179 94 182 46 b 314 58 243 22 285 28 b 458 168 399 72 436 126 b 475 97 464 138 472 107 b 481 -26 468 39 469 -1 b 471 -157 464 -68 467 -104 b 506 -212 474 -189 490 -204 b 578 -215 531 -225 563 -224 z m 499 -154 b 501 -51 496 -108 493 -81 b 536 -31 508 -33 522 -28 l 539 -17 b 507 -17 529 -15 517 -15 b 501 82 500 -3 496 25 b 528 100 507 96 518 100 l 529 114 b 501 110 521 115 510 113 b 481 219 496 131 481 188 l 481 244 b 533 321 485 303 533 321 l 529 335 b 469 288 529 335 490 318 b 383 281 451 288 404 268 b 494 340 388 315 443 346 l 496 354 b 379 322 451 358 404 344 b 425 388 392 349 410 369 l 439 407 b 485 506 461 436 485 479 l 471 506 b 428 415 471 486 453 447 b 414 397 424 410 419 403 b 349 264 388 365 350 322 b 310 101 346 204 333 149 b 292 154 310 124 306 147 b 282 157 289 156 285 157 b 303 247 285 201 306 210 b 307 390 299 285 307 356 b 332 529 307 425 331 465 b 385 758 333 582 365 706 b 521 746 444 756 489 750 b 632 403 544 657 614 451 b 632 276 649 354 643 304 b 604 117 619 249 611 199 b 593 54 601 94 597 74 b 582 -22 589 31 583 6 b 567 -106 581 -69 575 -87 b 558 -108 564 -106 561 -107 b 533 -146 547 -114 535 -126 b 532 -192 532 -160 532 -179 l 521 -187 b 499 -154 508 -181 500 -169 z m 139 889 b 574 851 197 893 439 908 l 571 765 b 139 783 524 775 382 799 z m 225 60 b 233 135 226 81 231 124 b 239 140 233 136 235 139 b 285 142 250 146 274 146 b 294 79 294 138 299 108 b 225 60 272 56 243 54 z m 217 840 b 186 871 217 857 203 871 b 157 840 169 871 157 857 b 186 810 157 824 169 810 b 217 840 203 810 217 824 z m 546 -193 b 547 -146 546 -181 547 -161 b 564 -121 549 -133 557 -125 b 560 -192 564 -136 564 -168 b 546 -193 556 -193 551 -193 z "},"⟵":{"ha":1283,"x_min":0,"x_max":0,"o":"m 1211 256 b 1250 326 1236 272 1250 296 b 1135 424 1250 357 1224 424 b 911 374 1044 424 968 374 b 842 439 874 374 847 394 l 1197 439 l 1197 493 l 840 493 b 911 558 846 538 874 558 b 1135 508 968 558 1044 508 b 1250 606 1224 508 1250 575 b 1211 676 1250 636 1236 660 l 1192 657 b 1179 618 1207 646 1199 621 b 957 650 1133 611 1043 650 b 811 493 900 650 818 625 l 347 493 b 608 582 446 721 576 681 l 624 607 b 313 657 617 710 450 782 b 32 493 201 557 135 493 l 32 440 b 313 275 135 440 201 375 b 624 325 450 151 617 224 l 608 350 b 347 439 576 253 446 213 l 811 439 b 957 282 818 306 900 282 b 1179 314 1043 282 1133 321 b 1192 275 1199 311 1207 286 l 1211 256 z "},"⟶":{"ha":1283,"x_min":0,"x_max":0,"o":"m 86 439 l 442 439 b 372 374 436 394 408 374 b 149 424 315 374 239 424 b 33 326 60 424 33 357 b 72 256 33 296 47 272 l 92 275 b 104 314 76 286 85 311 b 326 282 150 321 240 282 b 471 439 383 282 464 306 l 935 439 b 675 350 836 213 707 253 l 660 325 b 971 275 667 224 833 151 b 1251 440 1082 375 1149 440 l 1251 493 b 971 657 1149 493 1082 557 b 660 607 833 782 667 710 l 675 582 b 935 493 707 681 836 721 l 471 493 b 326 650 464 625 383 650 b 104 618 240 650 150 611 b 92 657 85 621 76 646 l 72 676 b 33 606 47 660 33 636 b 149 508 33 575 60 508 b 372 558 239 508 315 558 b 442 493 408 558 436 538 l 86 493 z "},"✢":{"ha":786,"x_min":0,"x_max":0,"o":"m 94 383 b 372 425 157 383 283 407 b 331 147 354 336 331 210 b 393 85 331 113 358 85 b 456 147 428 85 456 113 b 414 425 456 210 432 336 b 692 383 501 407 628 383 b 754 446 726 383 754 411 b 692 508 754 481 726 508 b 414 467 628 508 501 485 b 456 744 432 554 456 681 b 393 807 456 779 428 807 b 331 744 358 807 331 779 b 372 467 331 681 354 554 b 94 508 283 485 157 508 b 32 446 60 508 32 481 b 94 383 32 411 60 383 z "},"✣":{"ha":786,"x_min":0,"x_max":0,"o":"m 118 360 b 321 440 204 360 246 438 b 386 375 324 406 350 378 b 307 171 383 299 307 257 b 393 85 307 124 346 85 b 479 171 440 85 479 124 b 399 375 479 257 401 299 b 464 440 432 378 461 406 b 668 360 540 438 582 360 b 754 446 715 360 754 399 b 668 532 754 493 715 532 b 464 451 582 532 539 454 b 399 517 461 485 432 514 b 479 721 401 593 479 635 b 393 807 479 768 440 807 b 307 721 346 807 307 768 b 386 517 307 635 383 593 b 321 451 350 513 324 485 b 118 532 244 454 204 532 b 32 446 71 532 32 493 b 118 360 32 399 71 360 z "},"✤":{"ha":786,"x_min":0,"x_max":0,"o":"m 638 563 b 403 454 511 563 483 465 b 511 690 414 538 511 564 b 393 807 511 754 458 807 b 276 690 329 807 276 754 b 383 456 276 565 371 535 b 150 563 301 467 274 563 b 32 446 85 563 32 511 b 150 329 32 381 85 329 b 383 436 274 329 303 424 b 276 201 371 354 276 326 b 393 85 276 138 329 85 b 511 201 458 85 511 138 b 403 436 511 326 414 354 b 638 329 485 426 511 329 b 754 446 701 329 754 381 b 638 563 754 511 701 563 z "},"✻":{"ha":707,"x_min":0,"x_max":0,"o":"m 258 392 b 64 350 258 392 151 401 b 40 265 33 333 24 296 b 126 243 57 235 96 225 b 258 392 214 293 258 392 z m 447 500 b 643 540 447 500 554 490 b 665 626 672 558 683 596 b 581 649 649 656 610 667 b 447 500 492 599 447 500 z m 258 500 b 126 649 258 500 214 599 b 40 626 96 667 57 656 b 64 540 24 596 33 558 b 258 500 151 490 258 500 z m 447 392 b 581 243 447 392 492 293 b 665 265 610 225 649 235 b 643 350 683 296 672 333 b 447 392 554 401 447 392 z m 353 554 b 415 744 353 554 415 642 b 353 807 415 779 388 807 b 290 744 318 807 290 779 b 353 554 290 642 353 554 z m 353 338 b 290 147 353 338 290 250 b 353 85 290 113 318 85 b 415 147 388 85 415 113 b 353 338 415 250 353 338 z m 353 358 b 440 446 401 358 440 397 b 353 533 440 494 401 533 b 265 446 304 533 265 494 b 353 358 265 397 304 358 z "},"✼":{"ha":706,"x_min":0,"x_max":0,"o":"m 643 350 b 479 414 603 374 538 396 b 483 446 482 425 483 435 b 479 476 483 457 482 467 b 643 540 538 496 603 518 b 665 626 672 558 682 596 b 581 649 649 656 610 667 b 443 539 540 626 488 582 b 389 571 428 554 410 565 b 415 744 403 631 415 699 b 353 807 415 779 388 807 b 290 744 318 807 290 779 b 317 571 290 699 303 631 b 263 539 296 565 278 554 b 125 649 217 582 165 625 b 40 626 96 665 57 656 b 63 542 22 596 33 558 b 226 476 103 518 167 496 b 222 446 224 467 222 457 b 226 414 222 435 224 425 b 63 350 167 396 103 374 b 40 265 33 333 22 296 b 125 243 57 235 96 225 b 263 351 165 265 217 310 b 317 321 278 338 296 326 b 290 147 303 261 290 193 b 353 85 290 113 318 85 b 415 147 388 85 415 113 b 389 321 415 193 403 261 b 443 351 410 326 428 338 b 581 243 488 310 540 265 b 665 265 610 225 649 235 b 643 350 682 296 672 333 z m 353 371 b 278 446 311 371 278 404 b 353 521 278 488 311 521 b 428 446 394 521 428 488 b 353 371 428 404 394 371 z "},"✽":{"ha":713,"x_min":0,"x_max":0,"o":"m 161 233 b 349 433 247 283 265 376 b 271 171 342 332 271 271 b 357 85 271 124 308 85 b 443 171 404 85 443 124 b 363 433 443 271 371 332 b 551 233 447 376 464 283 b 669 265 593 210 646 224 b 638 383 693 307 679 358 b 369 446 550 433 461 403 b 638 508 461 489 550 458 b 669 626 679 532 693 585 b 551 658 646 668 593 682 b 363 457 464 608 447 514 b 443 721 371 560 443 621 b 357 807 443 768 404 807 b 271 721 308 807 271 768 b 349 457 271 621 342 560 b 161 658 265 514 247 608 b 44 626 119 682 68 668 b 75 508 19 585 35 533 b 342 446 161 458 250 489 b 75 383 250 403 161 433 b 44 265 35 358 19 307 b 161 233 68 224 119 210 z "},"✿":{"ha":754,"x_min":0,"x_max":0,"o":"m 722 472 b 565 629 722 558 653 629 b 531 625 554 629 543 628 b 533 650 532 633 533 642 b 376 807 533 736 464 807 b 221 650 290 807 221 736 b 222 625 221 642 221 633 b 189 629 211 628 200 629 b 32 472 101 629 32 558 b 121 331 32 410 68 356 b 93 240 103 306 93 275 b 249 85 93 154 163 85 b 376 151 301 85 349 111 b 506 85 406 111 451 85 b 661 240 592 85 661 154 b 633 331 661 275 650 306 b 722 472 686 356 722 410 z m 376 303 b 257 424 311 303 257 357 b 376 543 257 489 311 543 b 497 424 443 543 497 489 b 376 303 497 357 443 303 z "},"❈":{"ha":786,"x_min":0,"x_max":0,"o":"m 294 446 b 118 532 294 446 214 532 b 32 446 69 532 32 493 b 118 360 32 399 69 360 b 294 446 214 360 294 446 z m 490 446 b 668 360 490 446 571 360 b 754 446 715 360 754 399 b 668 532 754 493 715 532 b 490 446 571 532 490 446 z m 393 543 b 478 721 393 543 478 625 b 393 807 478 768 440 807 b 307 721 344 807 307 768 b 393 543 307 625 393 543 z m 393 349 b 307 171 393 349 307 267 b 393 85 307 124 344 85 b 478 171 440 85 478 124 b 393 349 478 267 393 349 z m 393 358 b 481 446 440 358 481 397 b 393 533 481 494 440 533 b 306 446 344 533 306 494 b 393 358 306 397 344 358 z m 122 685 l 292 517 l 322 547 l 153 715 z m 463 344 l 632 176 l 663 207 l 493 375 z m 632 715 l 463 547 l 493 517 l 663 685 z m 292 375 l 122 207 l 153 176 l 322 344 z "},"❉":{"ha":711,"x_min":0,"x_max":0,"o":"m 668 626 b 556 657 646 665 596 679 b 517 564 524 638 508 599 l 378 483 l 378 644 b 439 724 413 654 439 685 b 356 807 439 769 401 807 b 274 724 310 807 274 769 b 335 643 274 685 299 653 l 335 482 l 194 563 b 157 657 204 599 189 636 b 43 626 117 679 67 665 b 74 513 21 586 33 536 b 174 526 106 493 147 500 l 313 446 l 174 364 b 74 378 147 390 106 397 b 43 265 33 356 21 304 b 157 235 67 225 117 213 b 194 328 189 254 204 293 l 335 410 l 335 247 b 274 167 299 238 274 206 b 356 85 274 122 310 85 b 439 167 401 85 439 122 b 378 247 439 204 413 238 l 378 408 l 517 328 b 556 235 508 293 522 254 b 668 265 596 213 646 225 b 639 378 692 304 678 356 b 538 364 604 397 564 390 l 397 446 l 538 526 b 639 513 564 500 604 493 b 668 626 678 536 692 586 z "},"❊":{"ha":786,"x_min":0,"x_max":0,"o":"m 315 369 b 138 279 315 369 210 351 b 138 190 113 254 113 215 b 226 190 163 167 201 167 b 315 369 299 263 315 369 z m 469 522 b 649 613 469 522 576 540 b 649 701 672 638 672 676 b 560 701 624 725 585 725 b 469 522 488 629 469 522 z m 315 522 b 226 701 315 522 299 629 b 138 701 201 725 163 725 b 138 613 113 676 113 638 b 315 522 210 540 315 522 z m 469 369 b 560 190 469 369 488 263 b 649 190 585 167 624 167 b 649 279 672 215 672 254 b 469 369 576 351 469 369 z m 285 446 b 94 508 285 446 197 508 b 32 446 60 508 32 481 b 94 383 32 411 60 383 b 285 446 197 383 285 446 z m 501 446 b 692 383 501 446 589 383 b 754 446 726 383 754 411 b 692 508 754 481 726 508 b 501 446 589 508 501 446 z m 393 554 b 456 744 393 554 456 642 b 393 807 456 779 428 807 b 331 744 358 807 331 779 b 393 554 331 642 393 554 z m 393 338 b 331 147 393 338 331 250 b 393 85 331 113 358 85 b 456 147 428 85 456 113 b 393 338 456 250 393 338 z m 393 358 b 481 446 442 358 481 397 b 393 533 481 494 442 533 b 306 446 344 533 306 494 b 393 358 306 397 344 358 z "},"❋":{"ha":786,"x_min":0,"x_max":0,"o":"m 226 190 b 353 368 267 231 315 307 b 367 363 357 365 361 364 b 331 147 349 293 331 204 b 393 85 331 113 358 85 b 456 147 428 85 456 113 b 419 363 456 204 436 293 b 433 368 424 364 429 365 b 560 190 469 307 519 231 b 649 190 585 167 624 167 b 649 279 672 215 672 254 b 471 406 608 319 532 368 b 476 419 472 410 475 414 b 692 383 544 401 635 383 b 754 446 726 383 754 411 b 692 508 754 481 726 508 b 476 472 635 508 544 489 l 471 486 b 649 613 532 522 608 572 b 649 701 672 638 672 676 b 560 701 624 725 585 725 b 433 524 519 661 469 585 l 419 529 b 456 744 436 597 456 688 b 393 807 456 779 428 807 b 331 744 358 807 331 779 b 367 529 331 688 349 597 b 353 524 361 528 357 525 b 226 701 315 585 267 661 b 138 701 201 725 163 725 b 138 613 114 676 114 638 b 315 486 178 572 254 522 b 310 472 313 482 311 476 b 94 508 240 489 151 508 b 32 446 60 508 32 481 b 94 383 32 411 60 383 b 310 419 151 383 240 401 b 315 406 311 414 313 410 b 138 279 254 368 178 319 b 138 190 114 254 114 215 b 226 190 163 167 201 167 z "},"❤":{"ha":603,"x_min":0,"x_max":0,"o":"m 307 172 b 571 526 307 293 571 333 b 301 660 571 701 394 753 b 33 526 208 753 33 701 b 296 172 33 333 296 293 z "},"❥":{"ha":597,"x_min":0,"x_max":0,"o":"m 565 444 b 211 707 444 444 404 707 b 78 439 36 707 -15 532 b 211 169 -15 346 36 169 b 565 432 404 169 444 432 z "},"❦":{"ha":794,"x_min":0,"x_max":0,"o":"m 113 640 b 124 739 97 665 78 700 b 333 693 171 779 254 744 b 453 632 367 672 408 649 b 413 539 436 589 422 564 b 288 611 396 582 353 624 b 168 364 214 596 135 522 b 622 132 219 113 514 4 b 549 199 692 214 581 278 b 421 160 515 114 435 128 b 522 251 407 193 429 218 b 653 500 654 300 683 401 b 453 549 626 588 533 607 b 488 618 463 571 475 594 l 488 619 b 632 608 539 603 589 596 b 733 828 753 642 797 774 b 639 747 661 890 588 781 b 625 638 688 715 679 650 b 501 654 583 629 544 635 b 464 807 515 706 513 769 b 342 754 403 851 335 808 b 94 757 238 818 147 797 b 42 599 32 710 21 631 b 113 640 67 563 140 593 z m 415 704 b 386 761 392 721 383 739 b 451 771 389 782 428 797 b 465 672 471 751 478 718 b 415 704 450 681 433 692 z "},"❧":{"ha":842,"x_min":0,"x_max":0,"o":"m 238 176 b 139 189 213 163 178 142 b 185 399 99 235 133 319 b 246 517 206 431 228 474 l 247 517 b 326 482 282 503 306 490 b 246 372 283 468 243 432 b 469 213 249 296 308 207 b 774 622 726 222 883 494 b 697 561 704 704 624 606 b 714 429 775 513 747 438 b 639 543 678 419 657 446 b 415 714 614 682 518 726 b 342 511 322 701 286 606 b 260 553 317 522 289 538 l 258 553 b 271 696 275 604 282 654 b 50 799 236 817 104 863 b 131 704 -11 725 97 651 b 240 689 163 751 229 743 b 224 565 249 647 243 608 b 71 528 172 579 107 576 b 122 406 25 468 68 400 b 121 160 58 301 81 213 b 279 107 168 96 247 86 b 238 176 315 131 285 204 z m 175 481 b 117 450 157 456 139 447 b 107 517 96 454 81 492 b 206 531 126 535 158 542 b 175 481 196 515 186 497 z "},"ﬀ":{"ha":1126,"x_min":0,"x_max":0,"o":"m 1044 515 l 778 515 b 538 688 717 611 549 614 b 604 764 532 725 546 764 b 888 597 700 764 708 597 b 1097 940 1068 597 1118 789 l 1065 940 b 992 842 1065 879 1054 842 b 757 951 924 842 894 951 b 576 892 689 951 625 936 b 340 951 514 847 468 951 b 122 649 203 951 122 888 l 122 515 l 25 515 l 25 482 l 122 482 l 122 0 l 426 0 l 426 435 b 419 482 426 451 424 468 l 496 482 l 496 0 l 800 0 l 800 435 b 793 482 800 451 797 468 l 1044 482 z m 231 764 b 499 710 329 757 394 658 b 496 649 496 690 496 671 l 496 515 l 404 515 b 164 688 343 611 175 614 b 231 764 158 725 174 769 z "},"ﬃ":{"ha":1203,"x_min":0,"x_max":0,"o":"m 1136 751 b 883 515 1136 621 1075 519 l 776 515 b 536 688 715 611 547 614 b 603 764 531 725 546 764 b 886 597 699 764 708 597 b 1096 940 1067 597 1117 789 l 1065 940 b 992 842 1065 879 1053 842 b 756 951 922 842 893 951 b 574 889 686 951 621 935 b 339 951 513 851 467 951 b 122 649 201 951 122 888 l 122 515 l 25 515 l 25 482 l 122 482 l 122 0 l 426 0 l 426 435 b 419 482 426 451 424 468 l 494 482 l 494 0 l 799 0 l 799 435 b 792 482 799 451 796 468 l 868 482 l 868 0 l 1172 0 l 1172 751 z m 229 764 b 497 710 328 757 393 658 b 494 649 494 690 494 669 l 494 515 l 404 515 b 164 688 343 611 174 614 b 229 764 158 725 172 769 z "},"ﬄ":{"ha":1203,"x_min":0,"x_max":0,"o":"m 799 435 b 792 482 799 451 796 468 l 868 482 l 868 0 l 1171 0 l 1171 917 l 1171 940 l 1136 940 b 1063 842 1136 879 1125 842 b 756 951 994 842 894 951 b 574 889 686 951 621 935 b 339 951 513 851 467 951 b 122 649 201 951 122 888 l 122 515 l 25 515 l 25 482 l 122 482 l 122 0 l 426 0 l 426 435 b 419 482 426 451 424 468 l 494 482 l 494 0 l 799 0 z m 231 764 b 497 710 328 757 393 658 b 494 649 494 690 494 669 l 494 515 l 404 515 b 164 688 343 611 174 614 b 231 764 158 725 172 769 z m 603 764 b 868 611 681 764 749 653 l 868 515 l 776 515 b 536 688 715 611 547 614 b 603 764 531 725 546 764 z "},"Ĳ":{"ha":733,"x_min":0,"x_max":0,"o":"m 339 397 l 339 942 l 36 942 l 36 397 z m 399 507 b 661 253 399 326 647 342 b 594 176 667 215 650 179 b 210 344 432 171 390 344 b 31 0 50 344 6 178 l 61 0 b 124 100 61 61 82 100 b 399 -11 199 100 261 -11 b 701 292 549 -11 701 53 l 701 942 l 399 942 z "},"\u0000":{"ha":0,"x_min":0,"x_max":0,"o":""},"\r":{"ha":0,"x_min":0,"x_max":0,"o":""}," ":{"ha":367,"x_min":0,"x_max":0,"o":""}}}
